<?xml version="1.0" encoding="utf-8"?>
<!-- Generator: Adobe Illustrator 21.0.0, SVG Export Plug-In . SVG Version: 6.00 Build 0)  -->
<svg version="1.0" xmlns="http://www.w3.org/2000/svg" xmlns:xlink="http://www.w3.org/1999/xlink" x="0px" y="0px"
	 viewBox="0 0 600 600" style="enable-background:new 0 0 600 600;" xml:space="preserve">
<style type="text/css">
	.st0{display:none;}
	.st1{display:inline;fill:#F4A538;}
	.st2{fill:#1A191A;}
	.st3{display:inline;}
	.st4{fill:#F4A538;}
	.st5{fill:#4C4E50;}
</style>
<g id="Capa_6" class="st0">
	<path class="st1" d="M577,600H23c-12.7,0-23-10.3-23-23V22C0,9.3,10.3-1,23-1h554c12.7,0,23,10.3,23,23v555
		C600,589.7,589.7,600,577,600z"/>
</g>
<g id="Capa_6_copia">
	<path class="st2" d="M577,600H23c-12.7,0-23-10.3-23-23V22C0,9.3,10.3-1,23-1h554c12.7,0,23,10.3,23,23v555
		C600,589.7,589.7,600,577,600z"/>
</g>
<g id="Nacimiento" class="st0">
	<g class="st3">
		<g>
			<path class="st2" d="M97.1,100.2c-26.1,0-47.2,21.1-47.2,47.2v365c0,26.1,21.1,47.2,47.2,47.2h405.8c26.1,0,47.2-21.1,47.2-47.2
				v-365c0-26.1-21.1-47.2-47.2-47.2h-16.5v29.9c0,20-16.2,36.2-36.2,36.2c-19.9,0-36.2-16.2-36.2-36.2v-29.9H186v29.9
				c0,20-16.2,36.2-36.2,36.2c-20,0-36.2-16.2-36.2-36.2v-29.9H97.1z M127,232.4H473c10.4,0,18.9,7.6,18.9,17.1v236.4
				c0,9.4-8.4,17.1-18.9,17.1H127c-10.4,0-18.9-7.6-18.9-17.1V249.5C108.1,240,116.5,232.4,127,232.4z"/>
			<path class="st2" d="M132.5,57.7v42.5v29.9c0,9.5,7.8,17.3,17.3,17.3c9.5,0,17.3-7.8,17.3-17.3v-29.9V57.7
				c0-9.6-7.8-17.3-17.3-17.3C140.2,40.4,132.5,48.2,132.5,57.7z"/>
			<path class="st2" d="M432.9,57.7v42.5v29.9c0,9.5,7.8,17.3,17.3,17.3c9.5,0,17.3-7.8,17.3-17.3v-29.9V57.7
				c0-9.6-7.8-17.3-17.3-17.3C440.7,40.4,432.9,48.2,432.9,57.7z"/>
		</g>
		<rect x="141.2" y="261.9" class="st2" width="91.6" height="93.7"/>
		<rect x="256.4" y="261.9" class="st2" width="91.6" height="93.7"/>
		<rect x="141.2" y="377" class="st2" width="91.6" height="93.7"/>
		<rect x="256.4" y="377" class="st2" width="91.6" height="93.7"/>
		<rect x="376" y="261.9" class="st2" width="91.5" height="93.7"/>
		<rect x="376" y="377" class="st2" width="91.5" height="93.7"/>
	</g>
</g>
<g id="Competitividad">
	<g>
		<rect x="378.7" y="247" class="st4" width="118.7" height="271.8"/>
		<rect x="239.6" y="324.7" class="st4" width="118.7" height="194.2"/>
		<rect x="100.4" y="389.4" class="st4" width="118.7" height="129.5"/>
		<path class="st4" d="M359,83.7l38.1,18.6c-82,194.4-293.6,177.5-293.6,177.5c205.6,44.8,286.2-62.3,337.3-149.1l37.4,22.4
			l-18.9-112L359,83.7z"/>
		<rect x="76.7" y="537.2" class="st4" width="446.6" height="21.6"/>
	</g>
</g>
<g id="Salarios" class="st0">
	<g class="st3">
		<path class="st2" d="M267.5,73.3c-76.1,7.4-147.9,41.9-151.1,125.1C112.8,292,190.7,319.4,267.6,338l0,103.8
			c-37.9-16.6-39.1-60.8-39.1-60.8l-129,14.6c9.9,90.6,88.1,124.1,168.2,129.3l0,34.6h26.9V40.4h-27V73.3z M267.5,224.9
			c-2.7-1.1-5.2-2.2-7.4-3.4c-33.5-17.3-28.9-52.3,7.4-64.9L267.5,224.9z"/>
		<path class="st2" d="M464.7,303.1c-38.5-34.1-91-49.2-135.3-60.5v-83.9c26.4,12.5,31.8,38.5,31.8,38.5l125.4-20.7
			C472.4,118.6,411.3,80.2,329.3,73l0-32.6h-21.7v519.2h21.8v-35.8c44.5-4.4,83.7-15.7,104.9-28.4
			C501.2,455.3,528,359.1,464.7,303.1z M329.4,445.2l0-90.2c30.8,10.6,41.5,20.8,46.4,38.2C381.7,414,366.8,437.2,329.4,445.2z"/>
	</g>
</g>
<g id="Hanilidades" class="st0">
	<g class="st3">
		<rect x="884.5" y="863.9" class="st5" width="16.1" height="37"/>
		<rect x="865.5" y="874.5" class="st5" width="16.1" height="26.4"/>
		<rect x="846.6" y="883.3" class="st5" width="16.1" height="17.6"/>
		<path class="st5" d="M881.8,841.7l5.2,2.5c-11.2,26.5-40,24.2-40,24.2c28,6.1,39-8.5,45.9-20.3l5.1,3.1l-2.6-15.2L881.8,841.7z"/>
		<rect x="843.4" y="903.4" class="st5" width="60.8" height="2.9"/>
	</g>
	<g class="st3">
		<path class="st4" d="M519.8,43.4c-12.7,0-28.9,1.6-48,4.6c-19.9,3.2-33.6,6.9-41.9,11.4c-8.3,4.4-20.7,15.4-38.1,33.7
			c-16.8,17.7-38.4,45.4-64.1,82.5c-25.6,36.9-48.2,72.9-67.2,106.8c-17,30.4-34.3,63.8-51.6,99.4c-12.1-15.4-24.9-27.7-38-36.7
			c-16.7-11.4-32.6-17.2-47.4-17.2c-15.1,0-31.6,6.6-49.1,19.6C56.2,361,47,376.4,47,393.3c0,12.7,7.9,27.5,24.1,45.3
			c23.6,25.9,42.6,49.9,56.6,71.4c10.4,16,17.5,26.1,21.8,30.8c4.8,5.4,11,9.4,18.3,12.1c7,2.5,18.7,3.8,35.7,3.8
			c23.3,0,39.2-2.5,48.6-7.6c9.4-5.1,16.8-12.4,22-21.6c4.7-8.3,12.1-25,22.6-50.8c26-64.8,61.4-132.7,105.2-201.7
			c43.6-68.8,86.4-122.8,127-160.3c10-9.1,16-15.5,19.1-20.3c3.4-5.4,5.2-11.7,5.2-18.7c0-8.8-3.1-16.5-9.2-22.7
			C537.6,46.6,529.6,43.4,519.8,43.4z"/>
	</g>
</g>
</svg>
