<?xml version="1.0" encoding="utf-8"?>
<!-- Generator: Adobe Illustrator 21.0.0, SVG Export Plug-In . SVG Version: 6.00 Build 0)  -->
<svg version="1.0" id="Capa_1" xmlns="http://www.w3.org/2000/svg" xmlns:xlink="http://www.w3.org/1999/xlink" x="0px" y="0px"
	 viewBox="0 0 600 600" style="enable-background:new 0 0 600 600;" xml:space="preserve">
<style type="text/css">
	.st0{display:none;}
	.st1{display:inline;fill:#F4A538;}
	.st2{fill:#1A191A;}
	.st3{display:inline;}
	.st4{fill:#F4A538;}
</style>
<g id="Capa_6" class="st0">
	<path class="st1" d="M577,600H23c-12.7,0-23-10.3-23-23V22C0,9.3,10.3-1,23-1h554c12.7,0,23,10.3,23,23v555
		C600,589.7,589.7,600,577,600z"/>
</g>
<g id="Capa_6_copia">
	<path class="st2" d="M577,600H23c-12.7,0-23-10.3-23-23V22C0,9.3,10.3-1,23-1h554c12.7,0,23,10.3,23,23v555
		C600,589.7,589.7,600,577,600z"/>
</g>
<g id="Nacimiento" class="st0">
	<g class="st3">
		<g>
			<path class="st2" d="M97.1,100.2c-26.1,0-47.2,21.1-47.2,47.2v365c0,26.1,21.1,47.2,47.2,47.2h405.8c26.1,0,47.2-21.1,47.2-47.2
				v-365c0-26.1-21.1-47.2-47.2-47.2h-16.5v29.9c0,20-16.2,36.2-36.2,36.2c-19.9,0-36.2-16.2-36.2-36.2v-29.9H186v29.9
				c0,20-16.2,36.2-36.2,36.2s-36.2-16.2-36.2-36.2v-29.9L97.1,100.2L97.1,100.2z M127,232.4h346c10.4,0,18.9,7.6,18.9,17.1v236.4
				c0,9.4-8.4,17.1-18.9,17.1H127c-10.4,0-18.9-7.6-18.9-17.1V249.5C108.1,240,116.5,232.4,127,232.4z"/>
			<path class="st2" d="M132.5,57.7v42.5v29.9c0,9.5,7.8,17.3,17.3,17.3s17.3-7.8,17.3-17.3v-29.9V57.7c0-9.6-7.8-17.3-17.3-17.3
				C140.2,40.4,132.5,48.2,132.5,57.7z"/>
			<path class="st2" d="M432.9,57.7v42.5v29.9c0,9.5,7.8,17.3,17.3,17.3s17.3-7.8,17.3-17.3v-29.9V57.7c0-9.6-7.8-17.3-17.3-17.3
				C440.7,40.4,432.9,48.2,432.9,57.7z"/>
		</g>
		<rect x="141.2" y="261.9" class="st2" width="91.6" height="93.7"/>
		<rect x="256.4" y="261.9" class="st2" width="91.6" height="93.7"/>
		<rect x="141.2" y="377" class="st2" width="91.6" height="93.7"/>
		<rect x="256.4" y="377" class="st2" width="91.6" height="93.7"/>
		<rect x="376" y="261.9" class="st2" width="91.5" height="93.7"/>
		<rect x="376" y="377" class="st2" width="91.5" height="93.7"/>
	</g>
</g>
<g id="Competitividad" class="st0">
	<g class="st3">
		<rect x="378.7" y="247" class="st4" width="118.7" height="271.8"/>
		<rect x="239.6" y="324.7" class="st4" width="118.7" height="194.2"/>
		<rect x="100.4" y="389.4" class="st4" width="118.7" height="129.5"/>
		<path class="st4" d="M359,83.7l38.1,18.6c-82,194.4-293.6,177.5-293.6,177.5c205.6,44.8,286.2-62.3,337.3-149.1l37.4,22.4
			l-18.9-112L359,83.7z"/>
		<rect x="76.7" y="537.2" class="st4" width="446.6" height="21.6"/>
	</g>
</g>
<g id="Salarios" class="st0">
	<g class="st3">
		<path class="st2" d="M267.5,73.3c-76.1,7.4-147.9,41.9-151.1,125.1c-3.6,93.6,74.3,121,151.2,139.6v103.8
			c-37.9-16.6-39.1-60.8-39.1-60.8l-129,14.6c9.9,90.6,88.1,124.1,168.2,129.3v34.6h26.9V40.4h-27v32.9H267.5z M267.5,224.9
			c-2.7-1.1-5.2-2.2-7.4-3.4c-33.5-17.3-28.9-52.3,7.4-64.9V224.9z"/>
		<path class="st2" d="M464.7,303.1c-38.5-34.1-91-49.2-135.3-60.5v-83.9c26.4,12.5,31.8,38.5,31.8,38.5l125.4-20.7
			C472.4,118.6,411.3,80.2,329.3,73V40.4h-21.7v519.2h21.8v-35.8c44.5-4.4,83.7-15.7,104.9-28.4C501.2,455.3,528,359.1,464.7,303.1z
			 M329.4,445.2V355c30.8,10.6,41.5,20.8,46.4,38.2C381.7,414,366.8,437.2,329.4,445.2z"/>
	</g>
</g>
<g>
	<path class="st4" d="M506.6,58.8c-11.9,0-27.2,1.5-45.1,4.3c-18.7,3-31.6,6.5-39.4,10.7c-7.8,4.1-19.5,14.5-35.8,31.7
		c-15.8,16.6-36.1,42.7-60.3,77.5c-24.1,34.7-45.3,68.5-63.2,100.4c-16,28.6-32.2,60-48.5,93.4c-11.4-14.5-23.4-26-35.7-34.5
		c-15.7-10.7-30.6-16.2-44.6-16.2c-14.2,0-29.7,6.2-46.2,18.4c-17.1,12.7-25.8,27.2-25.8,43c0,11.9,7.4,25.8,22.7,42.6
		c22.2,24.3,40,46.9,53.2,67.1c9.8,15,16.4,24.5,20.5,29c4.5,5.1,10.3,8.8,17.2,11.4c6.6,2.3,17.6,3.6,33.6,3.6
		c21.9,0,36.8-2.3,45.7-7.1c8.8-4.8,15.8-11.7,20.7-20.3c4.4-7.8,11.4-23.5,21.2-47.7c24.4-60.9,57.7-124.7,98.9-189.6
		c41-64.7,81.2-115.4,119.4-150.7c9.4-8.6,15-14.6,18-19.1c3.2-5.1,4.9-11,4.9-17.6c0-8.3-2.9-15.5-8.6-21.3
		C523.3,61.8,515.8,58.8,506.6,58.8z"/>
</g>
</svg>
