<?xml version="1.0" encoding="utf-8"?>
<!-- Generator: Adobe Illustrator 21.0.0, SVG Export Plug-In . SVG Version: 6.00 Build 0)  -->
<svg version="1.0" xmlns="http://www.w3.org/2000/svg" xmlns:xlink="http://www.w3.org/1999/xlink" x="0px" y="0px"
	 viewBox="0 0 600 600" style="enable-background:new 0 0 600 600;" xml:space="preserve">
<style type="text/css">
	.st0{fill:#F4A538;}
	.st1{display:none;}
	.st2{display:inline;fill:#1A191A;}
	.st3{display:inline;}
	.st4{fill:#1A191A;}
	.st5{fill:#4C4E50;}
	.st6{fill:none;}
</style>
<g id="Capa_6">
	<path class="st0" d="M577,600H23c-12.7,0-23-10.3-23-23V22C0,9.3,10.3-1,23-1h554c12.7,0,23,10.3,23,23v555
		C600,589.7,589.7,600,577,600z"/>
</g>
<g id="Capa_6_copia" class="st1">
	<path class="st2" d="M577,600H23c-12.7,0-23-10.3-23-23V22C0,9.3,10.3-1,23-1h554c12.7,0,23,10.3,23,23v555
		C600,589.7,589.7,600,577,600z"/>
</g>
<g id="Nacimiento" class="st1">
	<g class="st3">
		<g>
			<path class="st4" d="M97.1,100.2c-26.1,0-47.2,21.1-47.2,47.2v365c0,26.1,21.1,47.2,47.2,47.2h405.8c26.1,0,47.2-21.1,47.2-47.2
				v-365c0-26.1-21.1-47.2-47.2-47.2h-16.5v29.9c0,20-16.2,36.2-36.2,36.2c-19.9,0-36.2-16.2-36.2-36.2v-29.9H186v29.9
				c0,20-16.2,36.2-36.2,36.2c-20,0-36.2-16.2-36.2-36.2v-29.9H97.1z M127,232.4H473c10.4,0,18.9,7.6,18.9,17.1v236.4
				c0,9.4-8.4,17.1-18.9,17.1H127c-10.4,0-18.9-7.6-18.9-17.1V249.5C108.1,240,116.5,232.4,127,232.4z"/>
			<path class="st4" d="M132.5,57.7v42.5v29.9c0,9.5,7.8,17.3,17.3,17.3c9.5,0,17.3-7.8,17.3-17.3v-29.9V57.7
				c0-9.6-7.8-17.3-17.3-17.3C140.2,40.4,132.5,48.2,132.5,57.7z"/>
			<path class="st4" d="M432.9,57.7v42.5v29.9c0,9.5,7.8,17.3,17.3,17.3c9.5,0,17.3-7.8,17.3-17.3v-29.9V57.7
				c0-9.6-7.8-17.3-17.3-17.3C440.7,40.4,432.9,48.2,432.9,57.7z"/>
		</g>
		<rect x="141.2" y="261.9" class="st4" width="91.6" height="93.7"/>
		<rect x="256.4" y="261.9" class="st4" width="91.6" height="93.7"/>
		<rect x="141.2" y="377" class="st4" width="91.6" height="93.7"/>
		<rect x="256.4" y="377" class="st4" width="91.6" height="93.7"/>
		<rect x="376" y="261.9" class="st4" width="91.5" height="93.7"/>
		<rect x="376" y="377" class="st4" width="91.5" height="93.7"/>
	</g>
</g>
<g id="Competitividad" class="st1">
	<g class="st3">
		<rect x="378.7" y="247" class="st0" width="118.7" height="271.8"/>
		<rect x="239.6" y="324.7" class="st0" width="118.7" height="194.2"/>
		<rect x="100.4" y="389.4" class="st0" width="118.7" height="129.5"/>
		<path class="st0" d="M359,83.7l38.1,18.6c-82,194.4-293.6,177.5-293.6,177.5c205.6,44.8,286.2-62.3,337.3-149.1l37.4,22.4
			l-18.9-112L359,83.7z"/>
		<rect x="76.7" y="537.2" class="st0" width="446.6" height="21.6"/>
	</g>
</g>
<g id="Salarios" class="st1">
	<g class="st3">
		<path class="st4" d="M267.5,73.3c-76.1,7.4-147.9,41.9-151.1,125.1C112.8,292,190.7,319.4,267.6,338l0,103.8
			c-37.9-16.6-39.1-60.8-39.1-60.8l-129,14.6c9.9,90.6,88.1,124.1,168.2,129.3l0,34.6h26.9V40.4h-27V73.3z M267.5,224.9
			c-2.7-1.1-5.2-2.2-7.4-3.4c-33.5-17.3-28.9-52.3,7.4-64.9L267.5,224.9z"/>
		<path class="st4" d="M464.7,303.1c-38.5-34.1-91-49.2-135.3-60.5v-83.9c26.4,12.5,31.8,38.5,31.8,38.5l125.4-20.7
			C472.4,118.6,411.3,80.2,329.3,73l0-32.6h-21.7v519.2h21.8v-35.8c44.5-4.4,83.7-15.7,104.9-28.4
			C501.2,455.3,528,359.1,464.7,303.1z M329.4,445.2l0-90.2c30.8,10.6,41.5,20.8,46.4,38.2C381.7,414,366.8,437.2,329.4,445.2z"/>
	</g>
</g>
<g id="Hanilidades" class="st1">
	<g class="st3">
		<rect x="884.5" y="863.9" class="st5" width="16.1" height="37"/>
		<rect x="865.5" y="874.5" class="st5" width="16.1" height="26.4"/>
		<rect x="846.6" y="883.3" class="st5" width="16.1" height="17.6"/>
		<path class="st5" d="M881.8,841.7l5.2,2.5c-11.2,26.5-40,24.2-40,24.2c28,6.1,39-8.5,45.9-20.3l5.1,3.1l-2.6-15.2L881.8,841.7z"/>
		<rect x="843.4" y="903.4" class="st5" width="60.8" height="2.9"/>
	</g>
	<g class="st3">
		<path class="st4" d="M519.8,43.4c-12.7,0-28.9,1.6-48,4.6c-19.9,3.2-33.6,6.9-41.9,11.4c-8.3,4.4-20.7,15.4-38.1,33.7
			c-16.8,17.7-38.4,45.4-64.1,82.5c-25.6,36.9-48.2,72.9-67.2,106.8c-17,30.4-34.3,63.8-51.6,99.4c-12.1-15.4-24.9-27.7-38-36.7
			c-16.7-11.4-32.6-17.2-47.4-17.2c-15.1,0-31.6,6.6-49.1,19.6C56.2,361,47,376.4,47,393.3c0,12.7,7.9,27.5,24.1,45.3
			c23.6,25.9,42.6,49.9,56.6,71.4c10.4,16,17.5,26.1,21.8,30.8c4.8,5.4,11,9.4,18.3,12.1c7,2.5,18.7,3.8,35.7,3.8
			c23.3,0,39.2-2.5,48.6-7.6c9.4-5.1,16.8-12.4,22-21.6c4.7-8.3,12.1-25,22.6-50.8c26-64.8,61.4-132.7,105.2-201.7
			c43.6-68.8,86.4-122.8,127-160.3c10-9.1,16-15.5,19.1-20.3c3.4-5.4,5.2-11.7,5.2-18.7c0-8.8-3.1-16.5-9.2-22.7
			C537.6,46.6,529.6,43.4,519.8,43.4z"/>
	</g>
</g>
<g id="d3Definition" class="st1">
	<g class="st3">
		<polygon class="st6" points="242.7,466.7 365.6,443 366.2,426.2 242.1,450.1 		"/>
		<polygon class="st6" points="243.8,494.7 364.7,471.5 365.3,454.6 243.2,478.2 		"/>
		<path class="st6" d="M244.3,506.9c0,0.2,0.4,0.6,0.7,0.6h117.9c0.3,0,0.6-0.4,0.6-0.5l0.8-23.9l-120.1,23.1L244.3,506.9z"/>
		<polygon class="st6" points="325.2,416.4 325.3,412.6 279.3,412.6 266.6,412.6 240.7,412.6 241.7,438.7 366.6,414.6 366.7,412.6 
			338,412.6 337.9,416.4 		"/>
		<path class="st0" d="M302.3,38.9c-98.1,0-178,79.8-178,178c0,64.3,34.3,120.8,85.6,152.1l5.3,131.5c0.6,15.1,12.3,27.7,26.9,30.1
			c5.5,16.5,30.4,29,60.2,29c29.7,0,54.4-12.3,60.1-28.7c16.2-0.8,29.5-14.2,30.1-30.5l4.6-132.9c49.9-31.5,83.2-87.2,83.2-150.6
			C480.3,118.7,400.5,38.9,302.3,38.9z M363.5,507c0,0.1-0.3,0.5-0.6,0.5H245c-0.3,0-0.7-0.4-0.7-0.6l0-0.7L364.3,483L363.5,507z
			 M364.7,471.5l-120.9,23.3l-0.6-16.6l122.1-23.5L364.7,471.5z M365.6,443l-122.9,23.7l-0.6-16.6l124.1-23.9L365.6,443z
			 M394.7,235.5l-53.6,96.1l-3,81h28.7l-0.1,2.1l-124.9,24.1l-1-26.1h25.9l-3-81l-53.6-96.1c-1.4-2.5-0.8-5.5,1.1-7.4
			c0.4-0.4,0.8-0.8,1.3-1.1c0.1,0,0.1-0.1,0.1-0.1c0,0,0.1,0,0.1,0c1-0.6,2-1,3.3-1h171.6c0.6,0,1.2,0.2,1.8,0.4
			c1,0,2.1,0.2,3.1,0.7C395.3,228.6,396.4,232.5,394.7,235.5z"/>
		<path class="st0" d="M328.4,329.6c0-1,0.3-2,0.8-2.9l34.9-62.6h-0.1l4-7.1l10.4-18.7H226.1l10.4,18.7l0,0l3.9,6.8h-0.1l35,62.8
			c0.5,0.9,0.8,1.9,0.8,2.9l3.1,83h46L328.4,329.6z"/>
	</g>
</g>
<g id="d3Changes">
	<g>
		<path class="st4" d="M146.9,300c0,84.4,68.7,153.1,153.1,153.1c84.4,0,153.1-68.7,153.1-153.1c0-84.4-68.7-153.1-153.1-153.1
			C215.6,146.9,146.9,215.6,146.9,300z M406.7,290.7c5.1,58.9-38.5,110.9-97.4,116c-58.9,5.2-110.9-38.5-116-97.4
			c-5.1-58.9,38.4-110.9,97.4-116C349.6,188.2,401.6,231.8,406.7,290.7z"/>
		<path class="st4" d="M509.9,384.6l25.3-1c5.9-0.2,12-5.1,13.5-10.8l8.3-40.1c0.8-5.8-2.8-12.7-8.1-15.3l-22.8-11
			c-5.3-2.6-9.7-9.5-9.8-15.4c0,0,0-3-0.6-9.9c-0.2-2.4-0.2-2.4-0.2-2.4c-0.3-2.6,3.5-7.3,8.5-10.4l21.5-13.6
			c5-3.2,7.8-10.4,6.3-16.1l-12.7-38.9c-2.2-5.5-8.8-9.6-14.7-9.2l-25.4,1.8c-5.9,0.4-12.9-2.8-15.5-7.2c-2.7-4.4-8.1-19.6-5.4-24.8
			l11.8-22.4c2.7-5.2,1.6-12.9-2.6-17.1L457,93.8c-4.6-3.7-12.4-4-17.3-0.7l-21,14.2c-4.9,3.3-12.5,4-17,1.6
			c-4.5-2.4-16.8-12.9-17.1-18.8l-1-25.3c-0.2-5.9-5.1-12-10.8-13.5l-40.1-8.3c-5.8-0.9-12.7,2.8-15.3,8.1l-11,22.8
			c-2.6,5.3-9.5,9.7-15.4,9.8c0,0-3,0-9.9,0.6c-2.4,0.2-2.4,0.2-2.4,0.2c-2.6,0.3-7.3-3.5-10.4-8.5l-13.6-21.5
			c-3.1-5-10.4-7.8-16.1-6.3l-38.9,12.7c-5.5,2.2-9.6,8.8-9.2,14.6l1.8,25.4c0.4,5.9-2.8,12.9-7.2,15.5c-4.4,2.7-19.6,8.1-24.8,5.4
			L138.1,110c-5.2-2.7-12.9-1.6-17.1,2.6L93.7,143c-3.7,4.6-3.9,12.4-0.6,17.3l14.3,21c3.3,4.9,4,12.5,1.6,17
			c-2.5,4.5-13,16.8-18.8,17.1l-25.3,1c-5.9,0.2-12,5.1-13.5,10.8l-8.3,40.1c-0.9,5.8,2.8,12.7,8.1,15.3l22.8,11
			c5.3,2.6,9.7,9.5,9.8,15.4c0,0,0,3,0.6,9.9c0.2,2.4,0.2,2.4,0.2,2.4c0.3,2.6-3.5,7.3-8.5,10.4l-21.5,13.6
			c-5,3.1-7.8,10.4-6.3,16.1l12.7,38.9c2.2,5.5,8.8,9.6,14.6,9.2l25.4-1.8c5.9-0.4,12.9,2.8,15.5,7.2c2.7,4.4,8.1,19.6,5.4,24.8
			L110,461.9c-2.7,5.2-1.6,12.9,2.6,17.1l30.5,27.3c4.6,3.7,12.4,3.9,17.3,0.6l21-14.2c4.9-3.3,12.5-4,17-1.6
			c4.5,2.5,16.8,12.9,17.1,18.8l1,25.3c0.2,5.9,5.1,12,10.8,13.5l40.1,8.3c5.8,0.9,12.7-2.8,15.3-8.1l11.1-22.8
			c2.6-5.3,9.5-9.7,15.4-9.8c0,0,2.9,0,9.9-0.6c2.4-0.2,2.4-0.2,2.4-0.2c2.6-0.3,7.3,3.5,10.4,8.5l13.6,21.5
			c3.1,5,10.4,7.9,16.1,6.4l38.9-12.7c5.5-2.2,9.6-8.8,9.2-14.6l-1.8-25.4c-0.4-5.9,2.8-12.9,7.2-15.5c4.4-2.7,19.6-8.1,24.8-5.4
			l22.4,11.8c5.2,2.7,12.9,1.6,17.1-2.6l27.3-30.5c3.7-4.6,4-12.4,0.6-17.3l-14.2-21c-3.3-4.9-4-12.5-1.6-17
			C493.5,397.2,504.1,384.9,509.9,384.6z M300,474.5c-96.2,0-174.5-78.3-174.5-174.5c0-96.2,78.3-174.5,174.5-174.5
			c96.2,0,174.5,78.3,174.5,174.5C474.5,396.2,396.2,474.5,300,474.5z"/>
	</g>
</g>
<g id="d3Tecnologies" class="st1">
	<g class="st3">
		<g>
			<path class="st4" d="M256.4,44.4v20.2h-41c-4.8,0-8.7,3.9-8.7,8.7v108.9c0,4.8,3.9,8.7,8.7,8.7h168.2c4.8,0,8.7-3.9,8.7-8.7V73.3
				c0-4.8-3.9-8.7-8.7-8.7h-41V44.4h-8.9v20.2h-68.3V44.4H256.4z M353.5,168.5H245.6v-11.6h107.9V168.5z M342.6,91.8
				c8.9,0,16.1,7.2,16.1,16.1c0,8.8-7.2,16-16.1,16c-8.9,0-16-7.2-16-16C326.5,99,333.7,91.8,342.6,91.8z M272.4,107.8
				c0,8.8-7.2,16-16,16c-8.9,0-16-7.2-16-16c0-8.9,7.1-16.1,16-16.1C265.3,91.8,272.4,99,272.4,107.8z"/>
			<g>
				<rect x="149" y="201.8" class="st4" width="33.3" height="93.8"/>
				<rect x="149" y="302.4" class="st4" width="33.3" height="93.8"/>
				<path class="st4" d="M177.2,457.8v12.6c14.8-4.9,25.4-18.7,25.4-35.1c0-20.4-16.6-37-37-37c-20.5,0-37,16.6-37,37
					c0,16.4,10.7,30.3,25.4,35.1v-12.6c-8.2-4.2-13.8-12.7-13.8-22.5c0-14.1,11.4-25.4,25.4-25.4c14,0,25.4,11.4,25.4,25.4
					C191.1,445.2,185.4,453.6,177.2,457.8z"/>
			</g>
			<g>
				<rect x="417.7" y="201.8" class="st4" width="33.3" height="93.8"/>
				<rect x="417.7" y="302.4" class="st4" width="33.3" height="93.8"/>
				<path class="st4" d="M445.9,457.8v12.6c14.7-4.9,25.4-18.7,25.4-35.1c0-20.4-16.6-37-37-37c-20.5,0-37,16.6-37,37
					c0,16.4,10.7,30.3,25.4,35.1v-12.6c-8.2-4.2-13.8-12.7-13.8-22.5c0-14.1,11.4-25.4,25.4-25.4c14.1,0,25.4,11.4,25.4,25.4
					C459.8,445.2,454.1,453.6,445.9,457.8z"/>
			</g>
			<path class="st4" d="M197.1,196.7c-4.8,0-8.7,3.9-8.7,8.7v154.7c0,4.8,3.9,8.7,8.7,8.7h204.8c4.8,0,8.7-3.9,8.7-8.7V205.4
				c0-4.8-3.9-8.7-8.7-8.7H197.1z M369.1,317c0,7.1-5.8,13-13,13h-40.6l27.5-27.6c3.2-3.2,3.2-8.3,0-11.4c-3.2-3.2-8.3-3.2-11.4,0
				l-39,39h-49.8c-7.2,0-13-5.8-13-13v-45.3c0-7.2,5.8-13,13-13h113.3c7.1,0,13,5.8,13,13V317z"/>
		</g>
		<g>
			<g>
				<rect x="231.8" y="378.3" class="st4" width="55" height="85.8"/>
			</g>
			<g>
				<rect x="231.8" y="473" class="st4" width="55" height="40.7"/>
			</g>
			<path class="st4" d="M217.6,519.2c-8.7,0-15.8,8.2-15.8,18.2c0,10.1,7.1,18.2,15.8,18.2h62.3c8.7,0,15.8-8.2,15.8-18.2
				c0-10-7.1-18.2-15.8-18.2H217.6z"/>
			<g>
				<rect x="313.1" y="378.3" class="st4" width="55" height="85.8"/>
			</g>
			<g>
				<rect x="313.1" y="473" class="st4" width="55" height="40.7"/>
			</g>
			<path class="st4" d="M320,519.2c-8.7,0-15.8,8.2-15.8,18.2c0,10.1,7.1,18.2,15.8,18.2h62.3c8.7,0,15.8-8.2,15.8-18.2
				c0-10-7.1-18.2-15.8-18.2H320z"/>
		</g>
	</g>
</g>
<g id="d3Encuestas" class="st1">
	<g class="st3">
		<rect x="52.4" y="164.1" class="st0" width="147.2" height="337.3"/>
		<rect x="225" y="279.3" class="st0" width="147.2" height="222.2"/>
		<rect x="397.7" y="49" class="st0" width="147.2" height="452.4"/>
		<rect x="22.9" y="524.2" class="st0" width="554.2" height="26.8"/>
	</g>
</g>
</svg>
