<?xml version="1.0" encoding="utf-8"?>
<!-- Generator: Adobe Illustrator 21.0.0, SVG Export Plug-In . SVG Version: 6.00 Build 0)  -->
<svg version="1.0" id="Capa_1" xmlns="http://www.w3.org/2000/svg" xmlns:xlink="http://www.w3.org/1999/xlink" x="0px" y="0px"
	 viewBox="0 0 600 600" style="enable-background:new 0 0 600 600;" xml:space="preserve">
<style type="text/css">
	.st0{fill:#262426;}
	.st1{fill:#FFFFFF;}
	.st2{fill:#817E81;}
	.st3{fill:#6A6668;}
	.st4{fill:#4F4B4D;}
	.st5{fill:#302F30;}
	.st6{fill:#1B1A1B;}
	.st7{fill:#0C0C0D;}
</style>
<g>
	<circle class="st0" cx="300" cy="300" r="293"/>
	<path class="st1" d="M18.6,300C18.6,142,142,20.2,300,20.2c158,0,285.6,140.4,279.6,281c-6.5,151.9-110,274.8-268,274.8
		C153.6,576,18.6,458,18.6,300z"/>
	<g>
		<g>
			<path class="st0" d="M206.7,163.7c-0.7,0.3-1.2,0.6-2.4,1c-1.2,0.4-1.3,1.1-2,1.1c-0.6,0-1.3,1.7-1.6,1.8
				c-0.2,0.2-0.4,0.3-1.1,0.6c-0.7,0.2-1,0.4-2.2,0.2c-1.1-0.2-0.5-0.4-0.8-0.7c-0.3-0.3-0.9-0.1-1.4-0.1c-0.5,0-2.9,1.4-3,1.1
				c0-0.2-1-0.1-1.4-0.5c-0.4-0.3-1.4,0.3-2.3,0.4c-0.9,0.1,0,0-0.1,1.1c-0.1,1.1-0.4,1.1-1.5,1.2c-1.1,0.1-1.5,0.5-2,0.9
				c-0.6,0.4-0.3,0.9,0,0.8c0.3-0.1,0.8,0.3,2.6,0.5c1.9,0.1,0.8,1,0.8,1s-0.9,0.4-1.1,0.4c-0.2,0-1.4,0.2-1.4,0.2s-1.3,0.5-1.6,0.4
				c-0.2-0.1-1.1-0.4-1.1-0.4c-0.3,0.3-0.6,0.6-0.9,0.9c0,0-0.7,0.8-1.1,1c-0.4,0.2-1,0.1-1.7-0.7c-0.5-0.1-1-0.2-1.6-0.3
				c0,0-1.4,0.4-1.7,0.6c-0.3,0.2-0.8,0.9-0.8,0.9s-1.7,0.5-2.4,0.5c-0.7,0-1.3,0.7-1.8,1.2c-0.5,0.5-1.3,0.9-2,0.8
				c-0.7-0.1-1.5,0.3-2-0.2c-0.5-0.6,0.3-0.7,0.9-1.4c0.6-0.8,1.4-0.3,1.9-0.6c0.6-0.2,0.5-0.7,0.7-1.5c0.1-0.8,1-1.8,1-1.8
				s1.2-1.1,1.9-1.5c0.8-0.4,0.9-1,1.3-1.5c0.4-0.4,0.2-1.2,0.3-2.2c0.1-1-0.1-1.3-0.1-1.7c0-0.4,0.4-0.4,1.3-0.8
				c0.9-0.3,1.1-0.9,1.9-1.6c0.8-0.7-0.3-1.1-0.7-1.8c-0.3-0.8-0.7-1.2-1.2-1.2c-0.5-0.1-0.3-1.1,0-1.5c0.2-0.3,0.8,0.4,1.2,0.6
				c0.5,0.2,1.7,1.3,2,1.7c0.3,0.4,1.6,0.7,2.4,1.2c0.8,0.5,1.4,0.2,2.5-0.2c1.1-0.5,0.8-1.3,1-1.6c0.2-0.3-0.5-0.7-0.3-1.2
				c0.1-0.5-1.3-0.9-1.3-1.8c-0.1-0.8-1.3-0.4-1.4-0.9c-0.1-0.5-0.8-1.2-1.1-1.7c-0.2-0.5-1.8-0.7-2.1-0.6c-0.4,0.1-1.7,0.2-1.8-0.1
				c-0.1-0.4-0.8-0.6-1.1-0.7c-0.3-0.2-1.8-0.2-2.2-0.5c-0.4-0.2-2.3,0.1-2.9-0.3c-0.6-0.4-5.2,0.5-5.2,0.5s-1.5-0.2-1.9-0.6
				c-0.4-0.3,0-0.8,0.1-1.2c0.1-0.4-1.1-1.1-1.7-1.2c-0.6-0.1-0.8-0.6-0.7-1.1c0-0.4,1-0.7,1.3-1.1c0.3-0.3-1.1-1.3-1.8-1.6
				c-0.7-0.3-0.2-1.1,0.2-1.8c0.5-0.8-0.6-1.5-0.6-2c0-0.5-2,0-2.4,0c-0.4,0-0.7,1-1.2,1.4c-0.5,0.4-1,0.5-1,0
				c0.1-0.5,0.7-1,0.5-1.5c-0.3-0.5-2.1-2.1-2-2.7c0.2-0.5-0.7-1-0.7-1.2c-0.1-0.3-1.1-1.2-1.1-1.2s-1.8-0.3-2.5-0.2
				c-0.7,0.1-2.1,0.6-2.2,0.4c-0.1-0.2-0.6-0.7-1-1.2c-0.5-0.5-2.1-0.3-2.1,0.2c0,0.5-1,1.5-1.6,2c-0.6,0.5-2.1,2.2-2,1.8
				c0.1-0.3-0.4-0.9-1-1.1c-0.6-0.2-1.4,2.1-1.7,2.6c-0.3,0.4-3.3,2.3-4.4,2.4c-1.1,0.2-2.7,0.8-3.8,1.6c-1.1,0.8-3.4,2.3-4,2.6
				c-0.6,0.3-3.1,1.6-3.4,2.3c0,0.2,0,0.4,0,0.7c0,0,0.3,0.2,0.9,0.1c0.6-0.1,1.7-0.1,2.6-0.8c0.9-0.6,0.2-0.5,1.1-1
				c0.9-0.5,1.5,0,1.9,0c0.5,0-0.2,0.7-0.5,0.9c-0.3,0.3,0.5,0.5,1.2,0.6c0.7,0,1.2,0.5,1.9,0.2c0.6-0.3,0,0,1.4-0.5
				c1.4-0.5,0.9,0.1,2.1-0.1c1.2-0.3,1.1-0.6,2.1-1.6c1-0.9,1.3-1,2.6-1.8c1.3-0.9,1.7-1.3,2.7-1.7l1.8,1.4c-1,0.4-1.9,1-3.2,1.7
				c-1.3,0.6,0.3,0.5,1.2,0.3c0.9-0.2,1.5,0.2,2.6,0.6c1,0.4,1.5,2,2.3,1.4c0.9-0.5,1.1,0.6,1.7,0.8c0.6,0.2,1.3,0.4,1.9,0.3
				c0.6-0.1,1.2-0.6,2.4-1.3c1.2-0.8,1.4-0.1,2.6-0.4c1.2-0.4,1.6,0.1,2.3,0.1c0.7,0,0.3,0.3,0.8,1.1c0.6,0.8,0.8,0.5,1.3,0.5
				c0.6,0,1.4,0.4,2.3,1.1c0.9,0.7,1.3,1.3,0.8,1.1c-0.5-0.1,0,0-0.9-0.2s-0.8,0.1-1.9,0c-1-0.1-1,0.1-2.4-0.1
				c-1.4-0.2-1.1,0-1.7-0.3c-0.6-0.3-0.6,0.4-1.2,0.9c-0.7,0.4-0.4,0-1.5,0c-1.1,0-1.3,0.5-1.7,0.6c-0.4,0.1-0.9,0.9-1.8,1.3
				c-0.9,0.4-0.5,0-1.4-0.1c-1-0.1-1.7,0-2.1-0.3c-0.4-0.2-0.9,0.7-1,1.9c-0.1,1.2-0.1,0.3-0.9,1.7c-0.8,1.4-0.7,1-1.6,2
				c-0.9,1-0.8,1.6-0.6,1.9c0.2,0.2,0.4,0,1.6-1.4c1.2-1.4,2.4-3.6,2.8-4c0.4-0.4,0,0.4,0.1,1.3c0.2,0.8-0.4,1.1-0.5,1.8
				c0,0.7-0.5,1.4-1.1,2.6c-0.6,1.2-1,1.3-1.7,1.8c-0.7,0.5-0.7,0.7-1.2,1.6c-0.6,1,0,2.9-0.1,3.6c0,0.7-0.3,0.7-1.3,2
				c-0.9,1.2-0.1,2.4,0,3c0.2,0.6,0.4,3.2,0.8,3.8c0.3,0.6,3.3,1.2,3.3,1.2c0.3-0.2,1.4-0.6,2.3-1.3c1-0.7,0.2-1.1,0.6-1.8
				c0.3-0.7,1-1.6,1.5-2.7c0.6-1.1,0.6-1.4,0.8-2.8c0.2-1.4-0.8-1.3-1.2-1.9c-0.5-0.6-0.6-0.8-0.6-1.2c-0.1-0.3,0.2-1.6,0.9-2.1
				c0.7-0.5,0.6-1,0.4-1.4c-0.1-0.4,0.2-1.3,0.4-1.9c0.1-0.6,0.8-1,1.4-1.5c0.6-0.5,0.5-0.6,1.4-1.1c0.8-0.5,0.5-0.3,1.2,0.9
				c0.8,1.2,0.5-0.2,1.3-1.2c0.8-1,0-0.5,0.7-1.6c0.6-1.1,0.3-0.8,1.5-1.8c1.2-1.1,1-0.9,1-0.9s0.7,0.7,1.3,0.4
				c0.6-0.3,2,0.3,2.5,0.2c0.5-0.1,2.4,1,2.9,1.2c0.5,0.2,1,1.7,0.6,2.3c-0.4,0.5-0.3,3.6-0.5,4.8c-0.2,1.1-0.4,1-0.4,1.2
				c0.1,0.2-0.4,0.5-1.8,0.8c-1.3,0.3-1.2,0.4-1.7,0.9c-0.6,0.4,0.8,1.3,1.6,1.2c0.8-0.1,1.1-0.8,2-1.5c0.9-0.7,0.6-1.1,1.6-1.5
				c0.9-0.3,0.5,0.7,0.8,0.8c0.4,0.1,0.8,0.1,1.3,1c0.5,0.9-0.3,1.5-0.1,2c0.2,0.4,0.1,1.6,0.3,2c0.1,0.4-0.2,1.2-0.7,1.4
				c-0.5,0.3-0.7,0.4-1.1,0.8c-0.5,0.3-1.9,3.3-3.1,4.3c-1.2,1-0.4,0.4-1.2,1.2c-0.8,0.8,0,0,0.1,0.5c0.1,0.5,1,0.6,1.6,0.7
				c0.6,0.1,1.3,0.4,1.8,0.6c0.5,0.1,2.2,0.8,3.3,0.4c1.1-0.4,4.1-0.8,5-1.2c0.9-0.4,0.8-0.7,1.7-1.2c0.9-0.5,1.7,0,1.7,0
				s1.4-0.5,2.2-0.9c0.8-0.4,1.8-0.4,2.1-0.6c0.4-0.2,1.1-1.8,1.1-1.8s1.5-0.5,2.4-1c0.9-0.5,1.4-1.1,1.7-1.7
				c0.3-0.7,0.3-1.4,0.3-2.6c0-0.6,2.2-0.1,2.9-0.2c0.6-0.1,1.6,0.1,2.5,0c0.9-0.1,0.9,0.1,2.9,0.9c1.9,0.8,1-0.3,2-1
				c0.3-0.2,0.6-0.1,1.2-0.4c0.8-0.3,0.6-0.3,1.1-0.8c0.6-0.5,0.3-0.6,0.8-1.5c0.5-0.9,0-0.9,0.2-1.9c0.2-1,0.8-0.5,1.8-1.2
				c0.9-0.7,4.4-3.9,4.9-4.4c0.4-0.5,0,0-0.7,0.2C208.5,162.2,207.4,163.5,206.7,163.7z"/>
			<path class="st0" d="M104.7,122.2c-0.5-0.2-1-2.1-1.1-2.3c0-0.3-0.1-1.3-0.5-1.6c-0.4-0.3-0.6-1.2-0.2-2.1
				c0.3-0.9-0.1-1.4-0.5-1.4c-0.4,0-1.1-0.7-0.9-1c0.1-0.4,0.9-1.7,0.7-2.1c-0.3-0.4-1.1-0.6-1.6-1.2c-0.5-0.5-2.1-0.9-0.8-1.5
				c1.3-0.7,1-0.5,2.4-1.3c1.4-0.8,1.6-1.1,0.8-1.2c-0.8-0.1-1.4,0.9-1.6,0.4c-0.1-0.7-0.4-2.3-0.4-2.3s-1.8,4.3-2.5,4.5
				c-0.6,0.2-2.2,0.2-2.5,0.1c-0.3-0.1-1,1-1.6,1.8c-0.5,0.9-1.5,1.1-1.2,1.9c0.4,0.8-0.1,1.5,0.8,1.3c0.9-0.2,1.9-0.5,2.2-0.3
				c0.4,0.1-0.9,1.2-1,1.8c-0.1,0.6,0.2,1.2,0.9,2c0.8,0.7,2.1,2.2,2,2.9c0,0.7,1.4-0.4,1.8-0.4c1,0.1,1.4,1,1.3,1.3
				c0,0.3,0.4,0.9-0.2,1.8c-0.5,0.9,0.2,0.9,0.5,0.6c0.3-0.4,1.7-1.1,1.7-1.1s0.1,0.9,0,1.8c-0.2,0.9-0.7,1.7-1.1,2.5
				c-0.4,0.9-0.5,1.2-0.6,2.1c0,0.9-0.5,1.1,0.4,1.7c0.9,0.6,1.7-0.5,2.6-1.6c0.9-1.1,1.2-2.2,1.2-2.7c0.1-0.5,0-2-0.2-2.3
				C105.5,123.7,105.2,122.3,104.7,122.2z"/>
			<path class="st0" d="M560.2,194.7c0,0,0.2-0.4,0.4-1c-2.1-5.1-4.2-10.2-6.6-15.1c-0.6,0-1.6,0.8-2.3-0.4
				c-0.7-1.1-0.8-2.3-1.2-2.4c-0.3-0.2-2.6-1.5-3.6-1.3c-1,0.2-3.6-1.1-3.6-1.1s-0.2-1.6-0.6-1.7c-0.5-0.1-2.1-1.5-2.8-2
				c-0.7-0.6-1.7-1.8-2-1.9c-0.2-0.1,0,0.1-1.1-0.8c-1.2-0.9-1.8-1.9-2.1-2.2c-0.3-0.3-1.2-1.6-1.2-2.1c-0.1-0.5-0.9-1.6-0.8-2.4
				c0-0.8-0.2-1.9-0.6-2c-0.4-0.2-2.2-0.8-2.6-0.9c-0.4-0.1-1.5,0.4-2,0.2c-0.5-0.3-0.8-1.1-1.4-0.9c-0.6,0.2-0.7-0.4-1.6,0.1
				c-0.8,0.5-1.2-0.2-1.8,0.2c-0.6,0.4-1,1-1.4,1.5c-0.4,0.5-0.4,0.3-0.8,0.5c-0.4,0.2-0.2-1.1-1.4-0.1c0,0,0,0,0,0
				c-1.3,1.1-1.8,1.4-2,1.9c-0.2,0.5,0-0.6-1.4,0.7c-1.3,1.3-3.3,2.8-3.7,2.9c-0.5,0.1-2.9-0.7-3.3-0.7c-0.4,0-1.6,0.1-1.9-0.2
				c-0.3-0.3-0.5-1.2-1.4-1.3c-1-0.1-2.2-0.1-2.9-0.1c-0.6,0-1-0.7-1.8-0.4c-0.8,0.3-2.6,0.8-2.8,1.2c-0.2,0.4-1.8,1.7-2.1,2.4
				c-0.3,0.8-0.7,0.5-0.4,1.6c0.1,0.4,0.3,0.9,0.4,1.4c0.2,0.7,0.4,1.4,0.6,1.7c0.1,0.5,0.4,0.4-0.1,1.2c-0.5,0.8-0.9,1.2-1.4,1.6
				c-0.5,0.4-0.6-1-1.9,0.3c-1.3,1.4-2.4,2.2-2.4,2.2s-1.4,0.3-1.9,0.6c-0.5,0.3-1.6,0.2-2,0.4c-0.3,0.3-1.9,1.3-1.9,1.3
				s-1.4,0.5-1.7,0.7c-0.3,0.2-1.9,1.1-1.9,1.3c0,0.3-0.9,1-0.8,1.2c0.1,0.2-1.5,3.2-1.7,3.8c-0.3,0.7-0.8,0.7-0.8,1.5
				c0,0.7-0.4,0.9-0.3,1.9c0.1,1.1,0.4,1.4,0.8,1.8c0.5,0.4,1.2,0.4,1.4,1.2c0.2,0.8-0.1,1.1-0.3,1.4c-0.2,0.3-1.6,0.8-1.9,1.1
				c-0.3,0.2-0.6,0.1-1.1,0.8c-0.4,0.7-0.6,1-1,1.6c-0.4,0.7-1,0.8-1.3,1.3c-0.2,0.5-0.5,0.2-0.7,0.8c-0.3,0.6-2.5,1.2-2.5,1.2
				s-1,0.6-1.3,1c-0.3,0.5-1.9,2.1-1.9,2.1c-0.4,0.2-0.8,0.4-1.2,0.7c-0.3,0.2-0.7,0.4-1.1,0.6c0,0-2-0.5-2.3-0.2
				c-0.2,0.3-1.3,0.6-1.3,0.6s-0.7-0.6-1.2-0.6c-0.5,0-1.8,0.3-2.3,0.4c-0.5,0.1-1,0.2-1.6,0c-0.5-0.1-1.1-0.1-1.3,0.1
				c-0.8,0.7-2.9,1.2-3.1,1.2c-0.3,0-0.7,0.7-1.3,1.2c-0.5,0.5-1.4,1.2-1.6,1.1c-0.3-0.1-2.1-0.6-2.1-1c-0.1-0.3-1.8-2.2-1.9-2.4
				c-0.1-0.3,0.1-1.8-0.4-2c-0.5-0.2-2-0.7-2.4-0.9c-0.3-0.2-0.6-0.6-1.2-0.3c-0.3,0.1-0.6,0.1-0.9,0.1c-0.3,0-0.6,0-0.9,0.3
				c-0.5,0.6-0.2,0.6-1.1,0.6c-0.9,0.1-1.5-0.1-1.5-0.1s-1.3-0.5-1.8-0.6c-0.5-0.2-1-0.3-1.6,0c-0.6,0.3-1.4,0.5-1.4,0.5
				s-0.8-0.1-0.6-0.7c0.3-0.7,0.2-1.9,0.6-2.4c0.4-0.5,0.8-1.8,0.8-2.4c-0.1-0.6-0.1-1.4-0.4-1.7c-0.2-0.3-0.6-1.4-0.6-1.4
				c-1-0.2-1.8,0.1-1.8-0.5c-0.1-0.6,0.1-1.7-0.1-1.9c-0.3-0.3-0.4-0.3-0.4-1c0.1-0.7-0.3-0.6,0.6-1.7c0.9-1.1,1.2-0.9,1.3-2
				c0.2-1.1,2.6-6.7,2.5-7.1c0-0.4-0.2-1.6-0.2-2.1c0-0.5,0-2-0.2-2.2c-0.1-0.2-0.5-0.7-0.6-1.5c-0.1-0.8-0.3-1.1-0.1-2
				c0-0.1,0-0.2,0.1-0.3c0.2-0.7,0.2-1.4,0.2-1.7c-0.1-0.4,0-0.1-0.5-1.1c-0.5-1.1-0.5-1.3-0.8-1.5c-0.3-0.2-0.9-0.5-0.7-1
				c0.2-0.5,0.5-1.4,1.3-1.6c0.8-0.2,1.9-0.8,2.2-0.7c0.3,0.2,1.4,0.2,1.8-0.2c0.5-0.4,0.8-1.4,1.1-1.7c0.3-0.3,0.8-1,1.6-0.9
				c0.7,0.1,1.3,0.3,1.8,0.8c0.5,0.5,0.7,0.3,1.1,0.7c0.4,0.4,0.3,0.2,1.4,0.1c1.1-0.1,1.4-0.4,1.7-0.4c0.2,0,3.3-0.7,3.4-0.4
				c0.1,0.2,1.6,0.3,1.7,0.6c0.1,0.3,1-0.1,1.8,0.1c0.7,0.2,2.5,0.5,2.5,0.5s0.7-0.1,1.5-0.3c0.8-0.2,2.2-0.6,2.2-0.6
				s-0.2-0.3,1.1,0c1.3,0.3,1.4,0.6,2.4,0.7c0.9,0.1,2.1-0.7,2.5-0.3c0.5,0.3,0.8,0.2,1.5,0.2c0.6,0.1,1.2,0.1,1.9,0.3
				c0.6,0.1,0.4-0.3,1.5-0.1c1,0.1,0.8,0.4,1.6-0.4c0.1,0,0.1-0.1,0.2-0.1c1-1,1.2-0.7,1.5-1.6c0.3-0.9,1.2-5.2,1.3-6
				c0.1-0.7-0.2-3.4-0.2-3.4c0.2-0.6,0.4-1.1,0.6-1.7c0,0,0.3-1.1,0.2-1.5c-0.1-0.3-0.3-1.4-0.4-1.8c-0.1-0.4,0.3-1.1-0.7-1.2
				c-1-0.2-1.2-1-1.7-1.3c-0.5-0.3-0.7-0.6-1.2-1.4c-0.5-0.8-1.2-1.4-1.2-1.8c0-0.3,0.4-0.7,0.3-1.1c-0.1-0.4-0.5-1-0.9-1.1
				c-0.4-0.1-0.2-1-0.9-1c-0.7,0-0.9-0.3-1.4-0.3c-0.5,0-0.4-0.9-1.5-0.6c-1.1,0.3-1.7-0.5-2-0.9c-0.3-0.4-0.9-1-1.2-0.9
				c-0.3,0.1,0.1-0.4-1.1-0.2c-1,0.2-2.2,0.1-2.6-0.3c-0.4-0.4-0.9-0.8-0.8-1.6c0.1-0.8-1.1-1.9-0.5-2.4c0.6-0.6,2.1-1.9,2.4-2
				c0.3-0.1,0.4,0.4,1.4,0c1-0.4,1.6,0.1,1.9,0c0.3-0.2,0.8-0.6,1.3-0.7c0.5-0.2,0.6,0.1,1,0.2c0.4,0.1,1-0.4,1.4,0.2
				c0.4,0.6,0.5,0.7,1.5,0.9c1,0.2,1.8-0.6,2.6-0.1c0.8,0.5,1.2,0,1.8,0.3c0.6,0.2,1.5,0.9,1.3,0c-0.2-1,0.2-2.2-0.5-2.3
				c-0.7-0.2-0.8-1.5-1-2c-0.2-0.5-0.2-1-0.6-1.4c-0.4-0.4-0.9-0.9-0.2-1.1c0.8-0.1,2.5,0.1,3.1,0.4c0.7,0.3,2,0.6,2.3,1.1
				c0.3,0.6,1.3,0.5,1.8,0.7c0.5,0.2,2.9-0.4,3.2-0.2c0.2,0.2,1.7,0.3,1.9-0.4c0.1-0.8,0.4-1,0.3-1.7c-0.1-0.6,0.6-1.1,0.6-1.1
				s1.1-0.4,1.7-0.5c0.6-0.1,1.5-0.4,2.1-0.8c0.6-0.3,2.4-1.5,2.4-1.5s-0.5-2-0.3-2.4c0.2-0.3-0.1-1.2,0.6-1.7
				c0.7-0.5,2.2-2,2.4-1.8c0.2,0.3,0.3-0.3,0.9-0.1c0.2,0,0.5,0,0.8-0.1c0.6-0.2,1.3-0.6,1.4-0.7c0.2-0.3,2-1.5,2-1.5
				c0.5-0.4,1-0.7,1.4-1.1c1-0.3,2.1-1,2.4-1.2c0.2-0.1,1.2-1.3,1.7-1.9c-30.9-32.6-69.4-57.9-112.7-73c-0.3,0.3-0.4,0.2-0.4,0.6
				c0,0.5,0.7,0.5,1.3,0.9c0.6,0.4,0.7,0.2,0.8,0.5c0.1,0.3,0.8,0.7,0.8,1c0,0.4,0,1.1-0.3,1.4c-0.3,0.3-0.2,0.1-0.3,0.6
				c-0.1,0.5-0.2,1.7-0.2,1.7s-0.6,1.3-0.8,1.5c-0.2,0.3-0.6,0.3-0.8,0.5c-0.2,0.2-0.8,0-0.6,0.6c0.2,0.5,0.6,0.4,0.8,1
				c0.1,0.6-0.3,0.7-0.6,1c-0.4,0.4-0.8,0.1-1,0.4c-0.2,0.4-0.2,0.5-0.3,1.6c-0.1,1.1,0.4,1,0.1,1.7c-0.3,0.7,0-0.1-0.9,0.6
				c-0.9,0.7-1,0.3-1.1,1c-0.1,0.6,0.5-0.1-0.1,0.6c-0.6,0.7-1.2,0-1.9,0.3c-0.7,0.3-1.6-0.3-1.1,0.4c0.5,0.8,0.8,0.6,1.3,0.9
				c0.5,0.3,1,0,0.7,0.6c-0.2,0.6-0.8,0.9-1,1.1c-0.2,0.3-0.5-0.4-1-0.1c-0.5,0.3-0.7,0.1-0.6,0.7c0.1,0.6-1,0.8-1,0.8
				s0-1.2-0.1-1.2c-0.1,0-1.2-0.1-1.3-0.2c-0.1-0.1,0.2-0.7-0.5-0.5c-0.7,0.3-1.4,0.7-1.9,1c-0.4,0.3-0.9-0.3-0.8-0.7
				c0.1-0.4,0.3-1.2,0.5-1.2c0.2,0,0.6-0.8,0.1-0.7c-0.5,0.1-1,0.5-1.2,0c-0.3-0.5,0.2-1.4,0.2-1.4s-1.3,0.3-1.7,0.4
				c-0.5,0.1-1.6-0.1-1.5-0.5c0.1-0.4,0.3-0.9,0.5-1.1c0.2-0.2,0.7-0.6,0.9-0.6c0.1-0.1,0.8-1.3,0.8-1.3c-0.1-0.5-0.1-1-0.2-1.4
				c0,0-1.4,1.3-1.6,1.4c-0.1,0-0.8-0.5-0.8-0.5c-0.1,0,0-0.5,0-0.7c0-0.2,0-1.2-0.6-0.2c-0.6,0.9-0.4,0.7-0.6,1.3
				c-0.1,0.6-1.4,0.6-1.6,0.7c-0.2,0-0.7,0.1-0.8,0.4c-0.2,0.2-1.2,0.9-1.6,0.8c-0.3,0-1.4,0.3-1.5,0c-0.1-0.3,0.2-0.8-0.1-0.8
				c-0.2,0-0.8,0.1-1.1,0.3c-0.3,0.2-0.6,0.9-0.9,1.1c-0.3,0.3-0.2,0.1-0.8,0.4c-0.6,0.4,0,0.4-0.9,0.2c-0.8-0.2-0.9-0.4-0.9-0.4
				c-0.1-0.8-0.1-1.7-0.1-2.5c0.2-0.1,0.4-0.2,0.6-0.3c0.2-0.1,0.4-0.2,0.6-0.2c0,0,0-0.3-0.2-0.3c-0.1,0-0.3,0-0.5,0
				c0-0.3,0-0.6,0-0.9c0,0-0.1-0.5-0.2-0.4c-0.1,0-0.4,0.4-0.4,0.4c-0.2,0.2-0.5,0.4-0.7,0.6c0,0-0.5,0.3-0.6,0.3
				c-0.1,0-0.3-0.2-0.5-0.3c-0.1-0.1-0.4-0.3-0.4-0.4c0-0.2,0-0.3,0.1-0.4c0.1-0.1,0.4-0.4,0.4-0.5c0-0.1,0.2-0.4,0-0.4
				c-0.1-0.1-0.3-0.5-0.5-0.5c-0.2,0-0.5-0.4-0.6-0.4c-0.1,0-0.2-0.2-0.4-0.1c-0.2,0.1-0.3,0-0.3-0.1c0-0.1-0.1-0.4,0-0.6
				c0.1-0.2,0.1-0.3,0.2-0.4c0.1-0.1,0.2-0.5,0-0.5c-0.1,0.1-0.5,0-0.5-0.2c0-0.2-0.4-0.2,0-0.4c0.4-0.2,0.2-0.2,0.4-0.2
				c0.1,0,0.6-0.3,0.6-0.3s0.2-0.4-0.1-0.3c-0.2,0-0.4-0.5-0.6-0.4c-0.3,0.1-0.3,0-0.3-0.3c0-0.3,1.1-0.8,0.1-0.5
				c-1,0.4-1.5,0.8-1.5,0.8s-0.1-0.1-0.2,0c-0.1,0-0.7-0.3-0.7-0.3s-0.2-0.4-0.3-0.4c0-0.1-0.2-0.3,0-0.4c0.1-0.1,0.3-0.6,0.3-0.7
				l-0.2-0.3c0,0-0.1-0.1-0.2-0.1c-0.1,0-0.1,0-0.3,0c-0.2,0-0.1-0.2-0.4-0.3c-0.2-0.1-0.3-0.1-0.6-0.1c-0.2,0-0.3,0.1-0.5-0.1
				c-0.2-0.2-0.2-0.3-0.3-0.4c-0.1-0.1-0.1-0.4-0.1-0.6c0-0.3,0.2-0.7,0.2-0.7c0.2-0.2,0.3-0.3,0.6-0.5l0.6-0.5
				c0-0.1,0.4-0.7,0.3-0.7c-0.1,0-0.3-0.6-0.3-0.6s-0.1-0.2-0.1-0.3c0.1-0.1,0.3-0.3,0.5-0.5c0.1-0.2,0.2-0.7,0.2-0.7
				c0,0-0.7,0-0.9,0.2c-0.2,0.2-0.9,0.3-1.2-0.1c-0.3-0.4-1.4-1-1.4-1c0.4-0.2,0.8-0.4,1.2-0.5c0,0-0.3-0.1-0.5,0
				c-0.2,0.1-1-0.1-1.1-0.2c-0.2,0-0.6-0.1-0.7-0.2c0-0.1,0.9-1,0.8-1l-0.6-0.5c0.1-0.2,0.2-0.4,0.4-0.6c0,0,0.3-0.5,0.3-0.5
				c0-0.1,0.1-0.5-0.4-0.4c-0.5,0.1-0.5-0.4-0.9-0.1c-0.5,0.3-0.9,0.5-1,0.4c-0.1,0-0.1-0.3-0.3-0.4c-0.2-0.1,0.8-1.6,0.8-1.5
				c0,0.1,0.2-0.3,0.2-0.3c0-0.1,0.1-0.2,0.2-0.2c0,0,0.5-0.1,0.7-0.1c0.2,0.1,0.4-0.3,0.5-0.2c0.1,0.1,0.2-0.1,0.3-0.2
				c0.1-0.1,0.5-1.1,0.5-1.1c0.2,0,0.4-0.1,0.6-0.1c-1.7-0.3-3.4-0.6-5.1-0.9c-0.2,0.2-0.4,0.2-0.4,0.2c-0.1,0-0.2-0.1-0.2-0.3
				c-16.3-2.9-32.9-4.5-50-4.5c-2.1,0-4.1,0.1-6.2,0.1c-0.2,0.4-0.5,0.8-0.6,0.9c-0.1,0.4-1,1.1-1.3,1.1c-0.3,0-0.4-0.6-0.5-0.8
				c-0.1-0.2-0.7,0-1-0.1c-0.3-0.1-1,0-0.9-0.7c0-0.1-0.1-0.2-0.1-0.3c-0.5,0-0.9,0-1.4,0.1c-0.1,0-0.3,0.1-0.3,0.1
				c-0.1,0-0.3,0-0.5-0.1c-3.6,0.2-7.1,0.4-10.6,0.7c0.2-0.2,0,0.8,0,1c0,0.2-0.2,1.6,0.1,1.4c0.3-0.2,0.7,0.2,1.2-0.1
				c0.5-0.2,0.4,0.2,1,0.4c0.2,0.1,0.1,0.6,0.3,0.7c0.3,0.1,0.4,0.2,0.8-0.1c0.4-0.3,0.5-0.4,1-0.8c0.5-0.4,0.2,0.4,0.3,0.6
				c0.1,0.2,0.1,0.7,0.5,0.5c0.3-0.2,0.6,0.8,1.3,0.9c0.6,0.1-0.3,1.1-0.3,1.3c0,0.1-0.2,1-0.4,1c-0.2,0-0.1,0.6,0,0.8
				c0.1,0.2,0.1,0.7,0.4,0.7c0.3,0,0.4,0.5,0.9,0.4c0.6-0.1,0.3,0.7,0.3,1.1c0.1,0.4,0,0.3,0,0.5c0,0.2-0.1,0.8,0.2,0.8
				c0.3,0,0.2,0.9,0.4,0.8c0.1-0.1,0,1.2,0,1.2s-0.3,1.1-0.4,1.3c-0.2,0.2-0.7,0.1-0.7,0.1c-0.3,0.2-0.7,0.3-1,0.5
				c0,0,0,0.6,0.2,0.5c0.3-0.1,0.2,1,0.2,1s-0.2,1-0.7,1.6c-0.1,0.1-0.8-0.7-0.8-0.9c0-0.2-0.5,0.4-0.6,0.6c-0.1,0.2,0,0.6,0.3,0.8
				c0.3,0.2,0.4,0.4,0.4,0.4s0.1,0.6,0.4,0.5c0.3-0.1,0.2,0.7,0.2,0.7s-0.7,1-0.7,1.2c-0.1,0.2,0.2-0.3-0.2-0.9
				c-0.1-0.2-0.6,0.1-0.6,0c0-0.2-0.6-0.6-0.6-0.6c0-0.3-0.1-0.5-0.2-0.8c0,0-0.5-0.1-0.7-0.4c-0.2-0.3-0.8,0-0.8,0s0.1-0.8,0.1-1
				c-0.2-1.4-0.3-0.1-1.3-0.1c-1,0-0.9,0.2-1.2,0c-0.3-0.2-1.1-0.7-1.1-1.3c0-0.6-1.2-0.3-1.2-0.3s-1.5-0.6-1.9-0.8
				c-0.3-0.2-2.5-1.2-2.7-1.6c-0.2-0.5-0.7-0.2-0.7-0.5c0-0.3-1-0.2-1.1-0.5c0-0.3-0.8-0.2-1-0.4c-0.2-0.2-0.6-0.2-0.9-0.3
				c-0.2-0.1-1,0.4-1,0.4s0,0.6,0.1,0.8c0.2,0.3,0.1,0.5,0.3,0.6c0.2,0.1,0.1,0.4,0.8,0.9c0.7,0.5,0.2,0.4,0.7,0.7
				c0.5,0.4,0,0.8,0.2,1c0.1,0.2,0.4,0.5,3,1.4c2.6,0.8,0.5,0.7,1,0.9c0.5,0.3,0.6,0.8,0.6,1.2c0,0.3,2.1,2,3.2,2.6
				c1.1,0.7,0.3,0.4,0.5,0.7c0.2,0.3-0.2,1,0,1.1c0.2,0.2,0,0.4-0.1,0.9c-0.1,0.5-0.1,0.7-0.4,0.9c-0.2,0.1-0.5,0.3-0.7,0.4
				c-0.2,0.1-0.6-0.2-0.7-0.3c-0.1-0.2-1.2-0.3-1.2-0.3s-1-0.5-1.3-1c-0.4-0.5-0.7,0.2-1.4,0.1c-0.7-0.1-0.6-0.3-0.8-0.5
				c-0.2-0.1-1,0.1-1.4,0.2c-0.4,0.1-0.4,0.1-0.7-0.1c-0.3-0.1-0.6,0.1-1-0.2c-0.4-0.2-0.9,0-1.1-0.2c-0.2-0.2-1.2-0.4-1.7-0.4
				c-0.4,0-0.8-0.4-1.1-0.9c-0.3-0.6-0.4-0.1-0.7-0.4c-0.3-0.4-0.8-0.2-0.8-0.4c-0.1-0.2-0.6-0.4-0.5-0.6c0.1-0.2-0.7-0.2-1.4-1.2
				c-0.8-1-0.8,0.2-1,0.2c-0.3,0-0.9,0.3-0.9,0.3s-0.4,0.6-0.5,0.8c-0.1,0.2-0.3,0.3-0.4,0.6c-0.2,0.3-1.4,0.4-1.7-0.1
				c-0.3-0.5-0.5-0.2-0.1-0.7c0.3-0.5-0.8-0.4-0.8-0.6c-0.1-0.2,0.2-0.2,0.9-0.7c0.8-0.5-0.5-0.7-0.6-1c-0.1-0.2-0.1-0.6-0.5-0.8
				c-0.4-0.2-0.8,0.1-1,0c-0.2-0.2-0.8,0.1-1.4-0.7c-0.1-0.2-0.8-0.7-1.1-1.1c-0.3-0.4-0.1-0.4,0.5-1c0.6-0.6,0.8-0.1,1.5-0.3
				c0.8-0.3,0.8-0.2,1.2-0.6c0.4-0.4-0.3-0.3-0.6-0.9c-0.4-0.6-0.7-0.2-1.1-0.3c-0.3-0.2-1.4,0.1-1.4-0.1c0-0.2-1.1,0-1.3,0.2
				c-0.3,0.1-1.2,0.7-1.3,0.5c-0.2-0.2-0.6-0.2-0.4-0.7c0.2-0.4,0.6-0.3,0.6-1.3c0-0.2-1-0.1-1.4-0.3c-0.4-0.1-0.5,0-0.5-0.6
				c0-0.6,1.5-0.2,1.4-0.5c-0.2-0.3-0.6,0-1,0.1c-0.4,0.1-0.9-0.3-1.5-1.1c-0.6-0.9-0.2-0.3,0-1.2c0.2-0.9-0.2-0.4-0.2-0.7
				c0.1-0.2-1.2-0.1-1.5-0.3c-0.3-0.3-0.5,0-0.7-0.3c-0.2-0.2-0.2,0.3-0.4,0.6c-0.2,0.3-0.8,1.2-0.9,1.2c-0.1,0-0.4-0.7-0.3-1.3
				c0.1-0.5-0.3-0.3-0.2-0.9c0.1-0.6-0.2-0.5-0.3-0.6c-0.6,0.1-1.2,0.3-1.8,0.4c0.1,0,0.1,0.1,0.2,0.1c0.5,0.1,0.2,0.7,0.2,0.9
				c0.1,0.1-0.5,0.8-0.5,0.8s-1.1,0.3-1.3,0.2c-0.2-0.1-0.7,0.3-1,0.3c-0.3,0-0.8,0.3-0.9,0.1c-0.1-0.2-0.8-0.6-1-0.7
				c-0.2-0.1-0.5-0.2-0.8-0.3c-0.4-0.1-0.7,0.3-0.8,0.6c-0.1,0.3-0.4,0.7-0.4,0.7s-0.6,0.6-1,0.7c-0.4,0.1-0.2,0.1-2.3,0.4
				c-2.1,0.3-0.5,0.1-0.9-0.4c-0.3,0-0.6-0.1-0.9-0.1c0,0-1,0.5-1.6,0.5c-0.6,0.1-1,0.3-1,0.3s-0.1-0.2-0.2-0.5
				c-5.2,1.5-10.3,3.1-15.4,4.8c0.3,1.3,0.1,1-1,2c-1.3,1.1-1.5,1.2-3.4,1c0,0-1.9-0.2-2.5-0.5c-25.7,9.6-49.7,22.9-71.2,39.1
				c0.4-0.2,0.9-0.5,1.5-0.7c0.3-0.1,0.5,0.1,1.5,0.4c1,0.3,0.9,0.1,2.1,1c1.3,0.9,0.3,0.4,0.3,0.9c0.1,0.5-0.3,1.2,0.2,1.9
				c0.5,0.7,0.2,1.4,0.3,1.9c0.1,0.6,0,0.9,0.6,1.9c0.6,1,0.5,1,0.5,1.3c0,0.4-0.3,0.6-1.3,1.4c-1,0.8-0.7,0.7-1,1.1
				c-0.3,0.4,0.7,0.3,1.3,0.3c0.5,0,1.4-0.2,2.1-0.4c0.7-0.2,1.9-0.7,2.7-1.2c0.9-0.5,1.1-0.1,4.1-0.7c2.9-0.7,0.7,0,1.4,0.1
				c0.7,0.1,0.6,0.3,1.2,0.7c0.6,0.4,0.2,0.9,0.7,1.4c0.5,0.4,0.8-0.1,1.6-0.3c0.8-0.3,0.9,0.4,1.6,0.4c0.7,0,0.5,0.6,1.8,1.2
				c0.4,0.1,0.8,0.2,1.2,0.2c0,0,1.2,0.3,1.5,0.5c0.3,0.2,1.2,0.4,1.3,0.8c0.1,0.5,0,0.5,1.7,1.1c1.7,0.7,0.1,0.9,1.1,2.2
				c0.3,0.4,0.8,0.2,1.3,0c0.6-0.1,0.8-0.1,3.2,0.6c2.4,0.7,0.6,1,1.8,1.5c0.4,0.2,0.4,0.3,2,0.1c1.7-0.2,0.7,0.5,2,2.8
				c1.2-0.5,0,0,1.2-0.6c1.2-0.6,1-0.2,2.1-0.4c1.2-0.1,1.3-0.1,2.3-0.2c1,0,0.3,0.8,0.8,1.1c0.5,0.3,2,0.1,2.9,0
				c1-0.2,1.6-0.3,2.3-0.4c0.7-0.1,1.6,0,2.3,0.6c0.6,0.5,0.1,0.1,0,0.7c0.1,0.1,0.2,0.3,0.3,0.6c1.3,2,0.3,1.2,0.2,1.6
				c-0.2,0.5-0.8,1.1-1.1,1.3c-0.4,0.3-0.6,1.4-0.7,1.8c-0.1,0.4,0.7,1.1,0.7,1.1c-0.1,0.4-0.2,0.8-0.3,1.2c0,0-0.3,1.4,0.4,2.2
				c0.7,0.7-0.1,0.8-0.2,1.3c-0.1,0.5-0.1,0.5-0.5,1.7c-0.4,1.1-0.5,0.7-0.6,1c-0.2,0.3,0,0.4,0.4,0.9c0.4,0.4,0.1,1,0.7,1.1
				c0.7,0.1,0.3,0.4,1,0.5c0.7,0.1,0.2,0.5,1.6,1.5c0.2,0,0.2,0,0.2,0.1c0.7,0.5,0.2,0.3,0,0.1c-0.2,0.1-0.6,0.5-1.4,1.3
				c-1.2,1.5,0,0,1.5,0.1c0.5,0,0.5,0.9,2,1.2c1.4,0.4,0.1,0.6,0.7,0.9c0.5,0.3,0.8,0.8,1.3,0.8c0.5,0.1,0,0.6-0.1,1.6
				c-0.2,1,0,0-0.6,0.9c0,0-0.3,0.6-1.1,1.1c-0.8,0.6-0.9,0.9-0.9,0.9c0.5-0.4,1-0.5,2.8-1.4c0.4-0.2,1.6-0.5,2.5,0
				c0.9,0.6,2.1,2.9,1.8,1.8c-0.3-1.1-0.9-0.6-0.8-1.7c0.2-1.1,0.1-0.5,1-1.5c0.9-1,0.7-0.4,1.8,0.1c0.3,0.1,1.2,0.6,1.4,1.1
				c0.1,0.4,1.3-1.1,1.6-1.7c0.3-0.6-0.2-0.8-1.1-1.8c-0.3-0.3,0.2-0.6,0.6-1.1c0.4-0.4,0.8-1.1,1.1-1.5c0.4-0.3,1-0.1,1.2-0.6
				c0.2-0.4-0.4-1-0.4-2c0-1-1.1-0.3-1.3-0.7c-0.1-0.4-0.4-1.7-0.1-2.9c0.3-1.2-0.2-1.4,0.1-2.4c0.4-1-0.1-0.9,0.6-1.7
				c0.7-0.8-0.8-1-0.9-1.5c-0.1-0.5-0.2-0.7-0.1-2c0.1-1.4,0.1-1.1,0.2-1.5c0.2-0.3-1.7-1.4-1.6-2.2c0.1-0.9,0.2-0.8,1.4-1.6
				c1.2-0.8,0.7,0.6,1.7,0.2c1-0.3,2.1-0.2,2.6-0.3c0.5-0.1,1.7-0.8,2.2-1.2c0.5-0.4,0,0,1.1-0.8c1-0.8,1.5-1.3,2.2-2
				c0.7-0.7,1.6-1,3.4-1.8c1.7-0.8,1.5-1.9,1.9-2.1c0.4-0.2,0.7-1.4,0.7-1.4s-0.1-1-0.2-1.8c-0.1-0.7,0.7-2.4,0.7-2.4
				c1.5-2.6,0.7-1.9,0.7-3c0.1-1.2,0-0.6,0.1-1.2c0.1-0.5-0.2-0.6-0.3-1.4c-0.1-0.8-0.8-1.3-1.1-2.4c-0.4-1.1-0.9-1-0.9-1.4
				c0.1-0.5-1.9-0.2-2.9-1.2c-1-1.1-3-1.2-3.8-1.3c-0.8-0.1,1.2-1.6,1.6-2.1c0.4-0.5,0.8-1.2,0.8-1.2s0.9-0.3,2-1.3
				c1.2-1,0.9-1,1.6-2.7c0.2-0.6,1.7-0.4,2.2-0.8c0.6-0.3,0.3-1.7,0.3-2.1c0-0.5-0.7-1-0.5-1.5c0.3-0.6,0-0.8,0.3-1.6
				c0.1-0.8-0.6-1.4-1-2.3c-0.4-0.9-0.4-0.8,0-1.5c0.4-0.7,0.5-0.9,0.9-1.6c0.5-0.7,0.1-1.9,1.1-3.2c1-1.3,0,0-0.2-0.9
				c-0.2-0.9-0.4-1.1-0.4-2.4c0.1-1.3-1-0.6-0.6-2.2c0.3-1.6,0.3-0.9,1-1.7c0.8-0.8,1.7-0.7,2.6-1.2c0.9-0.6,1.2-0.5,2.2-0.9
				c0.9-0.4,1,0.7,1.4,1c0.3,0.3,0.8,0.4,3-0.5c2.2-0.9,0.7,0.4,1.3,0.5c0.6,0.1,0.1,0.5,0.4,1.3c0.3,0.8,0.3,0.7,1.4-0.2
				c1-0.8,0.4,0.2,1-0.2c0.6-0.4,0.8,0,1.3,0c0.5,0.1,0.4,0.4,1.1,1.1c0.6,0.6,0,0,1.1-0.5c1.1-0.5,0.9-0.5,1.7-0.8
				c0.9-0.4,1.9-0.5,3.5,0c0,0-0.2-0.4,2-0.6c2.1-0.2,0.8,0.9,1.7,1.4c0.9,0.4,0.5,1.1,0.7,1.4c0.1,0.3-0.3,1.4,0.1,1.2
				c0.3-0.1,1.3,0.3,2.1,0.2c0.8,0,0.7,1,1.2,1.2c0.5,0.2,0,0.6,0.1,1.9c0,0.4,0.6,1.3,0.6,1.3c0.6,0.1,1.3,0.1,2.2,0.8
				c0.3,0.1,0.6,0.1,1,0.2c0,0,1.9-0.4,2.3-0.6c0.3-0.1-0.8,1.1,0.7,1c1.5-0.2,1.2-0.6,2-0.6c0.8-0.1,0.4,0.1,1.8,0.5
				c0,0-0.2,0.9-2.1,3.1c-2,2.2-0.3,1.2-0.5,1.9c-0.1,0.7,0.4,0.5,0.1,1.8c-0.2,1.2-0.9,1.5-0.9,1.8c0,0.3,0.1,0.7,0.1,1.4
				c0,0.8,0.9,0.4,0.9,2.9c0,2.4,0.3-1,0.4,0.8c0,0.6,0,0.9,0.1,0.9c0,0-0.1-0.1-0.2,0.1c-0.2,0.6-0.6,0.3-1.2,0.5
				c-0.6,0.3-0.8-0.2-1.6-0.4c-0.8-0.2-0.6,1.5,0.7,2.4c1.3,1,0,0,1.6-0.9c0.2-0.2,2.9-1.5,4.2-1.5c1.2,0,0,0,0.7,0.7
				c0.7,0.6,0.1,2.2,0.4,2.3c0.3,0.1-0.4,0.7-1.2,1.8c-0.8,1.2-0.1,1.7,1,1.1c1.1-0.6,0,0,1.5-1.3c1.4-1.3,0.5-0.5,1.3-0.4
				c0.8,0.1-0.6,2.2,0.8,1.2c0.7-1.1,0,0,1.9-0.9c0.7-0.3,1.4,0.1,1.5-0.8c0-0.3,0-0.3-0.1-0.4c0.1-0.1,0.3-0.2,0.6-0.6
				c1-1.2,0,0,1.4-1c1.4-1.1,0,0,1-0.5c1-0.5,0.5,1.8,1.7,2c0.8,0.1,0.1-1.7,2.2-3.3c2.2-1.7-0.3-0.4-0.4-0.9
				c-0.1-0.4,0.9-0.8,1.2-2.1c0.2-1.2,0.9,0,1.4-0.5c0.5-0.5,0-0.7-0.2-1.3c-0.2-0.7-0.5-0.8-0.3-1.5c0.3-0.8,1.7,0.1,2.2-1.3l0,0
				c0.4-1.4,0,0,0.7-0.8c0.7-0.8,0.1-0.7,2.7-3c0.6-0.5,0.2,0.5,0.3,1.5c0.1,0.9-0.3,1.4,0.5,1.4c0.8,0.1,0.3,1.4,0.8,2.1
				c0.4,0.6,1.1,0.8,1.4,1c0.3,0.2,0.1,0.7,0.2,1.1c0,0.5-1.5-2,0.4,1c0.5,0.8,0.7,1.2,0.9,1.4c0.2,0.2,0.4,0.3,0.5,0.3
				c0.3,0-0.6,2.5-0.2,3.3c0.4,0.8,0.7,0.3,1.3,0.3c0.5,0,0.4,0.4,0.8,1.2c0.4,0.8-0.3,1.2,0.3,1.3c0.7,0.1,0.6,0.4,1.5,0.9
				c0.9,0.4,1.4,1,2.2,1.6c0.8,0.6-0.7,1.1-1.1,1.1c-0.4,0.1-0.5,0.9,0.1,1.5c0.6,0.5,0.6,1.2,1.3,1.4c0.6,0.2,0.2,2.1,0.8,2.1
				c0.6,0-0.6,1.6-0.6,1.6s-0.8,0.2-2.4,0.5c-1.5,0.2,0,1,0,1s0.3,1.1,1.1,0.9c0.8-0.3,0.5,1,1,1c0.5,0,0.4,1.7,1,1.8
				c0.6,0.1,0.7,1.4,1.2,1.4c0.5,0-0.9-0.9,0.6-0.7c1.4,0.2,0,0,0.6,0.2c0.7,0.2,0,0,0.5,0.7c0.4,0.7,0.7,1.2,0.7,1.2s0,2.5,0.4,2.3
				c0.4-0.2,0.8,0.3,1.2,0.3c0.5,0,1.6,0.3,1.5,0.6c-0.1,0.3-0.8,1.6-0.8,1.6s1,0.1,1.7-0.7c0.7-0.8,0.9-0.7,1.5-1.4
				c0.7-0.7,1,0.7,1.3,1c0.3,0.3-0.1,0.9,0.4,1.7c0.5,0.8,0.5,0.2,1.6-0.2c1.1-0.5,1.8-0.5,2.9-0.7c1.2-0.1,0,1.2,0.7,2.3
				c0.1,0.3,2.2,1,2.2,1c-0.6,0.3-1.2,0.5-1.7,0.8c-0.6,0.2-1.3,0.5-1.9,0.7c0,0-1.8,0.3-2.1,0.6c-0.4,0.4-2.3,0.4-2.7,0.2
				c-0.3-0.2-0.9,0.2-1.3,0.8c-0.4,0.6-0.9,0.5-1.1,0.8c-0.2,0.3-1.6,0.8-1.8,1.4c-0.2,0.6-2.9,0.3-3.5,0.4
				c-0.6,0.1-0.8,0.8-0.3,1.4c0.5,0.6,1.3,0.6,1.6,0.6c0.3,0,2-1,3.3-1.7c1.3-0.7,1.4-1,1.4-1c0.6-0.3,1.2-0.6,1.8-0.9
				c0,0,1.7-1,2.3-1.3c0.6-0.3,2.3-0.6,3.3-0.7c0.9,0,1.4-0.2,1.3,1.8c0,1.9-0.9,2.9-0.1,2.6c0.8-0.2,0.5-1.2,0.6-1.5
				c0.2-0.3,0.8-1.2,1.5-1.2c0.7,0.1,2.2,0.2,3,0.5c0.8,0.3,2.1,1.1,3,1.6c0.9,0.5-0.2,1-0.4,1.9c-0.2,0.9,0.4,1.1,0.4,2.1
				c0,1-1.3,1.3-2,2.6c0.2,0.5,0.3,0.9,0.4,1.4c0.4,0.6,0.9,1.1,1.3,1.7c-0.3,0.6-0.7,1.1-1,1.6c-0.7,0.6-1.4,1.1-2.1,1.6
				c0,0-2.9,1.2-3.2,1c-0.3-0.2-1.9,0.4-2.7,0.8c-0.8,0.5-2.7,0.4-3.2,0.6c-0.6,0.1-1.9,0.2-2.1,0.5c-0.3,0.3-2,1.4-2.1,2.2
				c-0.1,0.8-3.5,1.9-4.3,2.8c-0.8,0.9-1.8,0.6-2.2,0.7c-0.3,0.1-3.6,1.9-4.2,1.8c-0.6-0.1-2.4,0.5-2.4,0.5c-1.4,0-2.8,0-4.2,0.1
				c-0.4-0.3-0.7-0.5-1.1-0.8c0,0-2.9,0.5-3.4,0.3c-0.4-0.2-1.7,0.3-1.9,0.1c-0.1-0.1-0.4-0.3-0.7-0.4c-0.3-0.2-0.7-0.5-0.9-0.6
				c-0.3-0.2-2.1,0.5-3.1,0.6c-0.9,0.1-1.4,0.4-1.9,0.4c-0.5,0-6.3,0.4-6.3,0.4c-0.5,0.2-1,0.3-1.6,0.5c0,0-2.7,1.2-3,1.3
				c-0.4,0.1-2.3,2.2-2.3,2.2c-0.5,0.5-1,1.1-1.6,1.6c0,0-2.1,1.2-2.4,1.4c-0.4,0.2-1.3,0.2-1.6,0.2c-0.3,0-1,0.2-1,0.2
				s-1.2,0.7-1.6,0.9c-0.4,0.3-1.3,1.5-1.7,2.1c-0.4,0.6-1.7,1-2.6,1.3c-0.8,0.2-0.6,0.5-1.1,1.1c-0.4,0.7-0.9,1.2-1.3,1.6
				c-0.4,0.5-1.7,1.6-2.2,2c-0.5,0.3-2.8,1.8-2.8,1.8s-1.9,3.5-1.3,2.5c0,0,1.4-1.2,4.1-3.2c2.8-2.1,0.9-0.6,1.9-1.3
				c1-0.7,2.4-2.1,4.2-3.3c1.9-1.1,1.2-0.9,2.2-1.4c1.1-0.5,2.6-1.4,3.3-2c0.7-0.6,0.9-0.2,2.6-0.7c1.7-0.5,1.8-0.5,2.4-0.6
				c0.6-0.1,0.9-0.5,2.1-0.9c1.2-0.5,0.9-0.4,1.2-0.6c0.4-0.3,3.1-0.8,3.6-1c0.5-0.2,1.7,0.1,1.7,0.1s2.5,0.2,3.2,0.7
				c0.6,0.5,1.1,1.2,1.6,1.8c0.4,0.5,2,0.8,1.8,1.5c-0.2,0.7-1.4,1.4-2.2,2.1c-0.7,0.7-1.6,0.8-2.3,1.4c-0.8,0.6-4.9,0.6-4.9,0.6
				s0.7,0.8,1,1c0.3,0.2,0.7,0.6,0.5,1c-0.2,0.5,2.9-1.2,3.3-0.8c0.5,0.3,0.6,0.8,0.8,1.4c0.1,0.7-2.6,2.6-2.6,2.6s0.5,0.8,1,1.7
				c0.2,0.3,0.9,1.4,1.2,1.4c0.3,0,0.4,1,0.4,1s-0.2,0.9,0,1.2c0.2,0.3,1,0.9,1,0.9s0.7,0.1,1.7,0.6c0,0,0.6,1.3,1.7,1.4
				c0.7,0,1.4-0.1,2.1-0.2c0,0,0.4,1.8,1.2,1.7c0.8-0.1,2.7-0.9,3.6-1c0.8,0,0.8,1.3,1.2,0.9c0.4-0.5,0.8-0.7,2.2-1.3
				c1.3-0.6,1.8,0.2,2.5,0c0.7-0.2-0.3,1.2,0,1.7c0.3,0.6,1.4,1.2,1.4,1.2c-0.7,0.1-1.3,0.1-2,0.2c0,0-1.2,0.8-1.6,1.3
				c-0.4,0.5-2.9,1.4-4,1.6c-1,0.3-2.8,0.7-3.7,1c-0.8,0.2-2.9,0.8-4,1c-1.1,0.1-2.1,0.8-2.6,0.9c-0.5,0.1-1.1,0.8-1.4,1.7
				c-0.3,0.9-2.7,2.2-3.2,2.7c-0.5,0.6-2.4,0.8-3.3,1.1c-0.9,0.2-1.5-0.4-2.4-0.4c-0.9,0-0.8-0.7-0.3-1.6c0.4-0.9-0.6-1.1,0.2-1.7
				c0.9-0.6,1-1.4,2.1-2.3c1.1-0.9,1.6-1.5,3.2-2.5c1.6-1.1,0.8-0.1,1.5-0.3c0.7-0.1,0.1,0.5,3-0.8c2.8-1.3,1,0.1,2.3,0.1
				c1.3,0,1-0.5,1.2-1.1c0.2-0.6-0.7-0.9-1.1-1c-0.5-0.1-1.8,0.4-2.6,0.6c-0.8,0.3-1-0.2-0.5-1c0,0,0.3-1.2-0.4-1.1
				c-0.7,0.1,0,0-0.5,0c-0.5,0-0.5,1.1-0.9,1.3c-0.5,0.1-1.7,0.6-2.2,0.6c-0.5,0-2.3,0.7-2.6,0.9c-0.4,0.2-1.4-1-1.4-1s0,0-1.3,1.4
				c-0.6,0.6-2,0.4-3,0.1c-0.1,0-0.1,0.1-0.1,0.2c0.5-0.2,0.7-0.2,0.1,1.9c-0.1,1.1-1.3,0.5-1.7,0.1c-0.3-0.3-0.8,0.7-1,1
				c-0.2,0.3-0.7,0.4-0.7,0.4c-1,0.3-2.1,0.6-3.1,0.9c0,0-1.8,0.3-2.1,0.3c-0.4,0-1.4-0.2-2.1,0.8c0,0-0.9,1.3-0.9,1.7
				c-0.1,0.5-1.5,0.2-2.3,0.6c-0.8,0.3,0.6-0.7-1.8-0.1c-2.5,0.6-0.4,0.4-1.6,1.4c-1.2,0.9-1.1,1.5-2.2,2.1
				c-1.2,0.6-1.3,1.2-1.4,2.5c-0.1,1.2-0.1,0.7-0.9,2.1c-0.8,1.5,0,0,0.5,1.1c0.5,1.1-0.2,0.9,0.2,1.7c0.4,0.8,0.6,1.1,0.8,1.5
				c0.2,0.5-1.5,1-2,1.4c-0.5,0.5-1.3,0.4-1.3,0.4s-0.8,1.2-1.4,1.7c-0.6,0.5,0,0-1.2,0.3c-0.5,0.1-1.5-0.9-3.8,0.6
				c-2.3,1.5-0.7,0.4-1.4,0.2c-0.7-0.1-1.6,0.1-2.4,0c-0.8-0.1-1,0.8-1.7,1c-0.7,0.2-1,0.6-1,0.6c-0.6,0.4-1.2,0.9-1.8,1.3
				c0.2-0.7,0.3-1.5,0.5-2.2c0,0-1.1,0.3-1.5,0.7c-0.4,0.3-0.6,1.1-0.7,2c-0.1,0.9,1.2,0.4,1.6,1.1c0.3,0.7-0.4,1.3-0.6,2.1
				c-0.2,0.8-0.9,1.2-0.5,1.9c0.4,0.8-2.5,2.6-3.3,3.2c-0.9,0.6-0.6,0.2-1,0.2c-0.3,0-0.7,0-1.4,0.1c-0.5,0.1-1-0.6-1.2-1.1
				c0,0.3,0,0.8,0.1,1.4c0,1.3,0.4,0.4,0.4,1.1c0,0.7,0.8,1,1,1.9c0.2,0.9-0.5,1.4-0.6,1.7c0,0.3-0.4,0.6-1.2,1.1
				c-0.9,0.6-0.5,1-0.7,1.9c-0.1,0.9-1.1,1.5-2.2,0.6c-1.1-0.9,0.7-1.3,0.7-2.2c-0.1-0.9-0.9-0.7-1.4-1.8c-0.5-1.1,0,0,0-1.8
				c0-1.8,1.3-4.2,0.4-3.9c-0.8,0.3-0.2,1.5-2.1,4.7c-1.9,3.2-0.5,0.1-1.7,0.5c-1.2,0.3,0.2,0.8,0.2,2.9c0,0.8,0.8,1.6,0.8,1.6
				s0.8,0.5,0.8,1.4c0,0.9-1.2,0-2,0.2c-0.8,0.2,0.3,0.5,1.2,1.2c0.9,0.7,0.7,0.9,1.7,0.8c1-0.1,1,0.4,1,1c0,0.6-0.2,1.1-0.1,2.2
				c0.2,1.1-0.7,0.9-0.7,0.9s-0.4,0.7-0.3,1.4c0.1,0.8,0.4,0.2,2.1,1c0,0-0.2,0.8-0.3,1.2c-0.1,0.5-1.4,1-2.6,1.8
				c-0.6,0.3-0.5-0.1-1.9,0c-1.4,0.1-0.4,0.4-0.9,0.9c-0.5,0.5,0.1,0.8,2.3,1.8c0.2,0.1-0.8,0.8-1.7,1.2c-0.8,0.4-0.8,0.1-1-0.2
				c-0.2-0.3-2,0.8-2.3,1.2c-0.2,0.4-1,0.5-2.8,2.6c-1.8,2.1-0.9,1-1.3,1.1c-0.5,0.1-1.3,0.3-2.6-0.1c-1.3-0.4-0.8,0.2-1.8,0.9
				c-0.9,0.7-1,1.2-1.5,1.9c-0.6,0.6-0.8,0.9-1.5,1.3c-0.6,0.5-0.5,0.5-2.5,1.8c-0.7,0.4-2.6,2-4.2,3.2c-1.5,1.3-0.9,0.8-1.3,1.8
				c-0.4,1-1.2,1.7-1.9,2.8c-0.7,1.1-0.2,0.5-0.1,2.3c0.1,1.8,0.8,0.7-0.1,2c-1,1.3,0,1,0.1,2c0.1,1,0.1,1,0.5,2.3
				c0.3,1.3,1.5,1.4,1.8,1.9c0.4,0.4,1.1,1.1,1.3,1.8c0.2,0.6-0.1,0.7-0.6,1.8c-0.5,1,0,0.8,0.6,3.3c0.6,2.5,0,0,0.3,1.1
				c0.4,1.1,0,1.3,0.9,1.8c0.8,0.4,0.3,1,1,1.7c0.8,0.7,0.5,0.5,0.8,1.1c0.2,0.7,0,0.5-0.1,1c-0.1,0.6-0.3,0.7,0,2.2
				c0.3,1.6,0,1.7,0.5,1.8c0.5,0.1-0.2,1.6-0.2,1.6s-0.7,1-1,1.6c-0.3,0.7-0.4,1.3-0.4,1.3c-0.4,0.4-0.9,0.9-1.4,1.3
				c0-0.5-0.9-0.5-1.3-0.6c-0.3-0.1-1.1-0.3-1.2-0.7c-0.1-0.3-0.5-1.6-0.7-2.4c-0.1-0.9-0.8-0.6-1.3-0.5c-0.5,0.1-1,0-1,0
				c-0.6-0.6-1.1-1.2-1.7-1.8c-0.6,0.4,0.2-0.8,0.2-1.5c0-0.6-0.5-1.3-0.6-1.6c-0.1-0.3-0.6-1.1-0.6-1.1s-0.5-1.2-1.4-1.6
				c-0.9-0.3-0.4-0.7-1.9-2.2c-0.2-0.2,0.1-1.1,0.1-1.8c0-0.7-0.1-1.5,0.7-3c0-0.4-0.1-0.7-0.1-1.1c0,0-0.8-1.2-1-1.6
				c-0.1-0.3-0.8-1.1-1.2-1.8c-0.4-0.7-1.1-0.4-1.4-1.1c-0.4-0.7-1.2-0.9-1.9-1.2c-0.7-0.3-0.6-0.3-1.1-0.9c-0.5-0.6,0-0.4-1.9,0.1
				c0,0-1.3,0.7-1.6,0.8c-0.3,0.1-1.6,0.4-2.9,0.7c0,0-1.7-0.6-1.5-1c0.1-0.4-1.3-1.3-1.3-1.3c-0.1-0.4-0.3-0.7-0.5-1.1
				c-0.8-0.1-1.6-0.3-2.3-0.4c0,0-2.5-0.1-2.8-0.2c-0.4-0.1-1.4-0.1-2-0.1c-0.6,0-1.2,0.3-1.5,0.8c-0.4,0.5-1.5,0.5-2.6-1
				c-0.3-0.4-0.9,0.4-1,0.9c-0.2,0.4-0.5,0.9-0.5,0.9s-2.1-0.5-3-1.2c-1-0.7-0.6,0-1.8,0.3c-1.2,0.3-0.8,0.3-1.4,0.1
				c-0.6-0.2-1.6,0.3-2.2,0c-0.6-0.3-0.3-0.7-2,0.5c-0.8,0.5,1.7,0.3,2.6,0.4c0.9,0.1,0.7,0.8,0.7,0.8c0.4,0.2,0.8,0.4,1.2,0.5
				c0,0,0,0.5,0,1.2c0,0.7,0.6,1.4,1.2,1.8c0.6,0.3-0.1,0.9-0.9,1.3c-0.8,0.4-1-0.1-1.3-1c-0.2-0.9-1.3-0.6-1.3-0.6
				c0.5,0.3-0.6,1.4-2.2,1.4c-1.7,0-0.1-0.9-0.1-0.9s0,0-0.7,0.1c-0.7,0.1,0,0-1,0.5c-0.9,0.4-1.1,0.2-1.9-0.2
				c-0.8-0.4-0.1-0.6-0.7-1.2c-0.6-0.7-0.7-0.1-1.8-0.7c-0.6-0.3-1.2-0.6-3.1-0.4c-0.5,0-1.2,0.3-1.5,0.3c-0.3,0-0.5,0.1-2.4-0.3
				c-2-0.4-1.2-0.1-1.9-0.6c-0.7-0.4-0.8-0.6-1.5-0.8c-0.7-0.2-2.6,0.5-4.1,1.8c0,0-1.2,0.2-2.3-0.1c-1.2-0.3-1.5-0.3-1.4,0.5
				c0.1,0.9,0,0-0.1,1.1c-0.1,1.1-0.9,0.7-1.8,1.3c-0.8,0.6-0.8,0.6-0.8,1c0,0.3-2.2,0.8-3.4,1.2c-1.1,0.3-0.6-0.1-1.9,0
				c-0.6,0-0.8,1.1-1.2,1.2c-0.4,0.1-0.7,0.2-1.4,0.3c-0.7,0.1-0.3,1.3-1.3,2.5c0,0-0.9,0.5-1.3,1c-0.5,0.4-0.6,1.3-0.9,2.1
				c-0.4,0.8,0.5,0.8,1.4,2c1,1.1,0.6,1.5,0.9,2.8c0.2,1.3,0.1,1.1,0.2,2.5c0,0.5,0,0.9-0.1,1.3v0c-0.1,0.6-0.3,1-0.3,1.3
				c0,0.4-1.8,2-2.1,2.4c-0.4,0.3,1.2,3.2,1.3,3.7c0.1,0.5-1.6,1.5-1.6,1.5c-0.2,0.3,0.2,1.1,0.4,1.5c0.3,0.4,0.4,1.3,0.3,2.1
				c-0.1,0.8-0.3,0.8-0.6,1.5c-0.3,0.7-0.1,2.3,0.1,3.7c0.2,1.4,0.9,1.9,1.2,2.4c0.4,0.6,0.5-0.7,2.5,3c2,3.7,0,0,0.8,1.9
				c0.9,1.8,1.3,1.3,2.2,2.2c0.9,0.9,1.1,1.7,1.6,1.6c0.6-0.1,0.6,2.1,1.2,2.3c0.6,0.2,1.3,2.3,1.3,2.6c0,0.3,0.2,0.4,1.5,1.1
				c0.3,0.2,0.9,0.3,2.3,0.6c1.4,0.3,0,0,1.1,0c1.2,0,0.7,1,1.7,1.3c1.1,0.3,0.7,1.1,1.3,1.2c0.6,0.1,1,0,2-0.7c1-0.7,0,0,1.6-0.6
				c1.6-0.6,1.2,0.3,1.8,0.2c0.6-0.1,1.5,0.2,2.8-0.3c1.2-0.4,1-0.3,1-0.3s1.4-0.8,2.8-1.3c1.3-0.5,0.5,0.6,1.2,0.3
				c0.7-0.2,0.6,0.9,2.2,0.4c0.9-0.3,0-0.8,0.9-1.1c0.5-0.2,0.8-0.6,1.6-1.3c0.8-0.6,0-0.9,0.3-1.8c0.3-0.8,0.2-0.4,0.8-1
				c0.5-0.6,0.3-0.4,0.3-4.3c0-3.8-0.1-1,1.3-2.6c1.4-1.6,0,0,0.6-1c0.7-1,0.9-0.3,2.2-0.2c0.4,0,2.7,0.1,4.1-1.4
				c0.4-0.4,1.2-0.1,1.8,0c0.6,0.1,3.2,0.9,3.7,0.7c0.4-0.2,0.6-0.2,1.9-1c1.4-0.8,1.1-0.1,2.2,0c1,0.1,0.7,0.7,2,1.8
				c1.2,1.1,0,0.7-0.5,1.9c-0.5,1.2-0.4,0.4-2.2,2.2c-1.8,1.7-0.8,1.1-1.3,1.8c-0.4,0.8-0.1,1.5,0.2,2.8c0.3,1.2,0.2,0.9,0.1,1.6
				c-0.1,0.8-0.3,0.6-0.5,1.3c-0.2,0.8-0.1,1.6,0,1.9c0.2,0.3-0.7,1.6-0.7,1.6c-0.1-0.4-0.8-2.1-0.9-2.9c0-0.8-0.6-0.1-1.1,0.3
				c-0.6,0.4,0.3,1.3,0.5,2c0.1,0.3,0.6,0.8,0.7,1.3c0.1,0.4-0.1,0.8-1,0.9c-2,0.3,0.2,1,0.4,2c0.2,1,0.3,2.6,0.4,3.1
				c0,0.5,0,0.9,0,1.4c0,0.5-1,0.9-1.1,1.3c-0.2,0.3-1.3,1-1.5,2.7c0,0.1,0,0.3,0,0.4c0.1,2,1.8,0.5,2.7-0.3
				c0.7-0.6,0.9-0.3,1.5-0.4c0.2,0,0.4-0.1,0.7-0.2c1.2-0.5,0.7,0.1,2.1-0.2c1.4-0.3,1,0.5,2.2,0.3c1.3-0.2,1.8,0.9,3.1,0.7
				c1.3-0.2,1.1-0.4,2.3-0.6c1.1-0.2,2.9-0.4,3.7-0.6c0.8-0.2,1.4,0.5,2.6,0.6c1.2,0.2,0.7,0.8,0.9,1.1s3,1.2,4.2,2.5
				c0.3,0.3,0.6,0.9,1.3,1.7c0,0,0,0.1,0,0.1c0.6,0.8,1,0.7,1.3,1.2c0.4,0.6,0.7,0.8,0.7,1.5c0.1,0.7-0.6,2.1-0.6,2.4
				c0,0.3-0.5,1.8-0.5,3.2c0,1.4-0.3,0.8-0.6,1.3c-0.3,0.6-0.2,1.5,0.1,2.7c0.2,1.1-0.2,1.2-0.1,2.3c0.1,1.1,0,1.7,0.3,2.3
				c0.3,0.7-0.4,1.8,0,2c0.3,0.2,0.4,0.6,2.2,2.4c0.2,0.2,0.4,0.3,0.6,0.5c0.3,0.3,0.3,0.6,0.8,1.5c0.5,0.9,0.6,1.2,1.3,2.1
				c0.7,0.9,1.1,1.1,1.6,1.5c0.5,0.3,0.8,0.8,1.2,1.3c0.4,0.4,1.6,0.8,2.3,1.2c0.8,0.5,1,1,3,1.1c2,0,2.2-0.3,2.2-0.3
				c0.5-0.1,1.1-0.1,1.6-0.2c0,0,1,0.3,2.5-0.2c1.5-0.5,1.8-0.3,2.3-0.7c0.5-0.4,0,0,0.3-1.4c0.3-1.4,0.6,0.6,1.5-0.8
				c0.8-1.4,1,0.4,1.4,0.2c0.4-0.1,0.9,0.4,2.4,1c0.1,0.1,0.2,0.1,0.4,0.1l0.1,0c0.2-0.4-0.1-0.3,0.2-0.9c0.2-0.5,0.2-0.3,0.6-0.6
				c0.4-0.3,0.5-1,1-1.7c0.4-0.7,0.5-0.3,0.9-0.2c0.4,0,0.3,0,0.7-0.4c0.4-0.4,0-1.4,0.1-2.4c0-1-0.2-0.4,0.1-0.8
				c0.4-0.4,0.5-0.8,0.9-1.1c0.4-0.2,0.7-0.2,1.8-0.2c1.1,0,0.2,0.5,1.3-0.8c1.1-1.3,0,0,0.6-0.2c0.6-0.3,0.5,0.2,1.4,0.4
				c0.9,0.2,0,0,0.7,0c0.7-0.1,0,0,0.6-0.5c0.6-0.5,0.4-0.3,1.1-0.7c0.7-0.4,0.6-0.5,0.8-0.8c0.1-0.3,0.5-0.7,1.1-1
				c0.6-0.3,0.7-0.3,1.5-0.4c0.7-0.1,0.7-0.1,1.4,0c0.6,0.1,0.5,0.5,0.6,0.9c0.1,0.3,0.2,0.4,0,0.5c-0.2,0.1-0.5-0.1-0.5-0.1
				s-0.5-0.6-0.2-0.3c0.2,0.3-0.3,0.7-0.6,1c-0.2,0.2-0.9,0.1-1.4,0.1c-0.6,0-0.4,0.1-0.4,0.7v0.1c0,0.4,0.5,0.3,0.5,0.5
				c0.1,0.2,1,2.2,0.1,3.4c-0.9,1.2-0.2,0.9,0,1.4c0.1,0.5,1,1.6,1.4,1.8c0.4,0.1,0.7,0.5,1.4,0c0.7-0.6-0.1-0.4-0.1-1.5
				c-0.1-1.1-0.3-0.6-0.4-1.4c-0.1-0.8-1.2-0.9-1.4-1.4c-0.1-0.6-0.1-0.6-0.1-0.9c0.1-0.4,0.2-0.5,1-0.8c0.7-0.3,1.2-0.1,2-0.7
				c0.8-0.6,0-0.3,0-0.7c0-0.4,0.4-0.9,0.8-1.6c0.4-0.7,0.6,0,1.2,0.1c0.7,0.1,0.2,0.7,0.5,1.1c0.3,0.4,0.1,0.7,0.4,0.8
				c0.3,0.1,0.6,0.4,1.1,0.4c0.5,0,1.4,0.3,2,0.3c0.6,0,0.5,0.9,0.5,0.9s0.6,0.6,0.9,1.2c0,0,0,0,0,0.1c0,0,0.1-0.1,0.3-0.1
				c0.6,0.1,0,0,1,0.5c1,0.6,0.5,0,2.1-0.5c1.7-0.5,0.4,0,1.2,0c0.8,0,0.6,0,1.2-0.2c0.6-0.3,0.3,0.3,0.9,0.6c0.6,0.2,0.2,0.5,1,0.6
				c0.8,0.1,1,0.5,1.4,0.4c0.4-0.1,1.7,0.2,1.7,0.2s0,0,0.9-1c1-1,0.8-0.2,1.6-0.4c0.8-0.2,0.7,0,1,0.1c0.3,0.1,1.3,0,1.4-0.2
				c0.1-0.2,1,0,1.8,0.1c-0.2,0.1-0.6,0.4-1.1,0.7c-1.3,0.7,0,0-0.2,0.3c-0.2,0.2-0.2,0.4,0,0.9c0.2,0.5,1.2-0.1,1.2-0.1
				s0,0.7,0.1,0.9c0.1,0.2,0.6,0.3,1,0c0.4-0.3,0.8-0.7,1-0.6c0.2,0.1-0.1,0.4,0.1,0.7c0.2,0.3,0.2,0.5,0.8,0.3
				c0.5-0.2,0.6,0.1,1,0.1c0.4,0,0.3,0.3,1.1,1.1c0,0-0.3,0.6-0.7,1.1c-0.3,0.5-0.3,0.5-0.4,0.9c-0.2,0.4,0.2,0.3,1.3-0.3
				c0.3-0.2,0.8,0,1.4,0c0.6,0,0.8,0.5,1.3,0.7c0.4,0.2,0.3,0.6,0.6,0.6c0.1,0,0.2,0.1,0.3,0.1c0.2,0.1,0.5,0.3,0.8,0.4
				c0.4,0.2,0.8,0.3,1,0.6c0.2,0.3,0.4,0.4,1,0.6c0.6,0.1,0.5,0.5,0.7,0.8c0.2,0.3,0.6,0.5,0.7,1c0.1,0.6,0,0.3,0.3,1.1
				c0.1,0.5,0.7,0.2,1.2,0.1c0.5,0,0.5,0.3,0.6,0.2c0-0.1,1.7,0.9,2,1.4c0.4,0.5,0.5,0.8,1.3,1.2c0.2,0.1,0.3,0.2,0.3,0.3
				c0.1,0.1,0.2,0.2,0.4,0.1c0.4-0.2,0.3,0.1,1.1-0.3c0.8-0.4,0.6,0.3,0.9,0.3c0.3-0.1,0.1-0.4,0.6-0.6c0.5-0.2,0.6,0,1.5,0
				c0.9,0,0.4,0.4,0.8,0.1c0.4-0.3,0.8,0.5,1.3,0.3c0.5-0.1,0.5,0,0.8-0.1c0.3-0.2,0.8,0.1,1.2,0.1c0.1,0,0.2,0,0.2,0
				c0.4-0.1,0.3,0.5,0.7,0.4c0.4-0.1,0.2,0.3,0.7,0.3c0.6,0,0.2,0.7,0.8,0.6c0.6-0.1,0.7,0.4,1.2,0.6c0.5,0.2,0.9,0.4,1.3,0.6
				c0.4,0.1,1.6,1.2,2,1.4c0.2,0.1,0.6,0.6,0.9,0.9c0.2,0.2,0.3,0.4,0.3,0.4s0.7-0.1,1.3,0.8c0.7,0.9,0.1,0.6,0.4,1.1
				c0.3,0.5,0.1,0.8,0.6,1.3c0.5,0.5,0.4,0.8,0.4,1.1c0,0.4,0,0.8,0,1c0.1,0.3,0.1,0.9,0.4,0.8c0.3-0.1,0.7,0.5,1,0.5
				c0.2,0,0.9,0.6,1.1,0.6c0.2,0.1,0.4,0.5,0.4,0.7c-0.1,0.2,0.2,1,0.2,1c0.5,1.7,0.1,0.3-0.2,0.7c-0.3,0.5,0.1,0.6-0.1,1
				c-0.2,0.4-0.4,0.4-0.8,0.7c-0.4,0.3-0.4,0.2-1.3,0.6c-0.9,0.4-0.3,0.2-0.5,0.7c-0.3,0.5-0.2,0.4-0.4,0.8
				c-0.2,0.4,0.1,0.3,0.6,1.4c0.1,0.3,0.6,0.5,0.6,0.7c-0.1,0.1,0.3,0.5,0.6,0.6c0.3,0.1,0.2-0.6,0-1.4c-0.1-0.8-0.4-0.4-0.4-0.7
				c0-0.3,0.4-0.3,1.1-1c0.7-0.7,0.3-0.1,1.3,0.2c1,0.2,1,0.4,1.4,0.3c0.5-0.2,0.6,0,1,0.1c0.3,0,1.1-0.1,1.8,0
				c0.6,0,0.3,0.5,0.3,0.8c0,0.3,0,0.8-0.1,1.1c-0.1,0.4-0.1,0.5-0.1,0.9c0,0.4-0.2,0.6-0.2,0.6s-1,0.6-1.5,0.6
				c-0.5,0.1-0.7,0-1.6,0c-0.9,0-0.6,0-0.9,0c-0.3,0.1-2.2-0.7-1.5-0.1c0.5,0.3,0.5,0.5,0.8,0.5c0.3,0,1,0.7,1,0.7s0.7-0.1,1.3-0.3
				c0.6-0.2,0.6,1.2,0.6,1.2s0,0,0-0.5c0-0.5,0,0,0.4-0.3c0.3-0.3,0.3-0.1,0.5-0.6c0.2-0.6,0,0,0.6-0.6c0.6-0.6,0.7-0.2,1.2-1
				c0.3-0.6,0.4-0.7,0.6-1.3c0.3-0.7,0.3-0.1,0.6-0.5c0.3-0.4,0.8,0.1,1.1,0c0.3-0.1,0.2,0.4,0.6,0.1c0.3-0.3,0.4-0.1,0.8-0.2
				c0.4-0.1,0.3,0.7,0.8,0.6c0.4-0.1,0.5,0.6,0.8,0.5c0.3-0.1,0.7,0.6,1,0.5c0.2,0,0.9,0.5,1.2,0.4c0.3-0.1,0.9,0,1.1,0.3
				c0.2,0.3,0.5,0.1,0.7,0.4c0.2,0.3,0.9,0.3,1.2,0.5c0.4,0.1,0.5-0.1,1.1,0.4c0.5,0.5,0.7,0.3,1,1.5c0.1,0.3,0,0.3-0.3,0.9
				c-0.3,0.7-0.1,0.9,0.5,0.9c0.7,0,0-0.3,0.4-0.7c0.4-0.5,0,0,0.7,0.1c0,0,0.7,0,1.4-0.5c0.7-0.4,0,0,0.6-0.4
				c0.6-0.4,0.4,0,1.2,0.2c0.8,0.2,0.7,0.7,1,0.7c0.3,0.1,0.3,0.3,1,0.2c0.7-0.1,1,0.7,1.6,0.7c0.6,0.1,0.5,0.4,1.1,0.2
				c0.6-0.2,0.6,0.1,1.2-0.2c0.6-0.4,0.7-0.1,1.2-0.3c0.6-0.2,1,0.1,1.5,0.2c0.4,0.1,0.6,0.1,0.8,0.4c0.2,0.2,1.2,0,1.5,0.2
				c0.2,0.1,1,0.5,1.4,0.8c0.3,0.2,0.9,0.7,1,0.7c0.2,0.1,0.9,0.8,1.4,1.1c0.5,0.2,0.8,0.6,1,0.7c0.2,0.1,0.8,0.2,1.3,0.5
				c0.5,0.3,0.7,1.1,0.9,1.6c0.2,0.5,0.5,0.7,1.1,1.2c0.6,0.5,0.7,0.2,0.7,0.2s1,0,1.4,0c0.5,0,0.4,0.3,0.9,0.4c0.5,0.1,1,0,1.6,0
				c0.5-0.1,0.3,0.3,1.9,2.8c0.2,0.3,0.3,0.5,0.4,0.7v0c0.1,0.1,0.1,0.2,0.2,0.3c0.2,0.3,0.1,0.2,0,0.1c0.1,0.3,0.1,0.6,0.2,0.9
				c0.2,0.6,0.1,0.9-0.1,1.3c-0.2,0.3,0.1,0.9,0.3,1.4c0.1,0.5,0.1,0.6,0.2,0.8c0.1,0.2,0,1,0.2,1.3c0.1,0.3-0.2,0.8-0.3,1.2
				c-0.2,0.3-0.1,0.8-0.2,1.1c-0.1,0.3-0.3,0.3-0.7,0.9c-0.3,0.6-0.4,0.6-0.6,1.2c-0.3,0.6-0.5,0.3-1,0.8c-0.5,0.5-2.2,2.1-2.7,2.9
				c-0.5,0.7-0.6,0.6-0.8,0.6c-0.2,0.1-0.1,0.8-0.1,0.9c0,0.2,0,0.7,0,0.7s-0.2,0.4-0.3,0.6c-0.1,0.2-0.5,0.7-0.5,1.3
				c0,0.6-0.5,0.7-1,1.1c-0.6,0.4,0,0-0.6-0.1c-0.5-0.2-0.2,0-1,0c-0.8,0-0.6,0.3-0.6,0.3s0.3,0.1,1.1,0.4c0.8,0.3,0.3,0.1-0.5,0.3
				c-0.8,0.2,0,0-0.6,0.2c-0.7,0.2,0.1,0.4,0.4,1.2c0.3,0.8,0.1,0.6,0.2,0.9c0.1,0.3,0,0.7,0.3,1.4c0.2,0.7-0.1,0.9,0.1,1.4
				c0.2,0.4-0.1,1.4-0.1,1.9c0,0.6,0.7,1.4,0.8,1.9c0.2,0.5,0.1,0.5-0.2,1.5c-0.1,0.2-0.1,0.7,0.2,1.2c0.4,0.5,0.1,1.5,0.2,1.8
				c0,0.3-0.2,1-0.2,1.2c0,0.2-0.2,0.5-0.8,0.6c-0.5,0.2-0.2,0.5-0.3,0.9c-0.1,0.3,0,0.3,0.2,0.9c0.2,0.5,0,0.3,0.2,2.6
				c0.2,2.3-0.1,0.5-0.4,0.8c-0.4,0.3,0,0.4-0.6,1.5c-0.6,1.1-0.7,1-0.8,1.6c0,0.5-0.6,0.8-0.9,1.2c-0.3,0.4,0.1,1.3,0.2,1.7
				c0.1,0.4,0,0.5-1,1.6c-1,1.1-0.4,0.2-1.1,0.8c-0.2,0.2-0.3,0.7-0.4,1.1c-0.1,0.5-0.5,0.6-0.7,0.5c-0.2-0.1-0.5,0-0.7-0.2
				c-0.3-0.3-0.4,0.2-0.9,0.4c-0.4,0.2-0.8,0.1-1-0.2c-0.2-0.3-0.5,0.1-0.7-0.1c-0.2-0.2-0.5,0.2-0.8,0.1c-0.3-0.1-0.9,0.2-1.4,0.1
				c-0.5-0.1-0.6,0.1-0.9-0.4c-0.3-0.5,0,0-0.1,0.7c-0.1,0.7-0.4,0.4-1,0.8c-0.6,0.5-0.7-0.1-1.3,0.4c-0.7,0.5,0.9,0.9,0.9,0.9
				s-0.8,0.1-1.2,0.1c-0.5,0.1-0.3,0.3-0.6,0.1c-0.3-0.3-0.8-0.5-0.8-0.5c-0.3,0.1-0.7,0.3-1,0.3c-0.3,0-0.6,0.2-0.8,0.2
				c-0.2,0,0.1,0.3-0.5,1c0,0-1,0.4-2,1.7c-0.4,0.5-0.5,0.7-0.5,0.8c0,0,0,0-0.1,0c-0.3,0.2-0.3,0.2-0.6,0.2c-0.3,0.1-1.1-0.1-1.5,0
				c-0.5,0.1,0.2,0.5,0.6,1.3c0.4,0.8-0.1,0.4-0.5,0.7c-0.4,0.3,0.1,0.5,0.5,0.9c0.4,0.5,0.1,0.6,0.4,0.9c0.3,0.3,0.7,0.9,0.7,0.9
				s-0.1,0.9,0.1,1.2c0.2,0.3,0.1,1.4,0.1,1.8c0.1,0.3,0,1-0.1,1.4c-0.1,0.3-0.2,0.3-0.4,0.7c-0.2,0.4-0.9,2.3-0.9,2.3
				c-1.1,0.8-0.9,1.4-1.3,1.9c-0.4,0.6-0.2,0.6-0.2,1.6c0,1-0.2,0.6-0.3,0.8c-0.1,0.2-0.2,0.5,0,1.1c0.2,0.6-0.3,1.1-0.6,1.3
				c-0.2,0.2-0.4,0.6-0.6,0.6c-0.2,0.1-0.5,0.5-0.9,0.7c-0.5,0.2-0.6,0.8-0.6,0.8s-0.9,0.7-1.3,0.8c0.2,0.8-0.2,0-0.5,0.2
				c-0.2,0.2-0.2,0.4-0.2,0.7c-0.1,0.3-0.2,0.9-0.1,1.2c0.2,0.4-0.2,1.1-0.2,1.1s-0.6,0.5-0.9,0.9c-0.3,0.3-0.5,0.6-0.7,1.2
				c-0.2,0.6-0.4,0.7-0.5,0.8c-0.2,0.1-0.3,1-0.6,1.6c-0.3,0.7-0.5,0.6-0.7,0.6c-0.2,0-0.6,0.8-0.6,0.8s-1.2,0.5-2.2,0
				c-0.3-0.1-0.7,0-1.2-0.2c-0.5-0.2-0.4,0.1-0.7,0.3c-0.3,0.1-0.7-0.1-1,0c-0.3,0-0.2,0-0.9-0.3c-0.3-0.1-0.9-0.1-1.4-0.3
				c-0.4-0.2-1-0.5-1.2-1c-0.2-0.5-0.7-0.1-1.5-0.5c-0.5-0.3-0.3,0-0.7,0.1c-0.4,0.1-1.1-0.9-1.3-1.1c-0.3-0.2-0.1-0.4,0.1-1.3
				c0-0.2-0.3-1.5-0.4-2c-0.1-0.5,0-0.5-0.1-1.2c-0.1-0.7-0.7-1.9-0.7-1.9c0,0.1,0,0.6,0.3,1.2c0.3,0.7,0.2,0.7-0.2,1
				c-0.3,0.3,0.1,0.2,0,0.7c-0.1,0.5,0.1,0.6,0.3,0.8c0.2,0.2-0.3,0.5,0.1,1.7c0.4,1.1-0.2,0.4-0.1,0.9c0,0.5,0.2,0.7,0.4,1
				c0.2,0.3,0.4,0.5,0.8,0.6c0.4,0.1,2,1,2.5,0.9c0.5-0.1,0.6,0.8,0.8,0.9c0.3,0.1,0.2,0.8,0.5,1.4c0.2,0.3-0.2,0.5,0.1,1.4
				c0.3,0.9,0,0,0.2,0.3c0.2,0.3,0.3,0.7,1,0.9c0.6,0.2,0.4,0.2,0.7,1c0.4,0.8,0.1,0.3,0.2,1.2c0.1,0.9,0.2,0.5,0.2,0.8
				c0,0.3,0,0.5-0.3,0.7c-0.3,0.2-0.3,0.7-0.3,0.7s-0.1,0.8-0.5,1.4c0,0-0.3,0.4-0.5,0.5c-0.2,0.1-0.2,0.3-0.3,0.5
				c-0.2,0.2-0.6,0.6-0.8,0.5c-0.2-0.1-0.5,0.7-0.6,0.4c-0.2-0.2-0.6,0.2-0.6,0.2s-0.7,0.1-1,0.1c-0.3,0-3.4,0.8-4.4,0.9
				c-1,0.1-1.4-0.1-1.4-0.1s-0.4,0-1.3,0c-0.9-0.1,0,0-0.7-0.1c-0.6-0.1-0.6-0.4-1.8,0c-0.2,0.1,0.4,0.6,0.9,1.4
				c0.6,0.8,0.1,0.7,0.2,1.1c0.1,0.4-0.1,0.5-0.1,1.8c0,0-0.5,0.6-0.5,0.9c0,0.3,0.1,0.5,1.2,0.9c1.1,0.5-0.4,0.6-0.6,0.8
				c-0.1,0.2-0.7,0.4-0.8,0.5c-0.2,0-0.8,0.1-1.1,0c-0.3-0.1-0.7,0.1-1.4,0c-0.6,0-1-0.6-1-1.1c0-0.5-0.8-0.2-2-0.6
				c-1.1-0.3-0.8-0.4-1,0.1c-0.2,0.4,0.8,0.9,0.8,1.3c0,0.5,0.1,0.6,0.1,0.9c0,0.3,0,0.8,0,1.2c0,0.5,0.3,0.4,0.6,1.2
				c0.1,0.2,0.7,0.5,1.5,0.8c0,0,0.1-0.6,0.5-1.2c0.3-0.5,0.8,0.3,1.6,0.4c0.7,0,0.3,0.5,0.4,2.4c0,1.9-0.5,0.1-0.9,0.2
				c-0.4,0-0.2-0.5-1.2-1.4c-0.4-0.4-0.3,0-0.7-0.1c-0.3-0.1-0.4,0.1-0.4,0.4c0,0.3,1.3,1.4,1.3,1.4s-0.1,0.4-1,0.7
				c-0.3,0.1-0.1,1.6-0.1,1.6c-0.1,0.3-0.1,0.5-0.3,0.8c0.2,0.2,0.4,0.4,0.6,0.7c0,0,0.2,1,0.1,2.4c-0.1,1.4-0.8,0.3-1,0.1
				c-0.2-0.2-0.8,0.8-1.6,1.2c-0.8,0.5-0.7,0.1-0.7,0.1s-0.6,0.4-0.8,0.6c-0.2,0.2-0.1,0.3-0.1,0.6c0,0.3,0,1.1-0.2,1.4
				c-0.2,0.3-0.2,0.9,0,1.6c0.2,0.8,0.8,0.9,1.1,1.4c0.2,0.5,1,0.6,1.3,0.7c0.4,0.1,1,0.1,1.3,0.1c0.3,0,0.6,0.2,0.9,0.2
				c0.3,0,0.4,0.5,0.8,1.2c0.4,0.8,0.2,0.5-0.1,0.8c-0.3,0.2-0.6,0.9,0.2,1.1c0.7,0.2,0.6,0.3,0.8,0.6c0.2,0.3,0,0.6,0.1,1
				c0.1,0.3-0.6,0.6-1.1,1.3c-0.5,0.7-1.1,0.7-1.4,0.9c-0.3,0.3-0.8,0.2-0.9,0.7c-0.1,0.5-0.4,2.4-0.4,2.6c0,0.2,0.6,1.4,0.6,1.6
				c0,0.2-0.5,0.2-1.1,0.1c-0.5-0.2-0.6,0.3-1,1c-0.4,0.7,0,1.3-0.4,1.2c-0.4-0.1,0.1,0.7,0.3,1.1c0.2,0.4,0.3,1.3,0.4,1.5
				c0.1,0.2,0.7,1,1.1,1.5c0.5,0.5,1.2,1.6,1.7,1.9c0.5,0.3,0.4,0.7-0.1,0.7c-0.4,0-0.9-0.2-1.6-0.6c-0.7-0.4-1.1-0.4-1.3-0.4
				c-0.2,0.1-0.2,0.2-0.2,0.3c0,0.1,0,0.2,0.1,0.4c0.2,0.4,0.4,0.5,1.1,0.7c0.7,0.2,0.9,0.8,1.2,0.9c0.3,0,0.4,0,0.8-0.3
				c0.5-0.3,0.8,0.6,1.1,0.7c0.3,0.1,0.2,0.4,0.3,1.1c0.1,0.6,0.3,0.6,0.5,0.8c0.3,0.2,1.2,1.5,1.6,1.6c0.3,0.1,0.8,0.6,1.1,0.4
				c0.3-0.2,0.5,0.6,0.8,1.1c0.3,0.4,0.3,0.3,0.8,0.7c0.5,0.4,1.2,1,1.2,1s0.9,0.4,1.4,0.4c0.6,0,1.4,0.5,2,0.5
				c0.6,0,0.4,0.7,0.4,0.7c0.1,0.1,0.3,0.2,0.4,0.3c0,0-0.9,0.4-1.1,0.6c-0.2,0.2-1.2,0-1.1-0.2c0.1-0.3-0.7-0.1-0.7-0.1
				s-0.7,0.1-1,0c-0.3-0.2-0.6,0.2-0.9,0c-0.4-0.2-0.6,0-1.5-0.6c-0.3-0.2-1,0.3-1.4,0c-0.4-0.2-0.3,0.1-1.3-0.2
				c-0.1,0-0.2-0.1-0.3-0.1c-1.3-0.4-0.4-0.1-0.5,0c-0.1,0.1-0.8,0-1.3-0.4c-0.5-0.4-0.6-0.7-0.6-0.7s-0.8,0-1.1,0
				c-0.3,0-1-0.1-1.1,0c-0.1,0.2-1.5-0.6-1.9-0.5c-0.4,0.1-0.5-0.6-0.2-0.9c0.3-0.3,0.7-0.2,0.8-0.4c0.1-0.3,1.9,0.2,1.9,0.2
				s0.5,0.3,1.1,0.1c0.5-0.1-0.1-0.2-0.3-0.6c-0.1-0.3-1.3-0.5-1.4-1c-0.2-0.6-0.3-0.6-0.5-1.4c-0.2-0.8,0.8,0,0.8,0
				s0.2-0.4,0.2-0.8c0-0.3-0.7-0.2-0.9-0.3c-0.2-0.1-1.2-0.2-1.6-0.4c-0.3-0.2,0.3-1.2,1.2-1.5c0.9-0.3,0.1-0.8,0.1-0.8s0,0-0.1,0
				c-0.1,0-0.6-0.4-1.3-0.2c-0.7,0.1-0.1,0.6-0.1,0.6c-0.2,0.2-0.3,0.3-0.5,0.4c-0.2,0.1-0.3,0.3-0.5,0.4c0,0-0.4,0.8-0.2,1.2
				c0.3,0.5,0.4,0.9,0.6,1.3c0.1,0.4-0.3,1.1-0.6,0.9c-0.3-0.1-1.1-0.2-1.9-0.5c-0.8-0.2-0.3-0.4-0.6-1c-0.3-0.6-0.3-0.2-0.4-0.8
				c-0.1-0.7,0.2-0.2,0.5-0.7c0.3-0.4,1,0.3,1.4,0.2c0.5-0.1-0.4-0.7-0.5-0.9c-0.1-0.2-0.3-0.4-0.6-1c-0.3-0.6-0.7-0.3-1-0.6
				c-0.4-0.3-0.8-0.2-1.4-0.9c-0.6-0.7-1,1-1.1,0.1c-0.1-0.9-0.4,0-0.5-0.6c-0.1-0.6-0.5-0.3-0.4-0.7c0.1-0.4,0.9,0,0.7-0.5
				c-0.1-0.5-0.2-0.9-0.3-1.3c-0.1-0.4-0.3,0.2-0.4,0.3c-0.1,0.1-0.6-0.3-0.8-0.5c-0.2-0.1-0.6,0-0.8-0.2c-0.2-0.1,0,0.3,0.1,1
				c0.1,0.7-0.4,0.2-0.6,0.2c-0.2,0.1-0.5-0.2-0.8-0.7c-0.2-0.5-0.1-0.4-0.3-1c-0.2-0.6-0.7-0.8-1.3-1.5c-0.6-0.7-0.2,0.1-0.8,0.1
				c-0.6-0.1-0.9-0.2-1.7-0.8c-0.7-0.6-0.5-0.2-0.2-0.6c0.2-0.4,0.4,0.1,1.1-0.5c0.4-0.3,0.3-0.4,0.3-0.7c0-0.2-1.1-0.8-1.3-1
				c-0.2-0.2-0.4-0.6-0.3-1.1c0.1-0.5,0.5-0.1,0.5-0.4c0-0.3-0.4-0.5-0.4-0.5s-0.1-0.9,0.1-1.4c0.2-0.5-1-1.1-1.3-1.7
				c-0.2-0.5-1.1-0.7-1.1-0.7c0.2-0.4,0.4-0.9,0.6-1.3c-0.2-0.2-0.2-0.4-0.2-0.9c0-0.5,0.8-0.1,0.8-0.1s0.9,0.2,1.6-0.2
				c0.2-0.1-0.8-0.6-1.3-1c-0.5-0.4-0.2-0.1-0.7,0.2c-0.5,0.3-0.1-0.3-0.2-0.7c-0.1-0.4-0.7,0.3-1.3-0.2c-0.6-0.6-0.6-0.5-0.6-1
				c0-0.5,1,0.1,0.9-0.7c-0.1-0.7,0,0-0.1-0.7c-0.1-0.7-0.2-0.3-0.3-0.7c-0.1-0.5-0.8,0.8-1.1,0.6c-0.4-0.2-0.2-0.3-0.2-0.6
				c0-0.3-0.7-0.4-0.7-0.4s-0.5,0.8-0.7,0.9c-0.2,0.1-1.1-0.4-1.6-1c-0.5-0.5,0.8-0.3,1.2-0.6c0.4-0.3,0.4-0.2,0.4-0.6
				c0-0.4-0.3-0.3-0.4-0.6c-0.1-0.3,0-0.5,0.7-1.1c0.2-0.2,1.1,0.8,1.1,0.8c-0.4,0.1,0.2,0.6,1.1,0.8c0.4,0.1,0.4,0.6,0.4,1
				c0,0.4,0.5-0.2,0.5-0.2s0,0,0.4-1c0,0,0.3-0.6,0.2-1c-0.1-0.5-0.5-0.8-0.6-1c0-0.3,0-0.4,0.3-0.9c0.3-0.5,0.7,0.4,1,0.4
				c0.3,0-0.8-1.2-1-1.2c-0.3,0,0,0-0.3-1.5c-0.1-0.6,0.8-0.4,0.8-0.4c0.1-0.3,0.3-0.6-0.5-1.3c-0.3-0.2-0.6-0.3-0.8-0.8
				c-0.2-0.5-0.1-0.3-0.2-0.5c-0.1-0.3-0.2-0.7-0.2-1c0-0.3,0,0-0.3-1.5c-0.3-1.5,0,0,0.1-0.3c0.1-0.3,0,0,0-0.5
				c-0.1-0.4-0.1-0.6-0.2-0.9c-0.1-0.4,0.5-0.3,0.3-0.6c-0.1-0.3-0.4-0.4-0.2-0.8c0.1-0.4,0,0,0-0.7c-0.1-0.7-0.3-0.3-0.7-1
				c-0.4-0.6,0.3-0.1,0.5-0.5c0.2-0.5-0.2-0.4-0.8-0.7c-0.6-0.3-0.5,0-0.8,0.1c-0.3,0.2-0.3,0.2-1.2-0.2c-0.3-0.1-0.5-0.1-0.8-0.4
				c-0.3-0.3-0.5-0.4-0.8-0.7c-0.3-0.4-0.4-0.8-0.6-1.3c-0.1-0.5,0,0,0.2-0.6c0.2-0.6,0.1-0.4,0.2-1.1c0.1-0.6-0.2-1.4-0.2-1.4
				s0,0,0-0.5c0-0.6,0,0,0.2-0.6c0.2-0.6,0.1-0.4,0.1-0.6c0-0.2-0.3-0.7-0.3-0.7s-0.4-1.1-0.5-1.4c-0.1-0.3-0.2-0.7-0.9-1.4
				c-0.7-0.7,0,0-0.5-1.1c-0.5-1.1-0.3-0.4-0.5-1.3c-0.2-0.9-0.6-0.9,0.2-2.3c0.3-0.4,0.3-0.5,0.4-1c0-0.6,0.3-0.2,0.4-0.7
				c0.2-0.5,0-0.5,0-1.3c0-0.7-0.3-1-0.1-1.4c0.2-0.4,0.3-0.9,0.5-1.7c0.2-0.7,0.4-0.5,0.3-1.3c-0.1-0.9-0.4-0.6-0.6-1.3
				c-0.2-0.7,0-0.4,0.1-1c0.1-0.6,0.4-0.7,0.4-1.4c0-0.7-0.2-0.3-0.2-0.6c0.1-0.3,0.2-0.6,0.2-1.2c0-0.6,0.1-0.6,0.1-1.1
				c0-0.5-0.2-0.7-0.4-1.3c-0.1-0.6-0.4-0.7-0.6-1.3c-0.1-0.6-0.2-1.3-0.5-1.9c-0.3-0.6,0-1.3-0.5-3.2c0,0,0,0,0.2-1
				c0-0.3,0.1-0.5,0.2-1.3c0.1-0.8-0.2-0.5-0.6-1.2c-0.4-0.7-0.5-0.7-0.6-2.1c0,0,0-0.1,0-0.1c0,0,0.1,0,0.2-0.2
				c0.3-0.8,0,0-0.1-1.2c-0.1-1.2-0.1-0.3,0-1.5c0.1-1.2,0,0,0-0.6c0.1-0.7-0.1-0.7-0.1-1.6c0-0.9,0,0,0.1-0.8
				c0-0.8-0.2-0.7-0.1-1.3c0.1-0.7-0.4-0.8-0.5-1.4c-0.1-0.6,0.1-0.7,0.3-1.3c0.2-0.6-0.3-4-0.7-5.4c-0.1-0.3-0.1-0.4-0.6-1.9
				c-0.1-0.5,0,0,0.1-1.8c0.2-1.8,0-0.4-0.1-1.2c-0.2-0.8,0-0.4,0-1.7c0-0.3,0.1-0.6,0.3-1c0.1-0.5,0-0.6-0.4-1.6
				c-0.4-1-0.3-0.3-0.6-0.8c-0.3-0.5-0.2-0.4-0.3-0.8c-0.1-0.5-0.1-0.6-0.1-1.1c0-0.5,0-0.6-0.2-0.8c-0.1-0.3-0.3-0.6-0.4-0.9
				c-0.1-0.3-0.4-1.1-0.6-1.5c-0.3-0.5-0.2-1-0.1-1.2c0.1-0.1,0,0-0.7-0.7c-0.1-0.1-0.3-0.3-0.4-0.5c-1.1-1.2,0,0-1-0.7
				c-0.2-0.2-0.9-0.4-1.5-1.5c-0.1-0.2-0.5-0.7-1.1-1.4c-0.6-0.7-1.2-0.8-1.4-0.9c-0.2-0.1-0.6-0.1-0.8-0.2
				c-0.3-0.2-0.5-0.1-0.8-0.3c-0.2-0.2-0.8-0.4-1.2-0.7c-0.3-0.4-0.6,0-1.1-0.1c-0.4-0.1-0.7-0.5-1.1-0.6c-0.4-0.1-2.2-1.3-2.6-1.7
				c-0.3-0.3-0.7-0.2-1.6-0.6c-0.2-0.1-0.6-0.3-0.6-0.7c-0.1-0.2-0.6-0.5-0.7-0.7c-0.1-0.2-0.9-0.1-1.2-0.5c-0.2-0.4-0.2,0-0.7-0.4
				c-0.4-0.4-0.4-0.9-0.4-0.9c-0.4-0.3-0.9-0.6-1.4-1c-0.3-0.3-0.4-0.3-0.6-0.6c-0.2-0.3-0.1-0.2-0.2-0.6c0-0.3,0.1-0.4,0.1-0.9
				c0-0.5-0.2-0.4-0.3-0.6c-0.1-0.3-0.4-0.6-0.5-1.1c-0.1-0.4-0.4-0.4-1-0.9c-0.6-0.5-0.3-0.5-0.6-1.1c-0.4-0.6-0.5-0.5-0.6-0.7
				c-0.1-0.2-0.5-0.5-0.8-0.9c-0.2-0.4-0.3-0.7-0.5-1.1c-0.2-0.4-0.5-0.4-0.8-0.7c-0.3-0.3-0.9-1.1-1.1-1.4
				c-0.2-0.3-0.1-0.1-0.4-0.5c-0.2-0.4-0.6-1-1-1.8c-0.4-0.8-0.6-0.9-0.7-1.3c-0.1-0.5-0.4-0.8-0.5-1.1c-0.1-0.4-0.4-0.4-0.6-0.6
				c-0.2-0.2-0.4-0.2-0.6-0.4c-0.1-0.1-0.2-0.2-0.4-0.4c-0.2-0.2-0.3-0.3-0.4-0.5c-0.1-0.2-0.3-0.4-0.5-0.7
				c-0.2-0.2-0.2-0.2-0.3-0.4c-0.1-0.2-0.8-1.1-0.9-1.4c0-0.3-0.6-0.6-0.6-0.7c0-0.1-0.4-0.6-0.6-0.8c-0.1-0.2-0.1-0.4-0.2-0.6
				c0-0.3-0.6-0.5-0.8-0.7c-0.2-0.2-0.7-0.5-0.7-0.7c0-0.1-0.5-0.2-0.7-0.3c-0.2-0.1-0.2,0-0.3,0c-0.1,0-0.8-0.2-1.3-0.6
				c-0.5-0.5-0.8-0.4-0.8-0.7c0-0.3-0.1-0.2-0.1-0.5c0-0.3,0,0,0.3-0.3c0.3-0.2,0.1-0.1,0.1-0.5c0-0.3-0.1-0.2-0.3-0.7
				c-0.2-0.5-0.3-0.2-0.7-0.5c-0.4-0.2-0.2-0.2-0.5-0.7c-0.3-0.5-0.3-0.3-0.4-0.9c-0.2-0.6-0.1-0.2-0.1-0.5c0-0.3,0.1-0.6,0.2-0.8
				c0-0.2,0.1-1,0.2-1.2c0.1-0.2,0.3-0.3,0.8-0.8c0.5-0.4,0.2-0.1,0.5-0.3c0.2-0.2,0.6-0.2,0.7-0.4c0.1-0.1,0.4-0.3,0.5-0.3h0
				c0,0,0.7-0.6,0.9-1.1c0.1-0.5-0.2-0.5-0.2-0.5s0.2-1.2-0.1-1.6c-0.1-0.2-0.3,0.6-0.4,0.9c-0.1,0.3-0.2,0.5-0.3,0.7
				c-0.1,0.2-0.6,0-0.6,0s-0.3-0.2-0.4-0.6c0-0.4-0.5-0.3-0.8-0.6c-0.3-0.2-0.3-0.3-0.3-0.5c0-0.2,0.1-0.2,0.3-0.3
				c0.2-0.2-0.5-0.3-0.8-0.6c-0.3-0.4,0,0,0.2-0.3c0.1-0.3-0.2-0.3-0.2-0.7c0-0.4,0-0.2,0.1-0.5c0.1-0.4,0.4-0.6,0.5-0.8
				c0.1-0.2,0-1,0-1.3c0-0.3-0.1-0.3-0.2-0.6c-0.1-0.3-0.1-0.2-0.1-0.5c0-0.2,0.3-0.3,0.7-0.7c0.4-0.4,0.3,0,0.3-0.4
				c0-0.3-0.1-0.2-0.2-0.3c-0.1-0.2-0.1-0.3-0.3-0.6c-0.3-0.3-0.1-0.4-0.2-0.7c0-0.3,0-0.2,0.3-0.4c0.2-0.2,0.2,0,0.4-0.1
				c0.1-0.1,0.7,0,0.8-0.1c0.2-0.1,0.2-0.2,0.2-0.2c0.1-0.1,0.6-0.4,0.8-0.4c0.2-0.1,0.5,0,0.7,0c0.2,0,0.5,0,0.5-0.2
				c0-0.2-0.3-0.4-0.3-0.7c0,0,0-0.1,0-0.2c0-0.2,0.1-0.4,0.1-0.5c0.1-0.1-0.1-0.4,0.1-0.5c0.2,0,0.2,0.1,0.2-0.2
				c0-0.3,0.1-0.6,0-1.1c0-0.4,0.5-0.6,0.7-0.7c0.2-0.1,0.2,0,0.4-0.1c0.2-0.1,0.5,0.1,1-0.2c0.5-0.3,0,0,0.2-0.3
				c0.2-0.3,0,0,0.3-0.2c0.3-0.1,0.2-0.2,0.3-0.5c0.1-0.3,0.1-0.2,0.3-0.6c0.2-0.3,0.1-0.4,0.3-0.6c0.2-0.2,0.4-0.3,0.6-0.8
				c0.2-0.5,0.1-0.2-0.1-0.4c-0.1-0.2-0.5-1-0.4-1.4c0.1-0.3-0.1-0.6,0-1c0-0.4-0.1-0.7-0.1-1c0-0.3-0.3-0.5-0.5-0.9
				c-0.2-0.4-0.3-0.2-0.4-0.6c-0.1-0.4,0.3-0.7,0.2-0.9c0-0.2-0.3-0.9-0.3-1.2c0-0.2-0.2-0.4-0.1-0.9c0.1-0.3-0.2-0.4-0.2-0.6
				c0-0.2-0.4-0.3-0.6-0.7c-0.2-0.3-0.2-0.2-0.3-0.4c0-0.2,0.1-0.3,0.1-0.3s-0.1-0.1-0.2-0.1c-0.1,0.1-0.2,0.1-0.3,0.2
				c-0.4,0.3-0.7,0.7-1.1,0.4c-0.4-0.3-0.5-1-0.6-1.4c-0.2-0.3-0.9,0.4-0.9,0.4s-0.2,0.1-0.5,0.4c-0.3,0.2-0.2,0.5-0.2,0.8
				c0,0.3-0.1,0.3-0.2,0.9c-0.1,0.6-0.5,0.7-0.7,0.7c-0.2-0.1-1.6,0.7-1.5,0.9c0.1,0.1,0.4,1.1,0.5,1.3c0.1,0.2,0.8,1,1,1.1
				c0.2,0.2,0.1,0.5-0.5,1.5c-0.3,0.1-0.5,0.2-0.7,0.3c-0.3,0.1-0.6,0.2-0.9,0.3c0,0-1.6-0.2-1.7-0.4c0-0.2-0.1-0.4,0-0.6
				c0.1-0.2-1-1.1-1.1-1.4c-0.2-0.3-0.6-0.2-0.7-0.1c-0.2,0.1-0.6,0.2-0.7,0.1c-0.2-0.1-0.9-0.1-0.8-0.4c0.1-0.3-0.4-1-0.4-1
				s-0.6,0-0.7-0.2c-0.1-0.2-0.8-0.6-1-0.9c-0.2-0.3-0.9-0.4-1.4-0.5c-0.5-0.1-1.6-0.2-3.1-0.4c0,0-0.5-0.5-1.5-0.8
				c-0.9-0.3-0.4-0.1-0.7-0.3c-0.3-0.2-0.2,0.3-0.3,0.6c-0.1,0.2-0.8,0-1.2,0.1c-0.4,0.2,0.1-0.5-0.6-0.8c-0.2-0.1-0.7-0.1-0.8-0.4
				c-0.1-0.3-0.3-0.3-0.4-0.5c-0.1-0.3-0.5-0.2-0.4-0.6c0.1-0.4,0.3-0.3,0.2-0.8c0-0.5-0.2-0.3-0.3-0.4c0-0.2-0.8-0.6-0.8-1
				c0-0.4-0.7-0.2-1-0.5c-0.3-0.3-0.8-0.2-1.1-0.4c-0.3-0.2-0.5,0-0.8,0.1c-0.2,0.1-0.6-0.4-0.7-0.6c-0.1-0.2-0.5-0.1-0.7-0.2
				c-0.2-0.1-0.3-0.3-0.5-0.5c-0.1-0.1-0.3-0.5-0.5-1.2c-0.1-0.2-1.4-1.2-1.1-0.6c0.3,0.5,0.8,0.8,0.8,1c0,0.2,0,1.1,0,1.1
				s0,0-0.1,0.4c0,0.4-1-0.4-1.2-0.6c-0.1-0.2-1.4-0.8-1.4-0.8s0,0-0.7-0.2c0,0-0.6-0.2-0.8-0.2c-0.2,0-0.7-0.7-1-1
				c-0.2-0.3-0.4-0.8-0.4-1.2c0-0.4-0.1-1-0.2-1.2c-0.1-0.2-0.2-1.8,0.1-2.1c0,0,0-0.1,0-0.2c0-0.2-0.3-0.5-0.3-0.7
				c-0.1-0.3-0.6-0.7-0.7-0.8c-0.1-0.2-0.6-0.6-0.7-0.7c-0.1-0.2-1.1-0.4-1.7-0.8c-0.6-0.5-0.6-0.5-0.7-0.6c-0.1-0.2-1-0.7-1.2-1.3
				c-0.3-0.7-0.7-0.6-0.6-0.8c0.1-0.1-1-0.9-1.1-1.3c-0.1-0.4-1.7-1-2.1-1.3c-0.2-0.1-0.4-0.3-0.6-0.5c-0.2-0.2-0.4-0.4-0.3-0.6
				c0-0.3,0.1-0.8,0-1.3c0-0.5-0.7-0.3-1-0.4c-0.3-0.2-2.3-0.2-3-0.2c-0.7,0-2.1-0.2-2.3-0.3c-0.2,0-1.8-0.2-1.8-0.2s-1.5-0.3-2-0.6
				c-0.4-0.3-0.9,0-1.2-0.2c-0.3-0.2-1.5-0.4-2.3-1c-0.8-0.6-0.7-0.4-1.2-0.7c-0.1,0-0.1,0-0.1,0c-0.5-0.3-1.3-0.5-1.7-0.6
				c-0.4-0.1-1.4,0-1.6,0.2c-0.1,0.1-0.8-0.4-0.8-0.4s-4.8-1.9-5.4-1.9c-0.3,0-0.7-0.2-0.9-0.5c-0.2-0.2-0.3-0.4-0.3-0.5
				c0-0.3-0.7-1.1-0.8-1.3c-0.1-0.2-0.8-0.8-1.4-1.8c-0.7-1-0.4,0-1.2-0.4c-0.7-0.3-0.6-0.3-0.8-0.6c-0.1-0.2-0.9-0.6-1-0.8
				c-0.2-0.2-1-0.7-1.2-0.7c-0.3-0.1-2.1-1.6-2.5-1.7c-0.4-0.2-1.1-0.4-2.1-0.8c0,0-1.4-0.5-2.1-0.7c-0.6-0.2-0.5-0.1-1.2-0.1
				c-0.7,0-0.3,0.1-0.5,0.3c-0.2,0.3-0.7,0.3-0.8,0.4c-0.2,0-0.6,0.1-1.9,0.8c-1.3,0.7-1.5,0.5-2,0.7c-0.4,0.2-0.3,0.1-0.5,0.3
				c-0.2,0.1-1.4,0.2-1.6,0.2c-0.2,0-1.2-0.3-1.4-0.3c-0.2-0.1-1.6-0.6-1.8-0.4c-0.3,0.2-1.8-0.3-1.8-0.3s-4.4-1.5-5.1-1.9
				c-0.8-0.4-1-0.2-1.3-0.5c-0.4-0.2-0.8-0.2-1.2-0.4c-0.4-0.1-0.8-0.3-0.9-0.6c-0.1-0.3-0.8-0.4-0.8-0.4s-1.1-0.4-1.4-0.5
				c-0.3-0.1-1.1,0.2-1.6-0.1c-0.5-0.2-0.6-0.2-0.6-0.2c-0.4-0.2-0.8-0.3-1.2-0.5c-0.5,0-0.9,0-1.4,0c0,0-0.9-0.6-1.2-0.7
				c-0.2,0-0.6-0.6-1.9-0.8c-1.3-0.2-1-0.4-1.2-0.6c-0.2-0.2-0.7-0.3-0.7-0.3s-1.5-0.7-1.5-0.9c0-0.2-1.1-0.7-1.2-0.9
				c-0.1-0.2-1.2-0.8-1.5-1.1c-0.2-0.3-1.2-0.2-1.2-0.2s-1.3-0.5-1.5-0.7c-0.2-0.2-2,0.4-2.9-0.1c-0.8-0.5-0.9-0.5-1.5-0.7
				c-0.5-0.2-0.5,0-0.8-0.2c-0.3-0.2-1.1-0.4-1.4-0.7c-0.3-0.3-0.5-0.4-0.7-0.8c-0.2-0.4-0.6-0.3-0.6-0.5c0-0.2-1-0.9-1.4-1.1
				c-0.4-0.2-1-0.8-1.2-1c-0.2-0.2-1.1-0.3-1.4-0.4c-0.4-0.1-0.8,0.2-1,0.1c-0.2,0-0.8-0.8-1.1-1c-0.2-0.2-1.1-0.9-1.3-1
				c-0.2-0.1-0.4-1.2-0.5-1.7c-0.2-0.5-1.1-1.4-1.3-1.6c-0.2-0.3-0.6-0.9-0.8-1.4c-0.3-0.6,0-0.2,0.3-0.5c0.3-0.3,0.4-0.4,0.9-1.2
				c0.2-0.4-0.1-0.4-0.1-0.6c-0.1-0.2-0.1-0.9-0.1-1.4c0-0.6,0-0.2,0.2-0.6c0.2-0.3-0.1-0.6-0.1-0.8c-0.1-0.2-0.3-0.4-0.4-0.8
				c-0.1-0.3-0.6-0.7-0.9-1.1c-0.3-0.4-0.4-0.1,0-0.5c0.4-0.4,0.1-0.4,0.1-0.8c0-0.4-0.5-0.9-0.6-1.7c-0.1-0.8-0.7-0.8-0.9-1
				c-0.1-0.2-0.5-1-0.6-1.2c-0.1-0.2-2.5-1.6-2.5-1.8c-0.1-0.1-1.1-1.2-1-1.4c0.1-0.2-0.9-1-2.2-1.6c-1.3-0.6-0.5-0.4-0.7-0.9
				c-0.2-0.5-0.6-0.4-0.8-0.9c-0.2-0.5-0.8-0.4-1.1-0.7c-0.3-0.3-0.7-0.2-0.8-0.4c-0.1-0.2-0.7-0.2-0.8-0.5c-0.1-0.2-1.2-0.7-1.4-1
				c-0.2-0.4-0.8-0.6-0.8-0.9c-0.1-0.3-0.1-0.3,0-0.7c0.1-0.4,0-0.5,0-0.9c0-0.3-0.3-0.4-0.6-0.7c-0.2-0.2-0.8-0.1-0.8-0.1
				c-0.2-0.1-0.5-0.1-0.7-0.1c0,0-0.9-1-1.1-1.2C31.4,270,31,270,31,270s-1.1-0.5-1.2-0.6c-0.2-0.1-0.7-0.2-0.8-0.3
				c-0.1-0.2-1-0.5-1-0.5s-0.6-0.8-0.6-1.1c0-0.4,0-0.3,0.3-0.7c0.3-0.4,0.2-0.5,0.6-1.2c0.3-0.6-0.2-0.5-0.3-0.8
				c-0.1-0.3-0.6-0.3-0.6-0.3s-0.9-0.4-1.6-1.1c0,0-0.6-0.2-0.9-0.9c-0.4-0.7-0.7-0.6-0.8-0.8c-0.1-0.2-0.7-0.1-0.9-0.4
				c-0.2-0.3-0.5,0.1-0.6-0.1c-0.2-0.1-0.7-0.2-0.7-0.4c-0.1-0.1-0.3-1.8-0.3-2c0-0.1-0.4-0.7-0.4-0.7c-0.2-0.1-0.5-0.1-0.6-0.2
				c0,0-1.1-0.3-1.5-0.5c-0.4-0.1,0.4,0-0.4-0.5c-0.8-0.5-1-0.3-1.2-0.4l0,0c-0.3,2.1-0.6,4.3-0.8,6.5l0.1,0.1
				c0.6,0.2,0.5,0.7,1.1,1.3c0.6,0.6,0.5,0.7,0.9,1.2c0.3,0.5-0.6,0-0.6,0s1.8,1.6,1.8,1.8c0,0.3-0.3,0.2-1.3,0.6
				c-1,0.5-0.2,0.4,0.5,0.6c0.7,0.3,0.5,0.6,1,0.7c0.5,0.1,0.1,0.8,0.1,0.8s0.6,0.8,0.9,0.9c0.2,0.1,0.8,0.5,0.8,0.8
				c0.1,0.3,0.2,0.7-0.4,1.3c-0.3,0.2-0.1,0.4-0.2,0.7c-0.1,0.3,0.1,0.6,0.5,1.2c0.3,0.6,0.6,0.5,0.8,0.4c0.2,0,1,0.6,1.2,0.8
				c0.2,0.2,1.2,0.2,1.5,0.2c0.3,0,0.9-0.2,1.2,0.4c0.3,0.6,0.2,0.3,0.5,0.9c0.3,0.6,0.1,0.4,0.2,0.8c0.1,0.4,0.2,0.5,0.4,0.8
				c0.3,0.3,0.6,0.7,0.8,0.9c0.2,0.2,0.5,0.7,0.5,0.7c0.1,0.3,0.1,0.5,0.1,0.8c0,0-1.3,1.1-1.5,1.1c-0.2,0-0.8,0.1-1.7-0.1
				c-0.2-0.1-0.3-0.4-0.4-1.4c-0.1-1-0.3-0.3-0.7-0.8c-0.4-0.5-0.5-0.2-0.8-0.6c-0.3-0.3-0.7-0.6-1-0.8c-0.1-0.2-1-0.4-1.3-0.5
				c-0.3-0.1-0.5-0.8-0.7-1c-0.2-0.2-1.8-1.1-2.3-1.6c-0.5-0.5-0.9-0.8-1.7-1.2c-0.9-0.4-0.8-0.3-1.6-0.6c-0.7,8.5-1.2,17-1.2,25.7
				c0,156.7,127,283.7,283.7,283.7c107.3,0,200.7-59.6,248.9-147.5c0,0,0-0.1,0-0.1c-0.1-0.4-0.1-1.1-0.2-1.7c0-0.4-0.1-0.8-0.1-1
				c0-0.4,0-2.6-1.3-3.7c0-0.1-0.1-0.1-0.2-0.2c-1.4-1.2-2.7-3.7-3.3-3.8c-0.4,0-0.6-0.2-1.2-1c-0.4-0.5-0.9-1.3-1.8-2.6
				c-2.1-3-5.2-6.8-5.6-6.6c-0.4,0.2-1-2.1-1.6-2.1c-0.6,0-1.9-2.8-2.1-3.4c-0.2-0.6-0.1-2.2-0.2-3.3c-0.1-1-0.2-2.9,0.4-3.6
				c0.6-0.6,2-0.8,1.8-2.4c-0.2-1.6,0-2-0.1-3.3c-0.1-1.2,0-1.9-0.3-2.7c-0.3-0.8-0.1-1.5,0.3-1.9c0-0.1,0.1-0.2,0.2-0.3
				c0.5-0.7,1.3-2.2,1.1-2.2c-0.3,0-0.1-3.3-0.5-3.6c-0.4-0.2-1.2-3-1.6-3.1c-0.3-0.1-0.7-1.8-1.3-1.5c-0.6,0.2-1.4,0.9-1.8,0.8
				c-0.4-0.1-0.9-1-1.3-1.4c-0.3-0.3-0.7-0.7-0.9-1.2c-0.1-0.2-0.1-0.5,0-0.7c0.1-0.9,1-1.5,0.2-1.3c-0.8,0.2-2.4,0.9-3,1.2
				c-0.7,0.3-1.8,0.7-2.4,1c-0.6,0.2-1.4,0.4-2.3,0.1c-1-0.3-4.7-0.5-5-0.1c-0.3,0.3-0.7-0.6-1.6-1c-0.9-0.4-1.4-1.5-1.6-2.3
				c-0.2-0.8,0.4-2.2-0.2-2.4c-0.6-0.2-0.4-2.1-1.6-1.9c-1.2,0.3-1.5-1.1-2.3-1.3c-0.8-0.2-0.7-1.2-2-1.6c-1.3-0.4-2.3,0-3.7,0.1
				c-0.7,0-1.3,0.1-1.7,0.1c-0.4,0-0.7,0.1-0.7,0.1s-0.3-1.3-1.4-0.4c-1,0.9-4.4,1-4.4,1s-0.3,0.1-1.1,0.4c-0.1,0-0.1,0-0.2,0.1
				c-0.7,0.2-0.9,0.2-1.6,0.6c-0.8,0.4-2,1-2.7,1c-0.7,0-1,0.3-1.6,0.8c-0.1,0.1-0.2,0.1-0.3,0.2c-0.5,0.4-1,0.6-1.6,0.8
				c-0.6,0.2-0.6,0-1.9,0.3c-1.3,0.3-1.5,0-1.9,0.1c-0.4,0.2-0.5,0.3-1.2,1c-0.8,0.7-1.6,1-2.7,1.4c-1.2,0.5-2.7,1.6-2.7,1.6
				s-0.4,0.6-0.9,0.1c-0.4-0.5-0.4-1.9-2-2.2c-1-0.2-1.9-0.3-2.5-0.5c-0.4-0.1-0.8-0.2-1-0.3c-0.6-0.2-1.1-0.4-2.4-0.2
				c-1.2,0.2-4.5-0.2-5.2,0.2c-0.7,0.3-1.6-0.4-2.9,0.1c-1.4,0.5-2,0-3,0.7c-1,0.7-2.2,0.6-2.7,0.9c-0.6,0.3-0.6-0.4-1.4,0.6
				c-0.8,0.9-1.6,1.2-3.4,2.1c0,0-0.1,0.1-0.2,0.1c0,0-1.5-0.2-1.9-0.3c-0.4-0.1-2.3-0.9-2.7-1.2c-0.4-0.3-2-0.6-2.3-0.8
				c-0.2-0.1-1.5-1.1-1.8-1.3c-0.2-0.1-1.2-0.7-1.4-1.1c-0.1-0.3-1.4-1.1-1.4-1.1s-1.2-0.4-1.5-0.8c-0.3-0.5-1.1-1.2-1.6-1.7
				c-0.5-0.4-1.5-1.2-2.3-2.3c-0.8-1.1-3.2-1.8-3.2-1.8s-1.2-0.4-2-0.8c-0.1-0.1-0.2-0.1-0.3-0.2c-0.8-0.5-1.3-2-1.6-2.1
				c-0.2-0.1-1.7-0.9-1.9-1c-0.2-0.1-0.2-0.9-0.6-0.9c-0.4,0-1.4-0.1-1.4-0.1c-0.2-0.3-0.4-0.7-0.6-1c0,0,0.1-1.1,0-1.5
				c0-0.4-1-2.3-1.3-2.7c-0.3-0.3-0.9-1.2-1.3-1.5c0,0,0-0.1,0-0.1c-0.1-0.3-0.4-0.7-1.1-1.7c-2.1-2.8-4.3-4.7-4.3-4.7
				s-0.8-0.4-1.2-0.7c-0.4-0.2-1.1-1.2-1.5-1.5c-0.4-0.3-1-1.5-1-1.5c-0.2-0.1-0.3-0.2-0.5-0.4c-0.6-0.6-1.1-1.2-1.3-1.2
				c-0.2,0.1-0.7-0.5-0.7-0.7c0-0.3-0.1-1.1-0.1-1.1c0-0.4,0-0.9,0-1.3c0,0-0.9-0.9-1.3-0.8c-0.4,0.1-1.3-0.6-1.7-0.2
				c-0.4,0.4-0.7,0.1-1,0.2c-0.3,0.2-1-0.2-1.2-0.5c-0.3-0.3-0.1-1.1-0.4-1.1c-0.3,0-1.2-0.3-1.2-0.3s-0.2-0.5-0.4-0.8
				c-0.1-0.2-0.2-0.3-0.2-0.3c-0.1-0.2,0-0.9,0-0.9c-0.1-0.6-0.2-1.2-0.3-1.8c0,0-0.4-0.6-0.3-1.1c0.1-0.5,0.2-0.9,0.6-1.4
				c0.4-0.5,0.9-0.9,0.6-0.8c-0.2,0.1-0.2-1.8-0.2-1.8s-1.2-1.8-1.7-1.7c-0.5,0.1-0.5-1-0.8-1.2c-0.3-0.2-0.7-1.6-1-1.7
				c-0.3-0.1-0.2-1.1,0.3-1.5c0.5-0.4,1.8-1.7,1.9-2c0.2-0.2-0.2-1.1,0.3-1.5c0.6-0.4,0.8-2.7,0.8-2.7s0.1-0.5,0.2-0.9
				c0.1-0.3,0.2-0.5,0.2-0.6c0.2-0.2,0.2-0.8,0.2-2.5c0-1.7,1.2-3,1.2-3s0.8-1.3,0.7-1.5c0-0.3-0.7-2.8-0.7-2.8
				c-0.2-0.7-0.4-1.5-0.7-2.2c0,0-0.3-0.9-0.6-1.2c-0.3-0.3-0.8-1.2-0.8-1.2s-0.2-0.9,0.4-1.3c0.5-0.4,1.2-1.3,1.1-1.6
				c-0.1-0.2-1.5-3.6-1.8-3.6c-0.3,0-1.4-2.7-2.3-2.1c-0.8,0.6-0.9,0.5-1.1,0.4c-0.3-0.1-0.6-0.9-0.1-2.2c0.1-0.3,0.1-0.5,0.2-0.8h0
				c0.3-1.2,0.7-2.4,0.7-2.7c0-0.4,0.4-1,0.6-1.5c0.3-0.5,0.7-1,1.6-1.8c0.9-0.7,1.9-3.4,2.1-3.9c0.2-0.5,0.4-1.4,0.5-2.1
				c0.1-0.8,0-1.1,0.3-1.4c0.3-0.4,0.6-1.4,1-1.7c0.4-0.3,1-0.9,1.2-1.1c0.2-0.3,1-1.2,1.2-1.5c0.1-0.2,1.4-1.8,1.4-1.8
				s0.8-1.9,0.9-2.2c0.1-0.2,0.6-1.9,0.6-1.9s0.1-1.8,0.4-1.9c0.3-0.1,1.6-1.4,1.6-1.4s1.5-1,1.7-1c0.3-0.1,1.8-1.5,1.8-1.5
				c0.3-0.5,0.5-0.9,0.8-1.4c0,0,0.3-2.2,0.7-2.7l0-0.1c0.4-0.5,1.3-1.8,1.7-1.8c0.4-0.1,5.4-2,5.7-1.9c0.3,0.1,1.3-0.4,1.9-0.8
				c0.6-0.4,1.1-1,1.6-1.2c0.4-0.3,1.1-1.1,1.1-1.1c0.2-0.3,0.4-0.7,0.6-1c0,0,0.2-0.6,0.8-0.8c0.6-0.2,1-0.2,1.6-0.8
				c0.6-0.6,0.8-1.1,1.1-1.3c0.3-0.2,0.9-1.2,1.1-1.5c0.2-0.2,0.8-1.3,1.1-1.6c0.2-0.3,0.5-0.6,0.4-1c-0.1-0.4,0.1-2-0.2-2
				c-0.4,0-0.4-0.8-0.3-1.4c0.1-0.5,1.4-6.7,1.4-6.7s-0.1-1,0.2-1.3c0.3-0.3,1.2-1.7,1.3-1.9c0.2-0.2,0.7-1.3,1.3-1.7
				c0.5-0.4,0.6-0.9,1.6-1.7c0.9-0.8,1.5-1.8,1.8-1.8c0.2,0,1.2-0.9,1.4-0.7c0.2,0.2,2.1-0.6,2.1-0.6c0.8-0.3,1.6-0.6,2.4-0.9
				c0,0,0.9-1.4,1.2-1.2c0.3,0.2,1.1-1.1,1.3-1.1c0.2-0.1,0.6-1,0.7-1.2c0.1-0.2,0.4-1,0.6-1.3c0.2-0.3,0.5-1.1,0.5-1.1
				s1.3-2.4,1.4-3c0.2-0.6-0.1-0.6,0.3-1.3c0.4-0.8,0.7-1.3,1-1.5c0.2-0.2,0.7-0.9,0.7-0.6c0,0.2,1,0.2,1,0.7c0.1,0.5,0.8,0.4,0.7,1
				c0,0.6,2.5,0.8,2.7,1.5c0.1,0.6,2.1,0.1,2.1,0.5c0,0.3,1.3,0.6,1.7,0.6c0.4,0,2.2-0.3,2.2-0.3c0.3-0.2,0.6-0.3,0.9-0.4
				c0,0,0.8-0.3,1.2-0.2c0.4,0.1,0.8-0.6,1.3-0.1c0.5,0.5,0.3,0.4,0.6,0.9c0.3,0.5,1.6-0.3,1.7,0c0.2,0.3,0.7,0.1,0.9,0.6
				c0.2,0.6,0.3,0.1,1,0.3c0.6,0.3,1.2-0.1,1.4,0.1c0.3,0.2,1.1-0.2,1.1-0.2c0.4-0.3,0.8-0.6,1.2-1c0,0,0.8-1,1-1.2
				c0.3-0.3,0.9-0.8,1.2-1c0.3-0.2,0.8-1,1.1-0.9c0.2,0.1,4.2-1.3,4.2-1.3s-0.1,0.6,0.3,0.7c0.4,0.1,1.7-1,2.2-1.2
				c0.4-0.1,0.9-0.7,1.4-0.9c0.4-0.2,0.8-1.1,1.1-1c0.4,0.1,0.9-1,2-0.8c1.1,0.2,5-0.3,5.3-0.3c0.4,0,2-0.8,2.6-0.9
				c0.6-0.1,1.4-1,1.7-0.8c0.3,0.2,0-0.1,0.8-0.2c0.9-0.1,2.2-0.3,2.4-0.2c0.3,0.2,2.2-0.3,2.2-0.3c1.5,0.1,3,0.3,4.5,0.4
				c0.2,0.3,0.4,0.5,0.6,0.8c0,0,0.8,0.7,1,0.7c1.1,0.2,3.3-1.3,3.3-1.3s0.8-0.8,1.1-0.9c0.3-0.1,1-0.6,1.3-0.6
				c0.3,0,1.5,0.1,1.7,0.4c0.2,0.3,0.6,0,1,0.3c0.3,0.2,1.5-0.5,1.8-0.3c0.2,0.3,0.7-0.4,0.9-0.2c0.1,0.3,0.6-0.8,1.1,0.2
				c0.6,1,1.1,0.6,1.5,0.9c0.4,0.3,1.5-0.3,1.8-0.2c0.1,0,0.2,0,0.4,0c1.1-0.2,4.4-1.4,4.4-1.4s0.7-0.6,1-0.7c0.3-0.1,1.4-1,1.7-0.8
				c0.2,0.2,0.5-0.5,1.2,0.2c0.7,0.7,1.6,0.5,1.7,1.1c0.1,0.6,0.2,1.4,0.3,1.9c0,0.6-0.9,0.8,0,0.6c1-0.2,2.3-1.6,2.5-1.6
				c0.2-0.1,1,0.5,1,0.5c-0.3,1.3-0.9,1.5-1.3,2.3c-0.4,0.7-0.7,0.8-0.9,1.4c-0.2,0.6-0.6,0.5-0.6,1c0,0.6,0.5,0.9,0.9,1.3
				c0.4,0.4,2,2.8,2,3.1c0,0.2,0,0.6,0,1.2c0,0.6,0.1,0.7-0.2,1.2c-0.2,0.5-0.5,1.2-1,1.7c-0.5,0.5-1.3,0.9-1.5,1.1
				c-0.2,0.3-1.3,0.5-1.5,0.9c-0.1,0.4-0.4,0.7-0.9,1.2c-0.4,0.4-0.9,0.1-0.6,0.7c0.3,0.6,0.7,0.6,1.2,1.2c0.5,0.6,0.9,0.7,1.4,0.9
				c0.5,0.2,0.9-0.6,0.9-0.6s1.1-0.2,1.4,0.1c0.3,0.3,0.6,1.1,0.9,1.5c0.3,0.3,0.8,0.8,1.2,1.2c0.2,0.1,0.4,0.3,0.7,0.4
				c0.4,0.3,0.9,0.5,1.3,0.7c0.5,0.2,1,0.1,1.4,0.7c0.4,0.5,1.2,0.9,1.2,0.9s0.3,0.2,1,0.2c0.7,0,1.5-0.5,1.8-0.2
				c0.2,0.3,3.3-0.3,3.3-0.3c1.1,0.2,2.2,0.4,3.2,0.7c0,0,2.9,2,3.4,2.1c0.5,0.1,1.6-0.3,2-0.1c0.4,0.1,0.7,0.6,0.9,0.9
				c0.2,0.3,0.1,0.4,0.5,1.3c0.4,0.9,1.2,1.4,1.3,2.2c0.1,0.8-0.3,1.5,0.3,1.6c0.6,0.2,1.5-0.2,1.6,0.4c0.2,0.6,0.1,0.5,0.9,0.5
				c0.8,0,2.2-0.7,2.2-0.3c0.1,0.3,3.7,1,3.7,1s1.3,0.1,1.5,0.3c0.2,0.3,1.5,0.2,2.1,0.8c0.6,0.7,1.2,0.5,1.6,0.8
				c0.3,0.2,0.8,0.5,1.2,0.8c-3.4-15.4-8-30.3-13.7-44.7C560.5,194.8,560.2,194.8,560.2,194.7z M193.1,41.8
				c-1.2,1.2-1.7,1.9-3.5,2.7c-1.8,0.8-1.6,1.1-3.2,0.2c-1.6-0.8-1.5-0.7-1.3-1.6c0.2-0.9,1.7-1.5,2.5-2.4c0.8-0.9,1.8-0.4,2.4-0.9
				c0.2-0.3,2.4-0.6,4-1c1.5-0.4,0.8,0,1.7,1.1C196.6,40.9,194.3,40.7,193.1,41.8z M206.4,45.1c-0.7,1.3-1.1,2.3-2.2,3.5
				c-1,1.3-0.7,0.2-1.3-0.7c-0.7-0.9-0.6-1.1-0.4-2.6c0.2-1.4,0.5-1.7,1.5-2.2c1.6-0.8,2.7-1,3.4-0.6
				C208,43.2,207.2,43.9,206.4,45.1z M217.5,35.9c-0.5,1.1-0.4,0.3-1.1,0.2c-0.7,0-0.8-0.3-2.2-0.5c-1.3-0.2-0.7-1,0.1-1.5
				c0.6-0.4,1.7-0.7,2.2-0.8c0.6-0.1,0.8,0.3,1.4,0.6C218.4,34.3,218,34.8,217.5,35.9z M221.8,34.1c-0.8,0.4-2.8-0.6-2.2-1.6
				c0.1-0.2,1-0.7,1.7-0.9c0.6-0.2,1,0.2,1.6,1.3C223.6,33.9,222.7,33.7,221.8,34.1z M267.3,150.3c-0.9-0.3-0.7-1.1-1-1.6
				c-0.2-0.5,0.9-1.4,1.6-1.6c0.2-0.1,0.6,0.6,0.4,1c-0.2,0.4,0.2,0.6,0.4,1.1c0.2,0.6,0.7,1.3,0.5,1.9
				C269,151.8,268.2,150.7,267.3,150.3z M218.3,287.4c0.5-0.3,1-0.4,1.6,0.2c0.5,0.6-0.3,0.5-0.3,0.5s-1,0.2-1.5,0
				C217.7,288,218,287.6,218.3,287.4z M215,293.6c0.9-0.3,4,0.3,3.4,0.8c-0.6,0.5,0,0-0.4,0.6c-0.4,0.6-1.2,0.5-2,0.4
				c-0.7-0.1-0.9-0.2-1.3-0.5C214.3,294.5,214.5,293.8,215,293.6z M211.6,285.7c2.8-0.5,1.7,1.7,1.7,1.7s0.2,1.1-0.9,1.6
				c-1,0.4-0.4,0-0.4-0.9c0.1-0.9,0.8-0.6,0.6-1.3C212.6,286,210.9,285.8,211.6,285.7z M207.3,281.6c0.7,0.1,0.3,0.6,0.6,1.2
				c0.2,0.6,0.1,1.1-0.2,1.4c-0.3,0.3-0.4-0.3-1.1-1c-0.7-0.6-0.2-0.6-0.9-0.9c-0.7-0.2-0.2-0.9,0-1.2
				C206.1,280.7,206.6,281.5,207.3,281.6z M204.1,275.5c0.4-0.3,0.8,0.5,1.3,0.8c0.5,0.3,0.2,0.3,0.2,1c0,0.6-0.2,1.3-0.7,1.5
				c-0.5,0.1,0.1-0.3,0-1.2c-0.1-0.9-0.2-0.9-0.6-1.2C203.9,276.1,203.7,275.7,204.1,275.5z M202.8,281.4c-0.1,0.4-0.6,0.1-1.1-0.2
				c-0.6-0.3,0,0,0.1-0.6C201.8,280.7,203.1,280.7,202.8,281.4z M200.2,271.4c0.7,0,0.7,0.7,1.1,1.1c0.3,0.5,0.5,0.7,0.5,1.5
				c0,0.8-0.3,0.5-0.9,0.3c-0.5-0.1-0.5-1.1-0.8-1.7c-0.2-0.5-2-0.5-1.8-0.9C198.7,270.8,199.5,271.4,200.2,271.4z M194,264.5
				c1.4-0.4,2-0.4,2.2,0.1c0.2,0.4-0.1,0.3,0,1c0.1,0.7,0.1,1.1-0.1,1.7c-0.3,0.6-0.9,1-0.9,1.4c0,0.6-0.6-0.9-0.3-1.5
				c0.3-0.7,0-1,0.1-1.4C195.2,265.3,193.4,264.7,194,264.5z M194.3,278.3c0.7-0.2,0.3,0.5-0.8,1.8c-0.5,0.5-0.7-0.5-0.9-1.3
				C192.6,278.8,193.6,278.5,194.3,278.3z M193.1,275c0.4,0.7,0.4,0.9,0,2.2c-0.4,1.4-0.6,0.3-1.2-0.2c-0.6-0.6-0.2-0.5-1.2-0.8
				c-1-0.3,0-0.8-0.2-1.7c-0.2-0.9,0.2-1.9,0.5-2.6c0.3,0.3,0.6,0.5,0.8,0.8C191.9,272.8,192.7,274.4,193.1,275z M187.9,264.4
				c0.4-1.2,1.8-0.4,2.6-0.5c0.8-0.1,1.6,0.6,1.1,0.8c-0.5,0.2-1.1-0.2-1.9,0.3c-0.9,0.6-2,1.3-2.2,0.7
				C187.4,265.3,187.5,265.7,187.9,264.4z M167.3,291.9c-1.2,0.1-0.8-0.2-1.2-0.9c-0.5-0.7-0.4-1.5,0.6-1.8c1.1-0.3,2.2,1.1,2.2,2.2
				C168.9,292.6,168.5,291.8,167.3,291.9z M202.8,310.4c-1,0.4-2.4,0.4-3.2,0.5c-0.8,0.1-0.7-0.5-1.9,0.1c-1.1,0.5-0.9,1.2-1.8,0.6
				c-1-0.6-1.2-0.5-2.1-1.1c-0.8-0.7-1.7-1-1.9-2.1c-0.1-0.3,2.2-1,3.1-1c0.9,0,2.3-0.2,3.7,0.5c1.5,0.7,1-0.4,2.5,1
				C202.8,310.4,203.8,309.9,202.8,310.4z M210,300.8c-0.4-0.3-1.7-0.7-1.7-0.7s-1.4,1.7-1.8,1c-0.4-0.7-1.3-0.9-2-0.9
				c-0.7,0-3.2,0.4-3.8,0.4c-0.6,0-1.4-0.2-3.1,0.2c-1.7,0.4-3.2,0.1-2.6-0.4c0.6-0.4,1.6-1.2,1.9-2c0.3-0.8-0.3-1.2-0.8-1.5
				c-0.5-0.2-2-0.1-2.5-0.4c-0.5-0.2-2.8-1.7-3.1-2.2c-0.2-0.5-0.7-2.1-1.6-2.4c-0.9-0.3-1-0.8-2.4-0.5c-1.4,0.3-0.5,1.8-2.5-0.2
				c-2-2-1.8-2.1-2.9-2c-1.1,0.1-3-0.1-4.9-0.4c-1.9-0.2-2-0.6-2.9-0.9c-0.8-0.3-1.5,0.4-1.4-0.6c0-1,0.4-1.3-0.2-1.7
				c-0.6-0.3-1.3-0.9-2.5-0.4c-1.2,0.4-1.7,0-2.1,1c-0.4,1-1.3,1.1-2.1,1.3c-2.6,0.6-2.9-0.8-3.7,0.3c-0.9,1.1-1.9,1.8-1.9,1.8
				c-0.4-0.7-1.3-2.8-0.9-3c0.5-0.2,0.6-0.8,2-1.2c1.4-0.4,1.3-1,2.1-1.3c0.8-0.3,0.7-0.7,1.7-0.6c1.1,0.1,1.4-0.3,2-0.2
				c0.6,0.1,1.5-0.2,2.5-0.2c0.9,0,0.6-0.1,1.5-0.1c1,0,0.7-0.5,2.2-0.3c1.5,0.1,2.3,0.1,3.1,0.2c0.7,0.1,2.3,0.3,3.4,0.7
				c1.1,0.3,2.1-0.4,3.5,0c1.4,0.5,1.2,0.4,1.6,1.1c0.3,0.8,0.7,1.3,1.2,1.5c0.5,0.2,1.3,0,1.8,0.3c0.5,0.2,2,0.2,2,0.2
				c1.1,1.3,1.7,0.8,2.3,1.7c0.6,0.9,1.4-0.3,2.1,0.1c0.7,0.4,1.1,0.8,2.4,1.6c1.3,0.8,1.4,0.2,2.5,1c1.1,0.8,1.6,0.5,1.9,1.3
				c0.4,0.8-0.3,0.4,1.1,0.7c1.4,0.3,1.9,0.6,2.4,0.7c0.5,0.1,1.5-0.3,1.6,0.4c0.1,0.7-0.1,1.8,0.6,1.9c0.7,0.1,0.9-0.6,2.1,0
				c1.2,0.6,1.5,0.3,2.3,0.9c0.7,0.7,0.2,0.4,1.1,1.3c0.9,0.9,0.9-0.5,0.9,0.9C212.3,300.7,210.3,301.2,210,300.8z M240.4,307.7
				c-1,0-2.5,0-3.3,0.2c-0.8,0.2-2.2,0.1-2.8,0.3c-0.6,0.2-1.8-0.1-2.2,0.2c0,0-2.1-0.1-2.5,0.2c-0.3,0.4-1.3,0.9-1.4,1.8
				c-0.1,0.9,1,2,0,1.5c-1-0.6-2.1-1.1-2.7-1.5c-0.6-0.4-0.2-0.6-1.2-0.7c-0.9-0.1-1.5-0.2-2.4-0.1c-1,0.1-1.5-0.1-2.2-0.1
				c-0.7,0-1.8,0.4-2.7,0.1c-0.8-0.4-1-0.6-1.5,0.1c-0.5,0.7-1.3,0.6-1.3,0.6c-0.4-0.3-0.7-0.7-1.1-1c-0.5-0.6-1.5-1.4-0.8-1.8
				c0.7-0.5,2.9-1.2,3.7-0.8c0.9,0.5,2.5,0.7,3.2,1.1c0.7,0.4,1,0.6,1.9,0.5c0.9-0.1,2.3-0.1,1.9-0.7c-0.4-0.7-1.4-0.5-1.9-1.4
				c-0.5-0.9-1.2-0.9-0.9-1.7c0.3-0.8-0.2-1.6-0.6-1.8c-0.4-0.2-1.3,0.1-1.6-0.6c-0.3-0.7-1.4-1-0.6-1.6c0.8-0.6,1.2-1.4,2.8-1
				c1.5,0.4,1.6,1.5,2.8,1.7c1.2,0.3,1.5,0.1,2.2,0.4c0.7,0.2,0.7,0,2.3-0.2c1.6-0.2,1.5-0.4,2.4-0.1c1,0.3,2.4-0.9,2.9,0.2
				c0.6,1.1,0.5,1.1,1.4,1.7c0.1,0.1,0.2,0.1,0.2,0.1c-0.1,0-0.4-0.4,2.1,0.6c3.6,1.5,5.1,1.7,5.2,2.4
				C242.1,308,241.4,307.7,240.4,307.7z M257.1,310.6c-0.9,0.4-1.4-0.1-1.8,0.2c-0.5,0.3-0.7,0-2,0.4c-1.2,0.4-1.9,0.3-2.3,0.3
				c-0.3,0-1.1-0.9-1.1-0.9c-0.3-0.8-1.4-1.7-0.3-2c1.2-0.3,2.9-0.4,4.1-0.3c1.2,0.1,1.4,0,2.4,0.1c1.1,0.1,0.9,0,1.3,0.8
				C257.9,310.1,258,310.3,257.1,310.6z M263.8,315.4c-0.1,0.4-1,0.1-1.7,0.1c-0.7-0.1,0-0.6,0.5-0.9c0,0,1-0.1,1.4,0.2
				C264.2,315,263.8,315.1,263.8,315.4z M272.2,313c0,0.5-0.3,0.7-0.8,0.7c-0.6,0-0.4-1-0.2-1.4c0.3-0.5,1.1,0,1.1,0
				S272.2,312.6,272.2,313z M273.4,317.5c-0.4-0.2-1-0.8-0.4-1.1c0.8-0.3,1.6,0.4,1.5,0.9C274.4,317.8,273.8,317.7,273.4,317.5z
				 M277.3,150.5c0.3,0.4-0.3,0.5-1,1.4c-0.6,0.9-0.6,0.8-1.2,1.1c-0.6,0.3-1.1,0.2-1.4-0.3c-0.3-0.4-1.2-0.5-1.5-0.3
				c-0.3,0.2-1.6,0.1-2.2-0.7c-0.6-0.8-0.2-1.3,0.2-1.6c0.4-0.3,4.1,0.4,6-0.1C278.1,149.6,277,150.2,277.3,150.5z M280.3,133.7
				c-0.7,0.1-1.7-0.3-2.5-0.4c-0.8-0.1-2.1-0.5-2.6-0.7c-0.5-0.2-1.6-1-2.1-1.3c-0.4-0.3-1.6-1.2-3.1-1.4c-1.5-0.2-2-1.5-2-1.5
				c0.6-0.7,3.2-0.7,4.4-0.5c1.2,0.2,1.8,0.3,2.4,0.3c0.6,0,2.1,0.5,2.7,0.8c0.6,0.3,3.3,2.3,4,2.5c0.7,0.2,0,1.4,0,1.4
				S281,133.6,280.3,133.7z M284.1,152.9c-1.1,0.4-1,0.5-1.7,0.3c-0.8-0.1-1.4-0.4-1.2-1c0,0-0.1-0.1,0.2-0.6
				c0.4-0.4,2.6-3.2,3.5-3.7c0.9-0.5,1-1.8,1.8-0.6c0.8,1.3,1.8,0.4,0.8,2.1C286.4,151.3,285.3,152.6,284.1,152.9z M283.8,336
				c-0.8,0-0.7-1.9-0.1-2.1C285.7,333.4,284.7,336,283.8,336z M283.8,338.5c-0.2,0.3-1.4-0.3-0.8-0.8
				C283.6,337.3,284,338.2,283.8,338.5z M283.8,330c0.4,0.2,1,1.1,0.9,1.9c-0.2,0.8-0.8,0.3-1.4,0.1c-0.6-0.2-0.8-0.8-0.8-2
				C282.6,329.9,283.5,329.7,283.8,330z M279.7,323.5c0.2-0.5,0.2-1.4,0.3-1.8c0,0.1,0,0.3,0,0.4c0.4-0.1,0.5-0.4,0.9-0.2
				c0,0.5-0.1,1.1-0.4,1.5C280.2,323.5,280,323.5,279.7,323.5z M281.1,344.6c-0.7,0-0.6-2-0.1-1.6
				C282,343.9,281.8,344.6,281.1,344.6z M281,327.9c-0.3-0.2-0.4-1.6-0.2-1.8v0c0.3,0,0.5-0.2,0.9,0c0.4,0.3,0.7,0.6,0.6,1.1
				c0,0.3-0.1,0.7-0.4,0.9C281.7,328,281.3,328.1,281,327.9z M284,354.2c-1.2,0-0.9,0.1-1.8,0.1c-0.9,0-0.2-0.6,0.2-1.2
				c0.3-0.7,0.6-1.9,1.5-2.3c1.2-0.6,1.7,0.7,1.7,2.4C285.5,354.7,285.2,354.1,284,354.2z M288.9,153.7c-1.1,0.6-1.3,0.7-2.1,1.2
				c-0.7,0.5-1.7,0.6-1.8,0.1c-0.1-0.5-0.3-0.6,0.2-1.1c0.4-0.5,0.2-1.9,1.5-2.2c1.3-0.3,2.2-1.3,2.4,0
				C289.5,152.9,290,153.1,288.9,153.7z M327.4,143.3c-0.3,0.6-0.6,0.2-0.9,1c-0.3,0.8-0.4,0.9-0.6,1.5c-0.2,0.6,0.6,0.2-0.4,1.1
				c-1,0.9-2.1,0.9-2.1,0.9c-0.4-0.8-0.8-1.5-1.2-2.3c-0.8,0.3-1.5,0.6-2.3,0.9c-0.2-1.9-0.1-2,0-2.7c0.1-0.7,0.1-0.7,0.1-0.7
				c-1.7-0.5-2.5-0.9-2.3-0.3c0.2,0.6-0.8,1-1.6,1.4c-0.8,0.3-1.5,0.8-1.9,1.4c-0.3,0.6-0.9,0.9-1.6,1c-0.7,0.1-0.9,0.1-1.5,0
				c-0.6-0.1-1.3,0-1-0.4c0.3-0.5,0.4-0.6,1.2-0.9c0.8-0.3,1-0.6,1.3-0.8c0,0-0.4-1-0.8-1.3c-0.5-0.3-0.6-0.2-0.5-0.9
				c0.1-0.7,0.7-1.5-0.1-1.5c-0.8,0-0.9,0.3-2.2,0.8c-1.3,0.5-1.9,0.7-2.2,0.7c-0.3,0-0.5,0.1-1.9,0.1c-1.4,0-0.5-0.4-2.2-0.2
				c-1.6,0.2-3.6,0.2-4.2,0.2c-0.6,0-1.9-0.6-3.1-0.3c-1.2,0.3-2.1-0.1-2.1-0.1s0-1.1,0.6-1.8c0.6-0.7,0.9-0.9,1.4-1.3
				c0.5-0.3,1.2-0.9,1.2-0.9s1.1-1.2,0.2-1.2c-0.9,0-1.6-0.2-1.6-0.2s0.6-0.8,1.1-1.2c0.6-0.4,1.2-0.5,1.5-1.2
				c0.3-0.7,0.5-0.7,0.6-1.4c0.1-0.7,0.2-1.1,0.7-1.3c0.4-0.5,0.9-0.9,1.3-1.4c0.5-0.4,0.9-0.9,1.4-1.3c0,0,0.4-0.9,0.3-1.5
				c-0.2-0.6,0-0.9,0.5-1.4c1-1.2,1.2-2,1.9-2.8c0.7-0.8,1.2-1.2,1.5-1.8c0.4-0.6,2-1,2.4-1.8c0.4-0.8,0.7-2.3,1.6-2.8
				c1-0.5,0.9-0.8,1.8-0.9c0.9-0.1,0.3,0,1.7-0.1c1.4-0.1,0.6-0.5,1.4-0.1c-0.2-0.8-0.1-0.7,0.1-0.4c-0.2-0.2-0.3-0.3-0.1,0.4
				c0.4,1.5,0.5,1.1-0.6,1.6c-1.1,0.5-2-0.1-1.6,0.8c0.4,0.9,1.2,0.4,0.5,1.8c-0.7,1.4-2,2.1-3,2.9c-1,0.8-1.5,1.1-1.6,1.9
				c-0.1,0.8-0.3,1.1-0.4,1.6c0,0.5,0,0.1-0.7,1.3c-0.7,1.2-0.7,1.6-0.7,1.6s0.9-1,2.3-2.2c1.4-1.2,0.8-1.1,1.4-1.2
				c0.6,0,0.7,0.3,1.4,0.4c0.7,0.1,1.5-0.1,1.8,0c0,0,0.4,0.5-0.7,1.3c-1.1,0.8-0.7,0.3-1.1,0.8c-0.4,0.5-0.6,0.8-0.7,1.2
				c-0.2,0.5,0.4,0.4,1.2,0.4c0.8,0,1.8-0.3,2,0c0.6,1,0.5,2.4,0.5,2.4s0.7-0.1,1-0.4c0.4-0.2,0.5-1,1.1-1.4
				c0.6-0.3,1.3-1.1,1.3-1.1s1.1-1.2,1.1-0.8c0.1,1.2,1.4,1.6,1.7,1.3c0.4-0.2,0.5,0.2,1,0.3c0.4,0.1,2,0.5,2,1.1
				c0,0.6-0.6,0.7-0.9,1.3c-0.3,0.6-0.8-0.1-1.3,0.6c-1,1.5-0.2,1.1-0.2,1.9c0,0.8,1.2-0.1,0,0.8c-1.1,0.9-0.2,0.5-0.2,0.5
				s1.1,0.7,1.7,0.4c0.6-0.3,1.1-0.9,1.6-1.1c0.5-0.1,1.7-0.9,1.6-0.4c-0.2,0.6,0.1,0.3-1.2,1.3c-1.2,1-1.7,0.8-2.3,1.5
				c-1.8,2-1.9,1.9-1.8,2.4c0,0,0.8,1.2,1.5,0.8c0.7-0.5,0.8-1.6,1.6-2.1c0.7-0.4,1.7-0.7,1.7-0.7c0.3,1.5,0.1,2.1-0.3,2.5
				c-0.4,0.4-0.5,0.9-0.5,0.9c0.7-0.3,1.5-0.5,2.3-0.8C327.3,141.6,327.7,142.8,327.4,143.3z M274,551.1c0,0.2,0.1,0.6,0.2,0.7
				C274,551.7,274,551.3,274,551.1z M141.3,404.8c-0.3,0.5-1.3,0.5-1.9,0.6c-0.7,0-1.4-0.5-1.8-1.4c-0.4-1,0.7-0.4,0.8-0.8
				c0.1-0.4,0-0.9-0.5-1.2c-0.5-0.3-0.8-0.3-1.2-0.6c-0.4-0.2,0.7-1.2,1-1.5c0,0,0.5-0.1,0.7-0.3c0.2-0.2,1.2,0.8,1.5,1.1
				c0.3,0.4,0.2,0.6,0.3,1.1c0.1,0.6,1,1.3,1.4,1.7C142,404,141.6,404.4,141.3,404.8z M141.5,401.1c0,0,0.6-0.1,0.5,0.6
				C142.2,400.9,141.5,401.1,141.5,401.1z M144.4,404.2c-0.3,0.4-0.4,0.2-1,0c-0.6-0.2-0.6-1.2-0.6-1.6c0-0.6,0.3-0.2,0.6-0.3
				c0.3-0.1,0.6-0.1,1.3,0.5C145.4,403.5,144.6,403.8,144.4,404.2z M148.2,405c-0.5-0.2-0.6-0.7-0.1-1c0.4-0.2,1.2,0.6,1.2,0.9
				C149.2,405.2,148.6,405.2,148.2,405z"/>
			<path class="st0" d="M515.1,256.3c-0.2-0.1-1.2,0.4-1.2,0.4c-0.6,0.1-0.7,0.8-1.1,0.5c-0.4-0.2-0.7,0.3-0.7,0.6
				c0,0.3-0.4,1.3,0,1.6c0.5,0.3,0.4,0.6,0.9,0.5c0.5-0.1,1.6-1.1,1.5-1.2c-0.1-0.1-0.4-0.7,0.1-0.9c0.4-0.2,0.7-0.2,0.9-0.7
				C515.8,256.7,515.3,256.4,515.1,256.3z"/>
			<path class="st0" d="M509.7,257.8c-0.3,0.3-0.7,0.7-0.4,1.2c0.3,0.4,0.7,0.9,0.9,0.7c0.2-0.2,0.1-0.9,0.2-1.3
				C510.5,258,509.7,257.8,509.7,257.8z"/>
			<path class="st0" d="M507.5,254.1c-0.4-0.1-1.1,0-1.2,0.5c0,0.4-0.1,0.8-0.4,1c-0.3,0.3,0.8,0.7,1,0.9c0.4,0.2,1.2-0.7,1.2-1.2
				C508.2,254.8,507.9,254.2,507.5,254.1z"/>
			<path class="st0" d="M519.4,258.3c-0.8,0-1.6,0.1-1.6,0.1c-0.3,0.5-1,0.2-1,0.8c0,0.5-0.2,0.9,0.4,1c0.6,0.1,0.5,0.2,0.8,0.6
				c0.4,0.4,0.9,0.3,1.3-0.1c0.4-0.4,0.5-0.6,0.6-0.9c0.1-0.3,0.1-0.5-0.1-0.7C519.7,258.8,520.2,258.3,519.4,258.3z"/>
			<path class="st0" d="M527,255.3c-0.4,0.4-0.9,0.6-0.8,0.9c0.1,0.4,0.2,0.5-0.6,0.7c-0.8,0.2-0.8,0.2-0.8,0.2s-0.4,0.6,0,1.1
				c0.4,0.5-0.9,0.8-0.5,1.1c0.4,0.3,0.4,0.3,0.7,0.4c0.3,0.1,0.6-0.5,1-0.7c0.9-0.6,1.2-0.5,1.6-0.8c0.4-0.4,1.1-0.7,1.1-1.3
				c-0.1-0.6-0.1-0.7-0.4-0.9C528.1,255.7,527.7,254.8,527,255.3z"/>
			<path class="st0" d="M530,251.9c-0.6,0.5-0.6,0.6-1.1,0.6c-0.5,0-1,0.1-0.9,0.5c0.1,0.4-0.4,0.1-0.6,0.5c-0.1,0.4-0.2,0.8,0.4,1
				c0.6,0.2,0.9,0.4,1.1,0.1c0.3-0.3,0.1-0.6,0.4-0.8c0.3-0.1,0.8,0.1,0.9-0.4c0.1-0.5,0.3-0.9,0.3-1.1
				C530.5,252.1,530.6,251.5,530,251.9z"/>
			<path class="st0" d="M505.8,260.2c-0.3,0.3-0.6,0.2-0.4,0.5c0.1,0.3,0.4-0.1,0.5,0.6c0,0.7,0.1,0.7,0.5,0.7c0.4,0,0.9-0.8,1-1
				c0-0.3,0.1-1.1-0.3-1.1C506.6,259.8,506.2,259.9,505.8,260.2z"/>
			<path class="st0" d="M511.2,231.1c-0.4,0.3-1,0.4-0.7,0.9c0.3,0.6-0.4,0.9,0.1,1.1c0.4,0.2,0.6,0.3,0.9,0.1
				c0.3-0.2,0.4-0.4,0.7-0.6c0.3-0.2,0.7-0.1,0.7-0.1s0.3-0.2,0.4-0.6c0-0.4,0-0.9-0.4-1C512.5,230.9,511.2,231.1,511.2,231.1z"/>
		</g>
	</g>
</g>
<g>
	<rect x="118.5" y="-229.3" class="st2" width="52.6" height="52.6"/>
	<rect x="171" y="-229.3" class="st3" width="52.6" height="52.6"/>
	<rect x="223.6" y="-229.3" class="st4" width="52.6" height="52.6"/>
	<rect x="276.2" y="-229.3" class="st5" width="52.6" height="52.6"/>
	<rect x="328.7" y="-229.3" class="st0" width="52.6" height="52.6"/>
	<rect x="381.3" y="-229.3" class="st6" width="52.6" height="52.6"/>
	<rect x="433.8" y="-229.3" class="st7" width="52.6" height="52.6"/>
</g>
</svg>
