<?xml version="1.0" encoding="utf-8"?>
<!-- Generator: Adobe Illustrator 21.0.0, SVG Export Plug-In . SVG Version: 6.00 Build 0)  -->
<svg version="1.0" xmlns="http://www.w3.org/2000/svg" xmlns:xlink="http://www.w3.org/1999/xlink" x="0px" y="0px"
	 viewBox="0 0 169.3 137.8" style="enable-background:new 0 0 169.3 137.8;" xml:space="preserve">
<style type="text/css">
	.st0{fill:#302E2F;}
	.st1{fill:#F3A438;}
	.st2{fill:#FFFFFF;stroke:#302E2F;stroke-width:0.651;stroke-miterlimit:10;}
	.st3{fill:#827D80;}
	.st4{fill:#686567;}
	.st5{fill:#4E4B4D;}
	.st6{fill:#272526;}
	.st7{fill:#1A191A;}
	.st8{fill:#0C0C0D;}
	.st9{fill:#FBDEB6;}
	.st10{fill:#F8C987;}
	.st11{fill:#F5B355;}
	.st12{fill:#D9840D;}
	.st13{fill:#A96715;}
	.st14{fill:#784A11;}
	.st15{opacity:0.79;}
	.st16{fill:none;stroke:#827D80;stroke-width:2;stroke-linecap:round;stroke-linejoin:round;stroke-miterlimit:10;}
	.st17{fill:none;stroke:#F9AE14;stroke-width:2;stroke-linecap:round;stroke-linejoin:round;stroke-miterlimit:10;}
	.st18{fill:#E9E9E9;}
	.st19{fill:none;stroke:#F9AE14;stroke-width:3.2148;stroke-linecap:round;stroke-linejoin:round;stroke-miterlimit:10;}
	.st20{fill:none;stroke:#F9AE14;stroke-width:1.7707;stroke-miterlimit:10;}
	.st21{fill:none;stroke:#F2F2F2;stroke-width:2.0473;stroke-linecap:round;stroke-linejoin:round;stroke-miterlimit:10;}
	.st22{fill:none;stroke:#F9AE14;stroke-width:2.0473;stroke-linecap:round;stroke-linejoin:round;stroke-miterlimit:10;}
	.st23{fill:#F9AE14;}
	.st24{fill:none;stroke:#E9E9E9;stroke-width:10.2908;stroke-linecap:round;stroke-linejoin:round;stroke-miterlimit:10;}
	.st25{fill:none;stroke:#E9E9E9;stroke-width:2.5242;stroke-linecap:round;stroke-linejoin:round;stroke-miterlimit:10;}
	.st26{fill:none;stroke:#F9AE14;stroke-width:2.5242;stroke-linecap:round;stroke-linejoin:round;stroke-miterlimit:10;}
	.st27{fill:none;stroke:#F9AE14;stroke-width:3.2359;stroke-miterlimit:10;}
	.st28{fill:none;stroke:#E9E9E9;stroke-width:2.6133;stroke-linecap:round;stroke-linejoin:round;stroke-miterlimit:10;}
	.st29{fill:#FFFFFF;}
	.st30{font-family:'TodaySHOP-Medium';}
	.st31{font-size:80.5112px;}
</style>
<g id="Capa_1">
	<g>
		<rect x="-961.8" y="346.9" class="st0" width="114.1" height="110"/>
		<rect x="-834.2" y="346.9" class="st1" width="114.1" height="110"/>
		<rect x="-707.3" y="346.9" class="st2" width="114.1" height="110"/>
		<g>
			
				<text transform="matrix(1 0 0 1 -930.8014 446.3955)" class="st29" style="font-family:'TodaySHOP-Regular'; font-size:15.4425px;">#302e2f</text>
		</g>
		<g>
			<text transform="matrix(1 0 0 1 -659.0367 199.3366)" class="st29" style="font-family:'TodaySHOP-Bold'; font-size:15.4425px;">#302e2f</text>
		</g>
		
			<text transform="matrix(1 0 0 1 -804.9401 446.3955)" class="st0" style="font-family:'TodaySHOP-Regular'; font-size:15.4425px;">#f3a438</text>
		
			<text transform="matrix(1 0 0 1 -667.4733 446.3955)" class="st0" style="font-family:'TodaySHOP-Regular'; font-size:15.4425px;">#ffffff</text>
	</g>
	<g>
		<g>
			<rect x="-958.1" y="478.6" class="st3" width="52.6" height="52.6"/>
			<rect x="-905.5" y="478.6" class="st4" width="52.6" height="52.6"/>
			<rect x="-853" y="478.6" class="st5" width="52.6" height="52.6"/>
			<rect x="-800.4" y="478.6" class="st0" width="52.6" height="52.6"/>
			<rect x="-747.8" y="478.6" class="st6" width="52.6" height="52.6"/>
			<rect x="-695.3" y="478.6" class="st7" width="52.6" height="52.6"/>
			<rect x="-642.7" y="478.6" class="st8" width="52.6" height="52.6"/>
		</g>
		<g>
			<rect x="-958.1" y="540.9" class="st9" width="52.6" height="52.6"/>
			<rect x="-905.5" y="540.9" class="st10" width="52.6" height="52.6"/>
			<rect x="-853" y="540.9" class="st11" width="52.6" height="52.6"/>
			<rect x="-800.4" y="540.9" class="st1" width="52.6" height="52.6"/>
			<rect x="-747.8" y="540.9" class="st12" width="52.6" height="52.6"/>
			<rect x="-695.3" y="540.9" class="st13" width="52.6" height="52.6"/>
			<rect x="-642.7" y="540.9" class="st14" width="52.6" height="52.6"/>
		</g>
	</g>
	<rect x="-452.9" y="205" class="st7" width="1302.4" height="736.5"/>
</g>
<g id="Capa_2">
	
		<image style="overflow:visible;" width="1287" height="725" xlink:href="DB66E0C8.jpg"  transform="matrix(1 0 0 1 -443.8333 208.9976)">
	</image>
</g>
<g id="Capa_3">
	<g class="st15">
		<line id="XMLID_149_" class="st16" x1="1744.7" y1="345.2" x2="1931.4" y2="531.8"/>
		<line id="XMLID_409_" class="st17" x1="1797.4" y1="428.5" x2="1984.1" y2="615.2"/>
		<line id="XMLID_154_" class="st16" x1="1757.7" y1="661.2" x2="1944.4" y2="847.8"/>
		<line id="XMLID_153_" class="st17" x1="1810.4" y1="744.5" x2="1997.1" y2="931.2"/>
		<line id="XMLID_411_" class="st17" x1="2124.4" y1="454.5" x2="2311.1" y2="641.2"/>
		<line id="XMLID_357_" class="st16" x1="2141.7" y1="324.2" x2="2328.4" y2="510.8"/>
		<line id="XMLID_358_" class="st17" x1="2172.2" y1="333.7" x2="2358.9" y2="520.3"/>
		<line id="XMLID_152_" class="st16" x1="2144.7" y1="74.2" x2="2331.4" y2="260.8"/>
		<line id="XMLID_151_" class="st17" x1="2175.2" y1="83.7" x2="2361.9" y2="270.3"/>
	</g>
	<g id="XMLID_26_">
		<polygon id="XMLID_28_" class="st18" points="-369.1,7.8 -398.1,36.8 -427.1,7.8 -449.8,30.6 -420.8,59.6 -449.8,88.5 
			-427.1,111.3 -398.1,82.3 -369.1,111.3 -346.4,88.5 -375.4,59.6 -346.4,30.6 		"/>
		<polygon id="XMLID_30_" class="st19" points="-372.9,-14.1 -401.9,14.9 -430.8,-14.1 -453.6,8.6 -424.6,37.6 -453.6,66.6 
			-430.8,89.3 -401.9,60.3 -372.9,89.3 -350.1,66.6 -379.1,37.6 -350.1,8.6 		"/>
	</g>
	<g>
		<path id="XMLID_22_" class="st20" d="M-382.1,660.3l-20.8-56.3c-0.3-0.9,0.1-1.9,1-2.2l56.3-20.8c0.9-0.3,1.9,0.1,2.2,1l20.8,56.3
			c0.3,0.9-0.1,1.9-1,2.2l-56.3,20.8C-380.8,661.7-381.8,661.2-382.1,660.3z"/>
		<g id="XMLID_602_">
			<g>
				<g id="XMLID_449_">
					
						<ellipse id="XMLID_454_" transform="matrix(0.9382 -0.3461 0.3461 0.9382 -217.9022 -81.7419)" class="st18" cx="-337.8" cy="569.2" rx="1" ry="1"/>
					
						<ellipse id="XMLID_453_" transform="matrix(0.9382 -0.3462 0.3462 0.9382 -222.6683 -78.9823)" class="st18" cx="-332.4" cy="583.8" rx="1" ry="1"/>
					
						<ellipse id="XMLID_452_" transform="matrix(0.9382 -0.3462 0.3462 0.9382 -227.3658 -76.2109)" class="st18" cx="-327" cy="598.4" rx="1" ry="1"/>
					
						<ellipse id="XMLID_451_" transform="matrix(0.9382 -0.3461 0.3461 0.9382 -232.0625 -73.4403)" class="st18" cx="-321.7" cy="613" rx="1" ry="1"/>
					
						<ellipse id="XMLID_450_" transform="matrix(0.9382 -0.3462 0.3462 0.9382 -236.8328 -70.6789)" class="st18" cx="-316.3" cy="627.6" rx="1" ry="1"/>
				</g>
				<g id="XMLID_443_">
					
						<ellipse id="XMLID_448_" transform="matrix(0.9382 -0.3462 0.3462 0.9382 -220.4218 -85.9696)" class="st18" cx="-350.9" cy="574" rx="1" ry="1"/>
					
						<ellipse id="XMLID_447_" transform="matrix(0.9382 -0.3462 0.3462 0.9382 -225.1177 -83.1972)" class="st18" cx="-345.5" cy="588.6" rx="1" ry="1"/>
					
						<ellipse id="XMLID_446_" transform="matrix(0.9382 -0.3462 0.3462 0.9382 -229.8388 -80.4298)" class="st18" cx="-340.1" cy="603.2" rx="1" ry="1"/>
					
						<ellipse id="XMLID_445_" transform="matrix(0.9382 -0.3462 0.3462 0.9382 -234.5599 -77.6624)" class="st18" cx="-334.7" cy="617.8" rx="1" ry="1"/>
					
						<ellipse id="XMLID_444_" transform="matrix(0.9382 -0.3461 0.3461 0.9382 -239.258 -74.892)" class="st18" cx="-329.3" cy="632.4" rx="1" ry="1"/>
				</g>
				<g id="XMLID_437_">
					
						<ellipse id="XMLID_442_" transform="matrix(0.9382 -0.3461 0.3461 0.9382 -222.8458 -90.1785)" class="st18" cx="-363.9" cy="578.9" rx="1" ry="1"/>
					
						<ellipse id="XMLID_441_" transform="matrix(0.9382 -0.3462 0.3462 0.9382 -227.615 -87.4207)" class="st18" cx="-358.5" cy="593.5" rx="1" ry="1"/>
					
						<ellipse id="XMLID_440_" transform="matrix(0.9382 -0.3462 0.3462 0.9382 -232.3118 -84.6486)" class="st18" cx="-353.1" cy="608.1" rx="1" ry="1"/>
					
						<ellipse id="XMLID_439_" transform="matrix(0.9382 -0.3461 0.3461 0.9382 -237.0079 -81.8773)" class="st18" cx="-347.8" cy="622.7" rx="1" ry="1"/>
					
						<ellipse id="XMLID_438_" transform="matrix(0.9382 -0.3462 0.3462 0.9382 -241.7816 -79.1177)" class="st18" cx="-342.4" cy="637.3" rx="1" ry="1"/>
				</g>
				<g id="XMLID_431_">
					
						<ellipse id="XMLID_436_" transform="matrix(0.9382 -0.3461 0.3461 0.9382 -225.341 -94.402)" class="st18" cx="-377" cy="583.7" rx="1" ry="1"/>
					
						<ellipse id="XMLID_435_" transform="matrix(0.9382 -0.3462 0.3462 0.9382 -230.0638 -91.6349)" class="st18" cx="-371.6" cy="598.3" rx="1" ry="1"/>
					
						<ellipse id="XMLID_434_" transform="matrix(0.9382 -0.3462 0.3462 0.9382 -234.7849 -88.8675)" class="st18" cx="-366.2" cy="612.9" rx="1" ry="1"/>
					
						<ellipse id="XMLID_433_" transform="matrix(0.9382 -0.3462 0.3462 0.9382 -239.506 -86.1001)" class="st18" cx="-360.8" cy="627.5" rx="1" ry="1"/>
					
						<ellipse id="XMLID_432_" transform="matrix(0.9382 -0.3462 0.3462 0.9382 -244.2291 -83.3329)" class="st18" cx="-355.4" cy="642.1" rx="1" ry="1"/>
				</g>
				<g id="XMLID_425_">
					
						<ellipse id="XMLID_430_" transform="matrix(0.9382 -0.3461 0.3461 0.9382 -227.8141 -98.6208)" class="st18" cx="-390" cy="588.5" rx="1" ry="1"/>
					
						<ellipse id="XMLID_429_" transform="matrix(0.9382 -0.3461 0.3461 0.9382 -232.5119 -95.8484)" class="st18" cx="-384.6" cy="603.1" rx="1" ry="1"/>
					
						<ellipse id="XMLID_428_" transform="matrix(0.9382 -0.3462 0.3462 0.9382 -237.2579 -93.0863)" class="st18" cx="-379.2" cy="617.7" rx="1" ry="1"/>
					
						<ellipse id="XMLID_427_" transform="matrix(0.9382 -0.3462 0.3462 0.9382 -242.0047 -90.3236)" class="st18" cx="-373.8" cy="632.3" rx="1" ry="1"/>
					
						<ellipse id="XMLID_426_" transform="matrix(0.9382 -0.3461 0.3461 0.9382 -246.6739 -87.5471)" class="st18" cx="-368.5" cy="646.9" rx="1" ry="1"/>
				</g>
				<g id="XMLID_419_">
					
						<ellipse id="XMLID_424_" transform="matrix(0.9382 -0.3461 0.3461 0.9382 -230.2624 -102.8335)" class="st18" cx="-403.1" cy="593.3" rx="1" ry="1"/>
					
						<ellipse id="XMLID_423_" transform="matrix(0.9382 -0.3462 0.3462 0.9382 -235.0098 -100.0726)" class="st18" cx="-397.7" cy="607.9" rx="1" ry="1"/>
					
						<ellipse id="XMLID_422_" transform="matrix(0.9382 -0.3462 0.3462 0.9382 -239.7309 -97.3052)" class="st18" cx="-392.3" cy="622.5" rx="1" ry="1"/>
					
						<ellipse id="XMLID_421_" transform="matrix(0.9382 -0.3462 0.3462 0.9382 -244.452 -94.5378)" class="st18" cx="-386.9" cy="637.1" rx="1" ry="1"/>
					
						<ellipse id="XMLID_420_" transform="matrix(0.9382 -0.3462 0.3462 0.9382 -249.1976 -91.7747)" class="st18" cx="-381.5" cy="651.7" rx="1" ry="1"/>
				</g>
			</g>
		</g>
	</g>
	<g>
		<line id="XMLID_83_" class="st21" x1="637.4" y1="394.9" x2="644.7" y2="402.2"/>
		<line id="XMLID_82_" class="st21" x1="612.2" y1="369.7" x2="625.7" y2="383.2"/>
		<line id="XMLID_81_" class="st21" x1="635" y1="371.3" x2="685.8" y2="422.1"/>
		<line id="XMLID_80_" class="st21" x1="609.1" y1="345.4" x2="619.4" y2="355.7"/>
		<line id="XMLID_79_" class="st22" x1="671.5" y1="386.6" x2="716.2" y2="431.3"/>
		<line id="XMLID_78_" class="st22" x1="604.1" y1="319.2" x2="651.8" y2="366.8"/>
		<line id="XMLID_77_" class="st21" x1="641.5" y1="335.3" x2="720.4" y2="414.2"/>
		<line id="XMLID_76_" class="st21" x1="608.8" y1="302.7" x2="625.5" y2="319.4"/>
		<line id="XMLID_75_" class="st21" x1="706.6" y1="379.2" x2="725.6" y2="398.2"/>
		<line id="XMLID_74_" class="st21" x1="589.9" y1="262.5" x2="686.7" y2="359.3"/>
		<line id="XMLID_73_" class="st22" x1="667.5" y1="318.9" x2="762" y2="413.4"/>
		<line id="XMLID_72_" class="st22" x1="625.8" y1="277.2" x2="647.7" y2="299.1"/>
		<line id="XMLID_71_" class="st21" x1="685.9" y1="316" x2="746.9" y2="377"/>
		<line id="XMLID_70_" class="st21" x1="623.5" y1="253.7" x2="668.6" y2="298.8"/>
		<line id="XMLID_69_" class="st22" x1="736.2" y1="345.1" x2="768.1" y2="377"/>
		<line id="XMLID_68_" class="st22" x1="651.1" y1="260" x2="713" y2="322"/>
		<line id="XMLID_67_" class="st21" x1="705.3" y1="293" x2="748.4" y2="336.1"/>
		<line id="XMLID_66_" class="st21" x1="656.2" y1="243.9" x2="688.4" y2="276.1"/>
		<line id="XMLID_65_" class="st22" x1="743.6" y1="310" x2="760.4" y2="326.8"/>
		<line id="XMLID_64_" class="st22" x1="682" y1="248.4" x2="724.5" y2="290.9"/>
		<line id="XMLID_63_" class="st21" x1="734.9" y1="280.1" x2="745.2" y2="290.4"/>
		<line id="XMLID_62_" class="st21" x1="716.8" y1="262" x2="723.9" y2="269.1"/>
	</g>
	<g>
		<path id="XMLID_17_" class="st23" d="M1045.7,525.1c-1.3-0.6-1.9-2.1-1.4-3.4l0,0c0.6-1.3,2.1-1.9,3.4-1.4l0,0
			c1.3,0.6,1.9,2.1,1.4,3.4l0,0c0,0.1-0.1,0.2-0.1,0.3l0,0C1048.3,525.1,1046.9,525.6,1045.7,525.1z"/>
		<path id="XMLID_16_" class="st18" d="M1037.4,539.2c-1.1,0.9-2.7,0.7-3.6-0.4l0,0c-0.9-1.1-0.7-2.7,0.4-3.6l0,0
			c1.1-0.9,2.7-0.7,3.6,0.4l0,0c0.7,0.9,0.8,2,0.2,2.9l0,0C1037.9,538.7,1037.7,539,1037.4,539.2z"/>
		<path id="XMLID_15_" class="st18" d="M1049.8,507.5c-1.4,0.1-2.7-0.9-2.8-2.4l0,0c-0.1-1.4,0.9-2.7,2.4-2.8l0,0
			c1.4-0.1,2.7,0.9,2.8,2.4l0,0c0,0.5-0.1,1.1-0.3,1.5l0,0C1051.4,506.9,1050.7,507.4,1049.8,507.5z"/>
		<path id="XMLID_14_" class="st18" d="M1020,547.4c-1.4,0.3-2.8-0.6-3-2l0,0c-0.3-1.4,0.6-2.8,2-3l0,0c1.4-0.3,2.8,0.6,3,2l0,0
			c0.1,0.6,0,1.3-0.3,1.8l0,0C1021.3,546.8,1020.7,547.3,1020,547.4z"/>
		<path id="XMLID_13_" class="st18" d="M1045.3,489.9c-1.2,0.8-2.8,0.4-3.6-0.8l0,0c-0.8-1.2-0.4-2.8,0.8-3.6l0,0
			c1.2-0.8,2.8-0.4,3.6,0.8l0,0c0.5,0.8,0.5,1.9,0,2.7l0,0C1045.9,489.4,1045.6,489.7,1045.3,489.9z"/>
		<path id="XMLID_12_" class="st23" d="M1000.7,546.7c-1.4-0.4-2.2-1.8-1.7-3.2l0,0c0.4-1.4,1.8-2.1,3.2-1.8l0,0
			c1.4,0.4,2.1,1.8,1.8,3.2l0,0c-0.1,0.2-0.1,0.4-0.2,0.6l0,0C1003,546.5,1001.8,547,1000.7,546.7z"/>
		<path id="XMLID_11_" class="st23" d="M1029.6,477.4C1029.6,477.4,1029.6,477.4,1029.6,477.4L1029.6,477.4c-0.1,0-0.1-0.1-0.1-0.1
			l0,0c-1.2-0.7-1.7-2.3-0.9-3.5l0,0c0.7-1.2,2.3-1.7,3.5-1l0,0c0,0,0.1,0,0.1,0l0,0c0,0,0,0,0.1,0l0,0c1.2,0.7,1.7,2.3,0.9,3.5l0,0
			C1032.4,477.7,1030.8,478.1,1029.6,477.4z"/>
		<path id="XMLID_10_" class="st18" d="M987.6,536.9c-1,1-2.6,1.1-3.6,0.1l0,0c-1-1-1.1-2.6-0.1-3.6l0,0c1-1,2.6-1.1,3.6-0.1l0,0
			c0.9,0.8,1,2.1,0.4,3.1l0,0C987.9,536.6,987.7,536.8,987.6,536.9z"/>
		<path id="XMLID_9_" class="st23" d="M1013.3,472.7c-1.4-0.1-2.5-1.3-2.5-2.7l0,0c0.1-1.4,1.3-2.5,2.7-2.5l0,0
			c1.4,0.1,2.5,1.3,2.5,2.7l0,0c0,0.4-0.1,0.8-0.3,1.2l0,0C1015.2,472.2,1014.3,472.7,1013.3,472.7z"/>
		<path id="XMLID_8_" class="st18" d="M976.9,522.3c-1.4,0.4-2.8-0.3-3.3-1.6l0,0c-0.5-1.3,0.3-2.8,1.6-3.3l0,0
			c1.4-0.4,2.8,0.3,3.3,1.6l0,0c0.2,0.7,0.1,1.5-0.2,2.1l0,0C978,521.7,977.5,522.1,976.9,522.3z"/>
		<path id="XMLID_7_" class="st18" d="M996.8,476.1c-1.3,0.6-2.8,0.1-3.4-1.2l0,0c-0.6-1.3-0.1-2.8,1.2-3.4l0,0
			c1.3-0.6,2.8-0.1,3.4,1.2l0,0c0.4,0.8,0.3,1.7-0.1,2.4l0,0C997.7,475.5,997.3,475.8,996.8,476.1z"/>
		<path id="XMLID_6_" class="st18" d="M974.2,504.4c-1.4-0.2-2.4-1.5-2.1-3l0,0l0,0l0,0c0.2-1.4,1.5-2.4,3-2.1l0,0
			c1.4,0.2,2.4,1.6,2.1,3l0,0c-0.1,0.3-0.2,0.6-0.3,0.9l0,0C976.3,504,975.3,504.6,974.2,504.4z"/>
		<path id="XMLID_5_" class="st23" d="M983.7,486.8c-0.8,1.1-2.5,1.4-3.6,0.5l0,0c-1.1-0.8-1.4-2.5-0.5-3.6l0,0l0,0l0,0
			c0.9-1.1,2.5-1.4,3.6-0.5l0,0c1.1,0.8,1.3,2.2,0.7,3.3l0,0C983.9,486.6,983.8,486.7,983.7,486.8z"/>
		<path id="XMLID_4_" class="st18" d="M1039.5,522c-1.1-0.5-1.6-1.7-1.1-2.8l0,0c0.5-1.1,1.7-1.6,2.8-1.1l0,0
			c1.1,0.5,1.6,1.7,1.1,2.8l0,0c0,0.1-0.1,0.2-0.1,0.2l0,0C1041.7,522,1040.5,522.4,1039.5,522z"/>
		<path id="XMLID_3_" class="st18" d="M1032.8,533.5c-0.9,0.7-2.2,0.6-3-0.3l0,0c-0.7-0.9-0.6-2.2,0.3-3l0,0c0.9-0.7,2.2-0.6,3,0.3
			l0,0c0.6,0.7,0.6,1.7,0.2,2.4l0,0C1033.2,533.1,1033,533.3,1032.8,533.5z"/>
		<path id="XMLID_2_" class="st18" d="M1042.9,507.6c-1.2,0.1-2.2-0.8-2.3-1.9l0,0c-0.1-1.2,0.8-2.2,1.9-2.3l0,0
			c1.2-0.1,2.2,0.8,2.3,1.9l0,0c0,0.4-0.1,0.9-0.3,1.2l0,0C1044.2,507.1,1043.6,507.5,1042.9,507.6z"/>
		<path id="XMLID_1_" class="st18" d="M1018.5,540.3c-1.1,0.2-2.3-0.5-2.5-1.6l0,0c-0.2-1.1,0.5-2.3,1.6-2.5l0,0
			c1.1-0.2,2.3,0.5,2.5,1.6l0,0c0.1,0.5,0,1-0.2,1.5l0,0C1019.6,539.8,1019.1,540.1,1018.5,540.3z"/>
		<path id="XMLID_257_" class="st23" d="M1039.2,493.2c-1,0.6-2.3,0.3-2.9-0.7l0,0c-0.6-1-0.3-2.3,0.7-2.9l0,0
			c1-0.6,2.3-0.3,2.9,0.7l0,0c0.4,0.7,0.4,1.5,0,2.2l0,0C1039.8,492.8,1039.5,493,1039.2,493.2z"/>
		<path id="XMLID_256_" class="st18" d="M1002.7,539.6c-1.1-0.3-1.8-1.5-1.4-2.6l0,0c0.3-1.1,1.5-1.8,2.6-1.4l0,0
			c1.1,0.3,1.8,1.5,1.4,2.6l0,0c0,0.2-0.1,0.3-0.2,0.5l0,0C1004.7,539.5,1003.7,539.9,1002.7,539.6z"/>
		<path id="XMLID_255_" class="st18" d="M1026.4,483L1026.4,483C1026.4,483,1026.4,483,1026.4,483L1026.4,483
			C1026.3,482.9,1026.3,482.9,1026.4,483L1026.4,483c-1.1-0.6-1.5-1.9-0.9-2.9l0,0c0.6-1,1.9-1.4,2.9-0.8l0,0c0,0,0,0,0.1,0l0,0
			c0,0,0,0,0.1,0l0,0c1,0.6,1.4,1.9,0.8,2.9l0,0C1028.7,483.2,1027.4,483.6,1026.4,483z"/>
		<path id="XMLID_254_" class="st18" d="M992,531.7c-0.8,0.8-2.1,0.9-3,0.1l0,0c0,0,0,0,0,0l0,0c-0.8-0.8-0.9-2.1-0.1-3l0,0
			c0.8-0.8,2.1-0.9,3-0.1l0,0c0.7,0.7,0.8,1.8,0.4,2.6l0,0C992.2,531.4,992.1,531.5,992,531.7z"/>
		<path id="XMLID_253_" class="st18" d="M1013,479.1c-1.2,0-2.1-1-2-2.2l0,0c0-1.2,1-2.1,2.2-2l0,0c1.2,0,2.1,1,2,2.2l0,0
			c0,0.3-0.1,0.7-0.3,1l0,0C1014.6,478.7,1013.8,479.1,1013,479.1z"/>
		<path id="XMLID_252_" class="st23" d="M983.3,519.7c-1.1,0.4-2.3-0.2-2.7-1.3l0,0c-0.4-1.1,0.2-2.3,1.3-2.7l0,0
			c1.1-0.4,2.3,0.2,2.7,1.3l0,0c0.2,0.6,0.1,1.2-0.2,1.7l0,0C984.2,519.2,983.8,519.5,983.3,519.7z"/>
		<path id="XMLID_251_" class="st18" d="M999.5,481.9c-1.1,0.5-2.3,0-2.8-1l0,0c-0.5-1.1-0.1-2.3,1-2.8l0,0l0,0l0,0
			c1-0.5,2.3-0.1,2.8,1l0,0c0.3,0.7,0.3,1.4-0.1,2l0,0C1000.2,481.4,999.9,481.7,999.5,481.9z"/>
		<path id="XMLID_250_" class="st18" d="M981.1,505c-1.1-0.2-1.9-1.3-1.7-2.4l0,0c0.2-1.2,1.3-1.9,2.4-1.7l0,0
			c1.1,0.2,1.9,1.3,1.7,2.4l0,0c0,0.3-0.1,0.5-0.3,0.7l0,0C982.8,504.7,981.9,505.2,981.1,505z"/>
		<path id="XMLID_249_" class="st18" d="M988.9,490.6c-0.7,0.9-2,1.1-3,0.4l0,0c-0.9-0.7-1.1-2-0.4-3l0,0c0.7-0.9,2-1.1,2.9-0.4l0,0
			c0.9,0.7,1.1,1.8,0.6,2.7l0,0C989,490.5,988.9,490.5,988.9,490.6z"/>
		<path id="XMLID_246_" class="st18" d="M1034.3,519.3c-0.9-0.4-1.3-1.4-0.9-2.2l0,0c0.4-0.9,1.4-1.3,2.2-0.9l0,0
			c0.9,0.4,1.3,1.4,0.9,2.2l0,0c0,0.1-0.1,0.1-0.1,0.2l0,0C1036,519.3,1035.1,519.6,1034.3,519.3z"/>
		<path id="XMLID_245_" class="st18" d="M1028.8,528.6L1028.8,528.6L1028.8,528.6c-0.7,0.6-1.8,0.5-2.4-0.2l0,0
			c-0.6-0.7-0.5-1.8,0.2-2.4l0,0c0.7-0.6,1.8-0.5,2.4,0.2l0,0c0.5,0.6,0.5,1.3,0.2,1.9l0,0C1029.1,528.3,1029,528.5,1028.8,528.6z"
			/>
		<path id="XMLID_244_" class="st18" d="M1037,507.6c-0.9,0.1-1.8-0.6-1.8-1.6l0,0c-0.1-0.9,0.6-1.8,1.6-1.8l0,0
			c0.9-0.1,1.8,0.6,1.8,1.6l0,0c0,0.4-0.1,0.7-0.2,1l0,0C1038.1,507.2,1037.6,507.6,1037,507.6z"/>
		<path id="XMLID_243_" class="st23" d="M1017.3,534.1c-0.9,0.2-1.8-0.4-2-1.3l0,0c-0.2-0.9,0.4-1.8,1.3-2l0,0
			c0.9-0.2,1.8,0.4,2,1.3l0,0c0.1,0.4,0,0.8-0.2,1.2l0,0C1018.2,533.7,1017.8,534,1017.3,534.1z"/>
		<path id="XMLID_242_" class="st18" d="M1034,496c-0.8,0.5-1.9,0.3-2.4-0.5l0,0c-0.5-0.8-0.3-1.8,0.5-2.3l0,0
			c0.8-0.5,1.9-0.3,2.4,0.5l0,0c0.4,0.6,0.3,1.2,0,1.8l0,0C1034.5,495.6,1034.3,495.8,1034,496z"/>
		<path id="XMLID_241_" class="st18" d="M1004.5,533.6c-0.9-0.3-1.4-1.2-1.2-2.1l0,0c0.3-0.9,1.2-1.4,2.1-1.2l0,0
			c0.9,0.3,1.4,1.2,1.2,2.1l0,0c0,0.1-0.1,0.3-0.2,0.4l0,0C1006,533.5,1005.2,533.8,1004.5,533.6z"/>
		<path id="XMLID_240_" class="st23" d="M1023.6,487.7C1023.6,487.7,1023.6,487.7,1023.6,487.7L1023.6,487.7
			C1023.6,487.7,1023.6,487.7,1023.6,487.7L1023.6,487.7c-0.9-0.5-1.2-1.6-0.7-2.4l0,0c0.5-0.8,1.5-1.1,2.3-0.6l0,0l0,0l0,0
			c0,0,0,0,0,0l0,0c0,0,0,0,0,0l0,0c0.8,0.5,1.1,1.5,0.6,2.3l0,0C1025.5,487.9,1024.5,488.2,1023.6,487.7z"/>
		<path id="XMLID_239_" class="st23" d="M995.8,527.1c-0.7,0.7-1.7,0.7-2.4,0.1l0,0c-0.7-0.7-0.7-1.7-0.1-2.4l0,0
			c0.7-0.7,1.7-0.7,2.4,0l0,0c0.6,0.6,0.7,1.4,0.3,2.1l0,0C996,526.9,995.9,527,995.8,527.1z"/>
		<path id="XMLID_233_" class="st18" d="M1012.8,484.5c-0.9,0-1.7-0.8-1.6-1.8l0,0c0-0.9,0.8-1.7,1.8-1.6l0,0c0.9,0,1.7,0.8,1.6,1.8
			l0,0c0,0.3-0.1,0.6-0.2,0.8l0,0C1014.1,484.2,1013.5,484.6,1012.8,484.5z"/>
		<path id="XMLID_231_" class="st18" d="M988.7,517.4c-0.9,0.3-1.9-0.2-2.2-1.1l0,0l0,0l0,0c-0.3-0.9,0.2-1.9,1.1-2.2l0,0
			c0.9-0.3,1.9,0.2,2.2,1.1l0,0c0.2,0.5,0.1,1-0.1,1.4l0,0C989.4,517,989.1,517.3,988.7,517.4z"/>
		<path id="XMLID_230_" class="st18" d="M1001.9,486.8L1001.9,486.8c-0.8,0.4-1.9,0-2.3-0.8l0,0c-0.4-0.8,0-1.9,0.8-2.3l0,0
			c0.9-0.4,1.9,0,2.3,0.8l0,0c0.3,0.5,0.2,1.1-0.1,1.6l0,0C1002.5,486.4,1002.2,486.6,1001.9,486.8z"/>
		<path id="XMLID_229_" class="st18" d="M986.9,505.6c-0.9-0.2-1.6-1-1.4-2l0,0c0.2-0.9,1-1.6,2-1.4l0,0c0.9,0.2,1.6,1,1.4,2l0,0
			c0,0.2-0.1,0.4-0.2,0.6l0,0C988.3,505.3,987.6,505.7,986.9,505.6z"/>
		<path id="XMLID_228_" class="st18" d="M993.2,493.9c-0.6,0.8-1.6,0.9-2.4,0.3l0,0c-0.8-0.6-0.9-1.6-0.3-2.4l0,0
			c0.6-0.8,1.6-0.9,2.4-0.3l0,0c0.7,0.5,0.9,1.5,0.5,2.2l0,0C993.3,493.8,993.3,493.8,993.2,493.9z"/>
	</g>
	<g>
		<path id="XMLID_140_" class="st23" d="M679,638c-1-0.4-1.4-1.6-1-2.5l0,0c0.4-1,1.6-1.4,2.5-1l0,0c1,0.4,1.4,1.6,1,2.5l0,0
			c0,0.1-0.1,0.1-0.1,0.2l0,0C680.9,638.1,679.9,638.4,679,638z"/>
		<path id="XMLID_138_" class="st18" d="M672.8,648.6c-0.8,0.7-2,0.5-2.7-0.3l0,0c-0.7-0.8-0.5-2,0.3-2.7l0,0c0.8-0.7,2-0.5,2.7,0.3
			l0,0c0.5,0.6,0.6,1.5,0.2,2.2l0,0C673.1,648.2,673,648.4,672.8,648.6z"/>
		<path id="XMLID_136_" class="st18" d="M682.1,624.9c-1.1,0.1-2-0.7-2.1-1.8l0,0c-0.1-1.1,0.7-2,1.8-2.1l0,0c1.1-0.1,2,0.7,2.1,1.8
			l0,0c0,0.4-0.1,0.8-0.3,1.1l0,0C683.3,624.4,682.7,624.8,682.1,624.9z"/>
		<path id="XMLID_134_" class="st18" d="M659.8,654.7c-1,0.2-2.1-0.5-2.3-1.5l0,0c-0.2-1,0.5-2.1,1.5-2.3l0,0c1-0.2,2.1,0.5,2.3,1.5
			l0,0c0.1,0.5,0,1-0.2,1.3l0,0C660.8,654.3,660.3,654.6,659.8,654.7z"/>
		<path id="XMLID_132_" class="st18" d="M678.7,611.7c-0.9,0.6-2.1,0.3-2.7-0.6l0,0c-0.6-0.9-0.3-2.1,0.6-2.7l0,0
			c0.9-0.6,2.1-0.3,2.7,0.6l0,0c0.4,0.6,0.4,1.4,0,2l0,0C679.2,611.3,678.9,611.6,678.7,611.7z"/>
		<path id="XMLID_131_" class="st23" d="M645.3,654.1c-1-0.3-1.6-1.4-1.3-2.4l0,0c0.3-1,1.4-1.6,2.4-1.3l0,0c1,0.3,1.6,1.4,1.3,2.4
			l0,0c0,0.2-0.1,0.3-0.2,0.4l0,0C647.1,654,646.2,654.4,645.3,654.1z"/>
		<path id="XMLID_130_" class="st23" d="M666.9,602.4C666.9,602.4,666.9,602.4,666.9,602.4L666.9,602.4
			C666.9,602.4,666.9,602.3,666.9,602.4L666.9,602.4c-1-0.6-1.3-1.8-0.8-2.7l0,0c0.5-0.9,1.7-1.2,2.6-0.7l0,0c0,0,0,0,0.1,0l0,0
			c0,0,0,0,0.1,0l0,0c0.9,0.5,1.2,1.7,0.7,2.6l0,0C669,602.6,667.9,602.9,666.9,602.4z"/>
		<path id="XMLID_128_" class="st18" d="M635.6,646.9c-0.7,0.8-2,0.8-2.7,0.1l0,0c-0.8-0.7-0.8-2-0.1-2.7l0,0c0.7-0.8,2-0.8,2.7-0.1
			l0,0c0.7,0.6,0.8,1.6,0.3,2.4l0,0C635.8,646.6,635.7,646.8,635.6,646.9z"/>
		<path id="XMLID_127_" class="st23" d="M654.8,598.9c-1.1,0-1.9-0.9-1.8-2l0,0c0-1.1,0.9-1.9,2-1.8l0,0c1.1,0,1.9,0.9,1.9,2l0,0
			c0,0.3-0.1,0.6-0.3,0.9l0,0C656.2,598.5,655.5,598.9,654.8,598.9z"/>
		<path id="XMLID_125_" class="st18" d="M627.6,635.9c-1,0.3-2.1-0.2-2.4-1.2l0,0c-0.3-1,0.2-2.1,1.2-2.4l0,0c1-0.3,2.1,0.2,2.4,1.2
			l0,0c0.2,0.5,0.1,1.1-0.2,1.6l0,0C628.4,635.5,628,635.8,627.6,635.9z"/>
		<path id="XMLID_123_" class="st18" d="M642.4,601.4c-1,0.5-2.1,0.1-2.6-0.9l0,0c-0.5-1,0-2.1,0.9-2.6l0,0c1-0.5,2.1-0.1,2.6,0.9
			l0,0c0.3,0.6,0.2,1.3-0.1,1.8l0,0C643.1,600.9,642.8,601.2,642.4,601.4z"/>
		<path id="XMLID_121_" class="st18" d="M625.5,622.5c-1.1-0.2-1.8-1.2-1.6-2.2l0,0l0,0l0,0c0.2-1.1,1.2-1.8,2.2-1.6l0,0
			c1.1,0.2,1.8,1.2,1.6,2.2l0,0c0,0.2-0.1,0.5-0.2,0.7l0,0C627.1,622.3,626.4,622.7,625.5,622.5z"/>
		<path id="XMLID_120_" class="st23" d="M632.7,609.4c-0.6,0.8-1.8,1-2.7,0.4l0,0c-0.8-0.6-1-1.8-0.4-2.7l0,0l0,0l0,0
			c0.6-0.9,1.8-1,2.7-0.4l0,0c0.8,0.6,1,1.7,0.5,2.5l0,0C632.8,609.2,632.7,609.3,632.7,609.4z"/>
		<path id="XMLID_118_" class="st18" d="M674.4,635.7c-0.8-0.3-1.2-1.3-0.8-2.1l0,0c0.3-0.8,1.3-1.2,2.1-0.8l0,0
			c0.8,0.3,1.2,1.3,0.8,2.1l0,0c0,0.1-0.1,0.1-0.1,0.2l0,0C676,635.7,675.1,636,674.4,635.7z"/>
		<path id="XMLID_116_" class="st18" d="M669.3,644.3c-0.7,0.6-1.7,0.4-2.2-0.2l0,0c-0.6-0.7-0.5-1.7,0.2-2.2l0,0
			c0.7-0.6,1.7-0.4,2.2,0.2l0,0c0.4,0.5,0.5,1.2,0.1,1.8l0,0C669.6,644,669.5,644.2,669.3,644.3z"/>
		<path id="XMLID_114_" class="st18" d="M676.9,624.9c-0.9,0.1-1.6-0.6-1.7-1.4l0,0c-0.1-0.9,0.6-1.6,1.4-1.7l0,0
			c0.9-0.1,1.6,0.6,1.7,1.4l0,0c0,0.3-0.1,0.6-0.2,0.9l0,0C677.9,624.6,677.4,624.9,676.9,624.9z"/>
		<path id="XMLID_112_" class="st18" d="M658.7,649.4c-0.9,0.2-1.7-0.4-1.9-1.2l0,0c-0.2-0.9,0.4-1.7,1.2-1.9l0,0
			c0.9-0.2,1.7,0.4,1.9,1.2l0,0c0.1,0.4,0,0.8-0.2,1.1l0,0C659.5,649,659.1,649.3,658.7,649.4z"/>
		<path id="XMLID_111_" class="st23" d="M674.1,614.2c-0.7,0.5-1.7,0.2-2.2-0.5l0,0c-0.5-0.7-0.2-1.7,0.5-2.2l0,0
			c0.7-0.5,1.7-0.2,2.2,0.5l0,0c0.3,0.5,0.3,1.1,0,1.6l0,0C674.5,613.8,674.4,614,674.1,614.2z"/>
		<path id="XMLID_109_" class="st18" d="M646.9,648.9c-0.8-0.2-1.3-1.1-1.1-2l0,0c0.2-0.8,1.1-1.3,2-1.1l0,0c0.8,0.2,1.3,1.1,1.1,2
			l0,0c0,0.1-0.1,0.2-0.2,0.4l0,0C648.3,648.8,647.6,649.1,646.9,648.9z"/>
		<path id="XMLID_107_" class="st18" d="M664.5,606.5L664.5,606.5C664.5,606.5,664.5,606.5,664.5,606.5L664.5,606.5
			C664.5,606.5,664.5,606.5,664.5,606.5L664.5,606.5c-0.8-0.5-1.1-1.4-0.7-2.2l0,0c0.4-0.8,1.4-1,2.2-0.6l0,0c0,0,0,0,0,0l0,0
			c0,0,0,0,0,0l0,0c0.8,0.4,1,1.4,0.6,2.2l0,0C666.3,606.7,665.3,607,664.5,606.5z"/>
		<path id="XMLID_105_" class="st18" d="M638.9,642.9c-0.6,0.6-1.6,0.7-2.2,0l0,0c0,0,0,0,0,0l0,0c-0.6-0.6-0.6-1.6,0-2.2l0,0
			c0.6-0.6,1.6-0.6,2.2,0l0,0c0.5,0.5,0.6,1.3,0.3,1.9l0,0C639,642.7,639,642.8,638.9,642.9z"/>
		<path id="XMLID_103_" class="st18" d="M654.6,603.6c-0.9,0-1.5-0.8-1.5-1.6l0,0c0-0.9,0.8-1.5,1.6-1.5l0,0c0.9,0,1.6,0.8,1.5,1.6
			l0,0c0,0.3-0.1,0.5-0.2,0.7l0,0C655.7,603.3,655.2,603.7,654.6,603.6z"/>
		<path id="XMLID_102_" class="st23" d="M632.3,634c-0.8,0.3-1.7-0.2-2-1l0,0c-0.3-0.8,0.2-1.7,1-2l0,0c0.8-0.3,1.7,0.2,2,1l0,0
			c0.1,0.4,0.1,0.9-0.1,1.3l0,0C633,633.6,632.7,633.9,632.3,634z"/>
		<path id="XMLID_100_" class="st18" d="M644.5,605.7c-0.8,0.4-1.7,0-2.1-0.8l0,0c-0.4-0.8,0-1.7,0.7-2.1l0,0l0,0l0,0
			c0.8-0.4,1.7,0,2.1,0.7l0,0c0.2,0.5,0.2,1-0.1,1.5l0,0C645,605.4,644.8,605.6,644.5,605.7z"/>
		<path id="XMLID_98_" class="st18" d="M630.7,623c-0.9-0.1-1.4-0.9-1.3-1.8l0,0c0.1-0.9,0.9-1.4,1.8-1.3l0,0
			c0.9,0.1,1.4,0.9,1.3,1.8l0,0c0,0.2-0.1,0.4-0.2,0.5l0,0C632,622.8,631.3,623.1,630.7,623z"/>
		<path id="XMLID_96_" class="st18" d="M636.5,612.2c-0.5,0.7-1.5,0.8-2.2,0.3l0,0c-0.7-0.5-0.8-1.5-0.3-2.2l0,0
			c0.5-0.7,1.5-0.8,2.2-0.3l0,0c0.6,0.5,0.8,1.4,0.4,2.1l0,0C636.6,612.1,636.6,612.2,636.5,612.2z"/>
		<path id="XMLID_94_" class="st18" d="M670.5,633.7c-0.6-0.3-0.9-1-0.7-1.7l0,0c0.3-0.6,1-1,1.7-0.7l0,0c0.6,0.3,0.9,1,0.7,1.7l0,0
			c0,0,0,0.1-0.1,0.1l0,0C671.7,633.7,671.1,634,670.5,633.7z"/>
		<path id="XMLID_92_" class="st18" d="M666.4,640.7L666.4,640.7L666.4,640.7c-0.5,0.4-1.4,0.4-1.8-0.2l0,0
			c-0.4-0.5-0.4-1.3,0.2-1.8l0,0c0.5-0.4,1.4-0.4,1.8,0.2l0,0c0.3,0.4,0.4,1,0.1,1.4l0,0C666.6,640.5,666.5,640.6,666.4,640.7z"/>
		<path id="XMLID_90_" class="st18" d="M672.5,625c-0.7,0.1-1.3-0.5-1.4-1.2l0,0c-0.1-0.7,0.5-1.3,1.2-1.4l0,0
			c0.7-0.1,1.3,0.5,1.4,1.2l0,0c0,0.3,0,0.5-0.2,0.7l0,0C673.3,624.7,672.9,624.9,672.5,625z"/>
		<path id="XMLID_89_" class="st23" d="M657.7,644.8c-0.7,0.1-1.4-0.3-1.5-1l0,0c-0.1-0.7,0.3-1.4,1-1.5l0,0c0.7-0.1,1.4,0.3,1.5,1
			l0,0c0.1,0.3,0,0.6-0.1,0.9l0,0C658.4,644.5,658.1,644.7,657.7,644.8z"/>
		<path id="XMLID_87_" class="st18" d="M670.3,616.3c-0.6,0.4-1.4,0.2-1.8-0.4l0,0c-0.4-0.6-0.2-1.4,0.4-1.8l0,0
			c0.6-0.4,1.4-0.2,1.8,0.4l0,0c0.3,0.4,0.3,0.9,0,1.3l0,0C670.6,616,670.4,616.1,670.3,616.3z"/>
		<path id="XMLID_85_" class="st18" d="M648.2,644.4c-0.7-0.2-1.1-0.9-0.9-1.6l0,0c0.2-0.7,0.9-1.1,1.6-0.9l0,0
			c0.7,0.2,1.1,0.9,0.9,1.6l0,0c0,0.1-0.1,0.2-0.1,0.3l0,0C649.3,644.3,648.7,644.5,648.2,644.4z"/>
		<path id="XMLID_84_" class="st23" d="M662.5,610.1C662.5,610.1,662.5,610.1,662.5,610.1L662.5,610.1
			C662.5,610,662.4,610,662.5,610.1L662.5,610.1c-0.7-0.4-0.9-1.2-0.5-1.8l0,0c0.3-0.6,1.1-0.8,1.7-0.5l0,0l0,0l0,0c0,0,0,0,0,0l0,0
			c0,0,0,0,0,0l0,0c0.6,0.4,0.8,1.1,0.5,1.7l0,0C663.9,610.2,663.1,610.4,662.5,610.1z"/>
		<path id="XMLID_61_" class="st23" d="M641.7,639.6c-0.5,0.5-1.3,0.5-1.8,0l0,0c-0.5-0.5-0.5-1.3,0-1.8l0,0c0.5-0.5,1.3-0.5,1.8,0
			l0,0c0.4,0.4,0.5,1.1,0.2,1.6l0,0C641.8,639.4,641.8,639.5,641.7,639.6z"/>
		<path id="XMLID_59_" class="st18" d="M654.4,607.7c-0.7,0-1.3-0.6-1.2-1.3l0,0c0-0.7,0.6-1.3,1.3-1.2l0,0c0.7,0,1.3,0.6,1.2,1.3
			l0,0c0,0.2-0.1,0.4-0.2,0.6l0,0C655.3,607.5,654.9,607.7,654.4,607.7z"/>
		<path id="XMLID_57_" class="st18" d="M636.4,632.3c-0.7,0.2-1.4-0.1-1.6-0.8l0,0l0,0l0,0c-0.2-0.7,0.1-1.4,0.8-1.6l0,0
			c0.7-0.2,1.4,0.1,1.6,0.8l0,0c0.1,0.4,0.1,0.7-0.1,1l0,0C636.9,632,636.7,632.2,636.4,632.3z"/>
		<path id="XMLID_55_" class="st18" d="M646.2,609.4L646.2,609.4c-0.6,0.3-1.4,0-1.7-0.6l0,0c-0.3-0.6,0-1.4,0.6-1.7l0,0
			c0.6-0.3,1.4,0,1.7,0.6l0,0c0.2,0.4,0.2,0.8,0,1.2l0,0C646.7,609.1,646.5,609.3,646.2,609.4z"/>
		<path id="XMLID_53_" class="st18" d="M635,623.4c-0.7-0.1-1.2-0.8-1.1-1.5l0,0c0.1-0.7,0.8-1.2,1.5-1.1l0,0
			c0.7,0.1,1.2,0.8,1.1,1.5l0,0c0,0.2-0.1,0.3-0.2,0.4l0,0C636.1,623.3,635.6,623.5,635,623.4z"/>
		<path id="XMLID_18_" class="st18" d="M639.8,614.7c-0.4,0.6-1.2,0.7-1.8,0.3l0,0c-0.6-0.4-0.7-1.2-0.3-1.8l0,0
			c0.4-0.6,1.2-0.7,1.8-0.3l0,0c0.5,0.4,0.7,1.1,0.3,1.7l0,0C639.8,614.6,639.8,614.6,639.8,614.7z"/>
	</g>
	<g>
		<circle id="XMLID_144_" class="st23" cx="1101" cy="886.7" r="97.8"/>
		<circle id="XMLID_143_" class="st24" cx="1065.8" cy="851.6" r="97.8"/>
		<circle id="XMLID_142_" class="st24" cx="1065.8" cy="851.6" r="47.2"/>
	</g>
	<g>
		<polyline id="XMLID_146_" class="st25" points="-226.8,266.2 -191,291.5 -155.2,266.2 -119.4,291.5 -83.6,266.2 -47.8,291.5 
			-12,266.2 23.9,291.5 59.7,266.2 		"/>
		<polyline id="XMLID_145_" class="st26" points="-226.8,243.5 -191,268.7 -155.2,243.5 -119.4,268.7 -83.6,243.5 -47.8,268.7 
			-12,243.5 23.9,268.7 59.7,243.5 		"/>
	</g>
	<g id="XMLID_141_">
		<path id="XMLID_148_" class="st27" d="M-249.7,842.9l-48.1,48.1c-0.4,0.4-1,0.4-1.4,0l-48.1-48.1c-0.4-0.4-0.4-1,0-1.4l48.1-48.1
			c0.4-0.4,1-0.4,1.4,0l48.1,48.1C-249.4,841.9-249.4,842.5-249.7,842.9z"/>
		<path id="XMLID_147_" class="st18" d="M-272.4,844.3l-24.1,24.1c-1.2,1.2-3.1,1.2-4.2,0l-24.1-24.1c-1.2-1.2-1.2-3.1,0-4.2
			l24.1-24.1c1.2-1.2,3.1-1.2,4.2,0l24.1,24.1C-271.2,841.3-271.2,843.2-272.4,844.3z"/>
	</g>
	<g>
		<polygon id="XMLID_405_" class="st23" points="1014.5,290.7 1083.5,273.3 1043.9,338.3 		"/>
		<g id="XMLID_156_">
			<polygon id="XMLID_404_" class="st28" points="1013.5,270.7 1083.7,258.5 1039.3,320.3 			"/>
			<path id="XMLID_403_" class="st28" d="M1083.7,258.5c-1.3,0.6-45.5,26.7-45.5,26.7l1.1,35.2L1083.7,258.5z"/>
			<polygon id="XMLID_157_" class="st28" points="1013.5,270.7 1038.2,285.2 1083.7,258.5 			"/>
		</g>
	</g>
	<text transform="matrix(1 0 0 1 4.2051 67.106)" class="st29 st30 st31">AÑO</text>
	<g>
		<text transform="matrix(1 0 0 1 3.406 131.493)" class="st1 st30 st31">2004</text>
	</g>
</g>
</svg>
